STARTFONT 2.1
FONT -JDECW-Gothic-Medium-R-Normal--14-140-75-75-M-140-JISX0208.1983-1
SIZE 14 75 75
FONTBOUNDINGBOX 16 16 0 -2

STARTPROPERTIES 26
FONTNAME_REGISTRY ""
FAMILY_NAME "Gothic"
FOUNDRY "JDECW"
WEIGHT_NAME "Medium"
SLANT "R"
SETWIDTH_NAME "Normal"
ADD_STYLE_NAME ""
PIXEL_SIZE 14
POINT_SIZE 140
RESOLUTION_X 75
RESOLUTION_Y 75
SPACING "M"
AVERAGE_WIDTH 140
CHARSET_REGISTRY "JISX0208.1983"
CHARSET_ENCODING "1"
DEVICE_FONT_NAME "Gothic-JISX0208.1983-1"
CHARSET_COLLECTIONS "JISX0208.1983 1"
FULL_NAME "Gothic-JISX0208.1983-1"
COPYRIGHT "Copyright (c) 1990 1991 TYPEBANK, Digital Equipment Corporation Japan"
CAP_HEIGHT 11
X_HEIGHT 8
WEIGHT 10
QUAD_WIDTH 16
DEFAULT_CHAR 41634
FONT_DESCENT 2
FONT_ASCENT 14
ENDPROPERTIES

CHARS 6970

STARTCHAR Ca1a1
ENCODING 41377
SWIDTH 1000 0
DWIDTH 16 0
BBX 16 16 0 -2
BITMAP
0000
0000
0000
0000
0000
0000
0000
0000
0000
0000
0000
0000
0000
0000
0000
0000
ENDCHAR

STARTCHAR Ca1a2
ENCODING 41378
SWIDTH 1000 0
DWIDTH 16 0
BBX 16 16 0 -2
BITMAP
0000
0000
0000
0000
0000
0000
0000
0000
0000
0000
0000
4000
2000
1000
0800
0000
ENDCHAR

STARTCHAR Ca1a3
ENCODING 41379
SWIDTH 1000 0
DWIDTH 16 0
BBX 16 16 0 -2
BITMAP
0000
0000
0000
0000
0000
0000
0000
0000
0000
0000
3800
4400
4400
4400
3800
0000
ENDCHAR

STARTCHAR Ca1a4
ENCODING 41380
SWIDTH 1000 0
DWIDTH 16 0
BBX 16 16 0 -2
BITMAP
0000
0000
0000
0000
0000
0000
0000
0000
0000
0000
0000
6000
6000
2000
4000
0000
ENDCHAR

STARTCHAR Ca1a5
ENCODING 41381
SWIDTH 1000 0
DWIDTH 16 0
BBX 16 16 0 -2
BITMAP
0000
0000
0000
0000
0000
0000
0000
0000
0000
0000
0000
0000
6000
6000
0000
0000
ENDCHAR

STARTCHAR Ca1a6
ENCODING 41382
SWIDTH 1000 0
DWIDTH 16 0
BBX 16 16 0 -2
BITMAP
0000
0000
0000
0000
0000
0000
0000
0300
0300
0000
0000
0000
0000
0000
0000
0000
ENDCHAR

STARTCHAR Ca1a7
ENCODING 41383
SWIDTH 1000 0
DWIDTH 16 0
BBX 16 16 0 -2
BITMAP
0000
0000
0000
0000
0000
0000
0300
0300
0000
0000
0000
0000
0300
0300
0000
0000
ENDCHAR

STARTCHAR Ca1a8
ENCODING 41384
SWIDTH 1000 0
DWIDTH 16 0
BBX 16 16 0 -2
BITMAP
0000
0000
0000
0000
0000
0000
0300
0300
0000
0000
0000
0300
0300
0100
0200
0000
ENDCHAR

STARTCHAR Ca1a9
ENCODING 41385
SWIDTH 1000 0
DWIDTH 16 0
BBX 16 16 0 -2
BITMAP
0000
0000
0380
0440
0820
0820
0020
0040
0080
0100
0100
0000
0000
0100
0100
0000
ENDCHAR

STARTCHAR Ca1aa
ENCODING 41386
SWIDTH 1000 0
DWIDTH 16 0
BBX 16 16 0 -2
BITMAP
0000
0000
0380
0380
0380
0380
0380
0380
0100
0100
0100
0000
0000
0100
0100
0000
ENDCHAR

STARTCHAR Ca1ab
ENCODING 41387
SWIDTH 1000 0
DWIDTH 16 0
BBX 16 16 0 -2
BITMAP
0000
5000
2800
2800
0000
0000
0000
0000
0000
0000
0000
0000
0000
0000
0000
0000
ENDCHAR

STARTCHAR Ca1ac
ENCODING 41388
SWIDTH 1000 0
DWIDTH 16 0
BBX 16 16 0 -2
BITMAP
0000
3000
4800
4800
3000
0000
0000
0000
0000
0000
0000
0000
0000
0000
0000
0000
ENDCHAR

STARTCHAR Ca1ad
ENCODING 41389
SWIDTH 1000 0
DWIDTH 16 0
BBX 16 16 0 -2
BITMAP
0000
0180
0600
0000
0000
0000
0000
0000
0000
0000
0000
0000
0000
0000
0000
0000
ENDCHAR

STARTCHAR Ca1ae
ENCODING 41390
SWIDTH 1000 0
DWIDTH 16 0
BBX 16 16 0 -2
BITMAP
0000
0600
0180
0000
0000
0000
0000
0000
0000
0000
0000
0000
0000
0000
0000
0000
ENDCHAR

STARTCHAR Ca1af
ENCODING 41391
SWIDTH 1000 0
DWIDTH 16 0
BBX 16 16 0 -2
BITMAP
0000
0C60
0C60
0000
0000
0000
0000
0000
0000
0000
0000
0000
0000
0000
0000
0000
ENDCHAR

STARTCHAR Ca1b0
ENCODING 41392
SWIDTH 1000 0
DWIDTH 16 0
BBX 16 16 0 -2
BITMAP
0000
0300
0CC0
0000
0000
0000
0000
0000
0000
0000
0000
0000
0000
0000
0000
0000
ENDCHAR

STARTCHAR Ca1b1
ENCODING 41393
SWIDTH 1000 0
DWIDTH 16 0
BBX 16 16 0 -2
BITMAP
0000
7FFE
0000
0000
0000
0000
0000
0000
0000
0000
0000
0000
0000
0000
0000
0000
ENDCHAR

STARTCHAR Ca1b2
ENCODING 41394
SWIDTH 1000 0
DWIDTH 16 0
BBX 16 16 0 -2
BITMAP
0000
0000
0000
0000
0000
0000
0000
0000
0000
0000
0000
0000
0000
0000
7FFE
0000
ENDCHAR

STARTCHAR Ca1b3
ENCODING 41395
SWIDTH 1000 0
DWIDTH 16 0
BBX 16 16 0 -2
BITMAP
0000
0000
0000
0000
0000
0000
0400
0200
0100
0080
0040
0040
0000
0000
0000
0000
ENDCHAR

STARTCHAR Ca1b4
ENCODING 41396
SWIDTH 1000 0
DWIDTH 16 0
BBX 16 16 0 -2
BITMAP
0000
0000
0000
0020
0090
0050
0440
0200
0100
0080
0040
0040
0000
0000
0000
0000
ENDCHAR

STARTCHAR Ca1b5
ENCODING 41397
SWIDTH 1000 0
DWIDTH 16 0
BBX 16 16 0 -2
BITMAP
0000
0000
0000
0000
0000
0000
0C00
0300
0080
0040
0020
00C0
0300
0000
0000
0000
ENDCHAR

STARTCHAR Ca1b6
ENCODING 41398
SWIDTH 1000 0
DWIDTH 16 0
BBX 16 16 0 -2
BITMAP
0000
0000
0000
0020
0090
0050
0C40
0300
0080
0040
0020
00C0
0300
0000
0000
0000
ENDCHAR

STARTCHAR Ca1b7
ENCODING 41399
SWIDTH 1000 0
DWIDTH 16 0
BBX 16 16 0 -2
BITMAP
0000
0000
0000
0000
0000
0240
0240
0480
0480
0900
0900
1200
0000
0000
0000
0000
ENDCHAR

STARTCHAR Ca1b8
ENCODING 41400
SWIDTH 1000 0
DWIDTH 16 0
BBX 16 16 0 -2
BITMAP
0000
0100
0280
0440
0820
1010
2008
4004
1FF0
0100
0100
0100
0100
3FF8
0000
0000
ENDCHAR

STARTCHAR Ca1b9
ENCODING 41401
SWIDTH 1000 0
DWIDTH 16 0
BBX 16 16 0 -2
BITMAP
0000
0000
0200
0200
03F0
0410
0410
0820
1020
2240
0140
0080
0040
0020
0000
0000
ENDCHAR

STARTCHAR Ca1ba
ENCODING 41402
SWIDTH 1000 0
DWIDTH 16 0
BBX 16 16 0 -2
BITMAP
0000
0000
0000
0010
0020
0240
0540
0880
0940
1120
1210
1400
1400
0800
0000
0000
ENDCHAR

STARTCHAR Ca1bb
ENCODING 41403
SWIDTH 1000 0
DWIDTH 16 0
BBX 16 16 0 -2
BITMAP
0000
0000
07C0
1830
2008
2008
4004
4004
4004
4004
4004
2008
2008
1830
07C0
0000
ENDCHAR

STARTCHAR Ca1bc
ENCODING 41404
SWIDTH 1000 0
DWIDTH 16 0
BBX 16 16 0 -2
BITMAP
0000
0000
0000
0000
0000
0000
0000
0000
7FF8
0000
0000
0000
0000
0000
0000
0000
ENDCHAR

STARTCHAR Ca1bd
ENCODING 41405
SWIDTH 1000 0
DWIDTH 16 0
BBX 16 16 0 -2
BITMAP
0000
0000
0000
0000
0000
0000
0000
0000
7FFC
0000
0000
0000
0000
0000
0000
0000
ENDCHAR

STARTCHAR Ca1be
ENCODING 41406
SWIDTH 1000 0
DWIDTH 16 0
BBX 16 16 0 -2
BITMAP
0000
0000
0000
0000
0000
0000
0000
0000
0FE0
0000
0000
0000
0000
0000
0000
0000
ENDCHAR

STARTCHAR Ca1bf
ENCODING 41407
SWIDTH 1000 0
DWIDTH 16 0
BBX 16 16 0 -2
BITMAP
0000
0004
0008
0010
0020
0040
0080
0100
0200
0400
0800
1000
2000
4000
0000
0000
ENDCHAR

STARTCHAR Ca1c0
ENCODING 41408
SWIDTH 1000 0
DWIDTH 16 0
BBX 16 16 0 -2
BITMAP
0000
4000
2000
1000
0800
0400
0200
0100
0080
0040
0020
0010
0008
0004
0000
0000
ENDCHAR

STARTCHAR Ca1c1
ENCODING 41409
SWIDTH 1000 0
DWIDTH 16 0
BBX 16 16 0 -2
BITMAP
0000
0000
0000
0000
0000
0000
0000
1C08
2310
40E0
0000
0000
0000
0000
0000
0000
ENDCHAR

STARTCHAR Ca1c2
ENCODING 41410
SWIDTH 1000 0
DWIDTH 16 0
BBX 16 16 0 -2
BITMAP
0000
0480
0480
0480
0480
0480
0480
0480
0480
0480
0480
0480
0480
0480
0480
0000
ENDCHAR

STARTCHAR Ca1c3
ENCODING 41411
SWIDTH 1000 0
DWIDTH 16 0
BBX 16 16 0 -2
BITMAP
0000
0100
0100
0100
0100
0100
0100
0100
0100
0100
0100
0100
0100
0100
0100
0000
ENDCHAR

STARTCHAR Ca1c4
ENCODING 41412
SWIDTH 1000 0
DWIDTH 16 0
BBX 16 16 0 -2
BITMAP
0000
0000
0000
0000
0000
0000
0000
3330
3330
0000
0000
0000
0000
0000
0000
0000
ENDCHAR

STARTCHAR Ca1c5
ENCODING 41413
SWIDTH 1000 0
DWIDTH 16 0
BBX 16 16 0 -2
BITMAP
0000
0000
0000
0000
0000
0000
0000
1830
1830
0000
0000
0000
0000
0000
0000
0000
ENDCHAR

STARTCHAR Ca1c6
ENCODING 41414
SWIDTH 1000 0
DWIDTH 16 0
BBX 16 16 0 -2
BITMAP
0000
0004
0008
0008
000C
000C
0000
0000
0000
0000
0000
0000
0000
0000
0000
0000
ENDCHAR

STARTCHAR Ca1c7
ENCODING 41415
SWIDTH 1000 0
DWIDTH 16 0
BBX 16 16 0 -2
BITMAP
0000
6000
6000
2000
2000
4000
0000
0000
0000
0000
0000
0000
0000
0000
0000
0000
ENDCHAR

STARTCHAR Ca1c8
ENCODING 41416
SWIDTH 1000 0
DWIDTH 16 0
BBX 16 16 0 -2
BITMAP
0000
0024
0048
0048
006C
006C
0000
0000
0000
0000
0000
0000
0000
0000
0000
0000
ENDCHAR

STARTCHAR Ca1c9
ENCODING 41417
SWIDTH 1000 0
DWIDTH 16 0
BBX 16 16 0 -2
BITMAP
0000
6C00
6C00
2400
2400
4800
0000
0000
0000
0000
0000
0000
0000
0000
0000
0000
ENDCHAR

STARTCHAR Ca1ca
ENCODING 41418
SWIDTH 1000 0
DWIDTH 16 0
BBX 16 16 0 -2
BITMAP
0000
0008
0010
0020
0020
0040
0040
0040
0040
0040
0040
0020
0020
0010
0008
0000
ENDCHAR

STARTCHAR Ca1cb
ENCODING 41419
SWIDTH 1000 0
DWIDTH 16 0
BBX 16 16 0 -2
BITMAP
0000
2000
1000
0800
0800
0400
0400
0400
0400
0400
0400
0800
0800
1000
2000
0000
ENDCHAR

STARTCHAR Ca1cc
ENCODING 41420
SWIDTH 1000 0
DWIDTH 16 0
BBX 16 16 0 -2
BITMAP
0000
0008
0010
0020
0020
0020
0020
0020
0020
0020
0020
0020
0020
0010
0008
0000
ENDCHAR

STARTCHAR Ca1cd
ENCODING 41421
SWIDTH 1000 0
DWIDTH 16 0
BBX 16 16 0 -2
BITMAP
0000
2000
1000
0800
0800
0800
0800
0800
0800
0800
0800
0800
0800
1000
2000
0000
ENDCHAR

STARTCHAR Ca1ce
ENCODING 41422
SWIDTH 1000 0
DWIDTH 16 0
BBX 16 16 0 -2
BITMAP
0000
0038
0020
0020
0020
0020
0020
0020
0020
0020
0020
0020
0020
0020
0038
0000
ENDCHAR

STARTCHAR Ca1cf
ENCODING 41423
SWIDTH 1000 0
DWIDTH 16 0
BBX 16 16 0 -2
BITMAP
0000
3800
0800
0800
0800
0800
0800
0800
0800
0800
0800
0800
0800
0800
3800
0000
ENDCHAR

STARTCHAR Ca1d0
ENCODING 41424
SWIDTH 1000 0
DWIDTH 16 0
BBX 16 16 0 -2
BITMAP
0000
0018
0020
0020
0020
0020
0040
0080
0040
0020
0020
0020
0020
0020
0018
0000
ENDCHAR

STARTCHAR Ca1d1
ENCODING 41425
SWIDTH 1000 0
DWIDTH 16 0
BBX 16 16 0 -2
BITMAP
0000
3000
0800
0800
0800
0800
0400
0200
0400
0800
0800
0800
0800
0800
3000
0000
ENDCHAR

STARTCHAR Ca1d2
ENCODING 41426
SWIDTH 1000 0
DWIDTH 16 0
BBX 16 16 0 -2
BITMAP
0000
0004
0008
0010
0020
0040
0080
0100
0100
0080
0040
0020
0010
0008
0004
0000
ENDCHAR

STARTCHAR Ca1d3
ENCODING 41427
SWIDTH 1000 0
DWIDTH 16 0
BBX 16 16 0 -2
BITMAP
0000
4000
2000
1000
0800
0400
0200
0100
0100
0200
0400
0800
1000
2000
4000
0000
ENDCHAR

STARTCHAR Ca1d4
ENCODING 41428
SWIDTH 1000 0
DWIDTH 16 0
BBX 16 16 0 -2
BITMAP
0000
0024
0048
0090
0120
0240
0480
0900
0900
0480
0240
0120
0090
0048
0024
0000
ENDCHAR

STARTCHAR Ca1d5
ENCODING 41429
SWIDTH 1000 0
DWIDTH 16 0
BBX 16 16 0 -2
BITMAP
0000
4800
2400
1200
0900
0480
0240
0120
0120
0240
0480
0900
1200
2400
4800
0000
ENDCHAR

STARTCHAR Ca1d6
ENCODING 41430
SWIDTH 1000 0
DWIDTH 16 0
BBX 16 16 0 -2
BITMAP
0000
0078
0040
0040
0040
0040
0040
0040
0040
0040
0000
0000
0000
0000
0000
0000
ENDCHAR

STARTCHAR Ca1d7
ENCODING 41431
SWIDTH 1000 0
DWIDTH 16 0
BBX 16 16 0 -2
BITMAP
0000
0000
0000
0000
0000
0000
0400
0400
0400
0400
0400
0400
0400
0400
3C00
0000
ENDCHAR

STARTCHAR Ca1d8
ENCODING 41432
SWIDTH 1000 0
DWIDTH 16 0
BBX 16 16 0 -2
BITMAP
0000
01F8
0108
0178
0140
0140
0140
0140
0140
01C0
0000
0000
0000
0000
0000
0000
ENDCHAR

STARTCHAR Ca1d9
ENCODING 41433
SWIDTH 1000 0
DWIDTH 16 0
BBX 16 16 0 -2
BITMAP
0000
0000
0000
0000
0000
0000
0700
0500
0500
0500
0500
0500
3D00
2100
3F00
0000
ENDCHAR

STARTCHAR Ca1da
ENCODING 41434
SWIDTH 1000 0
DWIDTH 16 0
BBX 16 16 0 -2
BITMAP
0000
00F8
00F0
00E0
00E0
00C0
00C0
00C0
00C0
00C0
00C0
00E0
00E0
00F0
00F8
0000
ENDCHAR

STARTCHAR Ca1db
ENCODING 41435
SWIDTH 1000 0
DWIDTH 16 0
BBX 16 16 0 -2
BITMAP
0000
3E00
1E00
0E00
0E00
0600
0600
0600
0600
0600
0600
0E00
0E00
1E00
3E00
0000
ENDCHAR

STARTCHAR Ca1dc
ENCODING 41436
SWIDTH 1000 0
DWIDTH 16 0
BBX 16 16 0 -2
BITMAP
0000
0000
0000
0000
0100
0100
0100
0100
1FF0
0100
0100
0100
0100
0000
0000
0000
ENDCHAR

STARTCHAR Ca1dd
ENCODING 41437
SWIDTH 1000 0
DWIDTH 16 0
BBX 16 16 0 -2
BITMAP
0000
0000
0000
0000
0000
0000
0000
0000
1FF0
0000
0000
0000
0000
0000
0000
0000
ENDCHAR

STARTCHAR Ca1de
ENCODING 41438
SWIDTH 1000 0
DWIDTH 16 0
BBX 16 16 0 -2
BITMAP
0000
0000
0000
0100
0100
0100
1FF0
0100
0100
0100
0000
0000
1FF0
0000
0000
0000
ENDCHAR

STARTCHAR Ca1df
ENCODING 41439
SWIDTH 1000 0
DWIDTH 16 0
BBX 16 16 0 -2
BITMAP
0000
0000
0000
0000
0000
0820
0440
0280
0100
0100
0280
0440
0820
0000
0000
0000
ENDCHAR

STARTCHAR Ca1e0
ENCODING 41440
SWIDTH 1000 0
DWIDTH 16 0
BBX 16 16 0 -2
BITMAP
0000
0000
0000
0000
0100
0380
0100
0000
1FF0
0000
0100
0380
0100
0000
0000
0000
ENDCHAR

STARTCHAR Ca1e1
ENCODING 41441
SWIDTH 1000 0
DWIDTH 16 0
BBX 16 16 0 -2
BITMAP
0000
0000
0000
0000
0000
0000
1FF0
0000
0000
1FF0
0000
0000
0000
0000
0000
0000
ENDCHAR

STARTCHAR Ca1e2
ENCODING 41442
SWIDTH 1000 0
DWIDTH 16 0
BBX 16 16 0 -2
BITMAP
0000
0000
0000
0000
0040
0080
1FF0
0100
0200
1FF0
0400
0800
0000
0000
0000
0000
ENDCHAR

STARTCHAR Ca1e3
ENCODING 41443
SWIDTH 1000 0
DWIDTH 16 0
BBX 16 16 0 -2
BITMAP
0000
0000
0000
0018
0060
0180
0600
1800
2000
1800
0600
0180
0060
0018
0000
0000
ENDCHAR

STARTCHAR Ca1e4
ENCODING 41444
SWIDTH 1000 0
DWIDTH 16 0
BBX 16 16 0 -2
BITMAP
0000
0000
0000
3000
0C00
0300
00C0
0030
0008
0030
00C0
0300
0C00
3000
0000
0000
ENDCHAR

STARTCHAR Ca1e5
ENCODING 41445
SWIDTH 1000 0
DWIDTH 16 0
BBX 16 16 0 -2
BITMAP
0000
0000
0000
0038
01C0
0E00
3000
0E00
01C0
0038
0000
3FF8
0000
3FF8
0000
0000
ENDCHAR

STARTCHAR Ca1e6
ENCODING 41446
SWIDTH 1000 0
DWIDTH 16 0
BBX 16 16 0 -2
BITMAP
0000
0000
0000
3800
0700
00E0
0018
00E0
0700
3800
0000
3FF8
0000
3FF8
0000
0000
ENDCHAR

STARTCHAR Ca1e7
ENCODING 41447
SWIDTH 1000 0
DWIDTH 16 0
BBX 16 16 0 -2
BITMAP
0000
0000
0000
0000
0000
0000
1C70
2288
2108
2288
1C70
0000
0000
0000
0000
0000
ENDCHAR

STARTCHAR Ca1e8
ENCODING 41448
SWIDTH 1000 0
DWIDTH 16 0
BBX 16 16 0 -2
BITMAP
0000
0000
0000
0000
0100
0380
0100
0000
0000
0820
1C70
0820
0000
0000
0000
0000
ENDCHAR

STARTCHAR Ca1e9
ENCODING 41449
SWIDTH 1000 0
DWIDTH 16 0
BBX 16 16 0 -2
BITMAP
0000
0000
0000
01F8
0018
0028
0048
0088
0108
1E00
2200
2200
2200
1C00
0000
0000
ENDCHAR

STARTCHAR Ca1ea
ENCODING 41450
SWIDTH 1000 0
DWIDTH 16 0
BBX 16 16 0 -2
BITMAP
0000
0000
0380
0440
0440
0440
0380
0100
0100
1FF0
0100
0100
0100
0100
0000
0000
ENDCHAR

STARTCHAR Ca1eb
ENCODING 41451
SWIDTH 1000 0
DWIDTH 16 0
BBX 16 16 0 -2
BITMAP
0000
3000
4800
4800
3000
0000
0000
0000
0000
0000
0000
0000
0000
0000
0000
0000
ENDCHAR

STARTCHAR Ca1ec
ENCODING 41452
SWIDTH 1000 0
DWIDTH 16 0
BBX 16 16 0 -2
BITMAP
0000
1000
1000
2000
2000
4000
0000
0000
0000
0000
0000
0000
0000
0000
0000
0000
ENDCHAR

STARTCHAR Ca1ed
ENCODING 41453
SWIDTH 1000 0
DWIDTH 16 0
BBX 16 16 0 -2
BITMAP
0000
1200
1200
2400
2400
4800
0000
0000
0000
0000
0000
0000
0000
0000
0000
0000
ENDCHAR

STARTCHAR Ca1ee
ENCODING 41454
SWIDTH 1000 0
DWIDTH 16 0
BBX 16 16 0 -2
BITMAP
0000
3000
4800
49E0
3618
0804
0804
1000
1000
1000
0804
0804
0618
01E0
0000
0000
ENDCHAR

STARTCHAR Ca1ef
ENCODING 41455
SWIDTH 1000 0
DWIDTH 16 0
BBX 16 16 0 -2
BITMAP
0000
0000
0000
0820
0440
0440
0280
1FF0
0100
0100
1FF0
0100
0100
0100
0000
0000
ENDCHAR

STARTCHAR Ca1f0
ENCODING 41456
SWIDTH 1000 0
DWIDTH 16 0
BBX 16 16 0 -2
BITMAP
0000
0000
0100
07C0
0920
0920
0900
0500
0380
0140
0920
0920
0920
07C0
0100
0000
ENDCHAR

STARTCHAR Ca1f1
ENCODING 41457
SWIDTH 1000 0
DWIDTH 16 0
BBX 16 16 0 -2
BITMAP
0000
0000
0040
0040
03C0
04A0
0880
0880
0900
0900
0520
03C0
0200
0200
0000
0000
ENDCHAR

STARTCHAR Ca1f2
ENCODING 41458
SWIDTH 1000 0
DWIDTH 16 0
BBX 16 16 0 -2
BITMAP
0000
0000
0000
01C0
0220
0420
0400
1FE0
0400
0200
1E10
2310
2290
1C60
0000
0000
ENDCHAR

STARTCHAR Ca1f3
ENCODING 41459
SWIDTH 1000 0
DWIDTH 16 0
BBX 16 16 0 -2
BITMAP
0000
0020
1820
2440
2440
2480
2480
1900
0130
0248
0248
0448
0448
0830
0800
0000
ENDCHAR

STARTCHAR Ca1f4
ENCODING 41460
SWIDTH 1000 0
DWIDTH 16 0
BBX 16 16 0 -2
BITMAP
0000
0000
0000
0220
0220
0220
0FF0
0440
0440
0440
0440
1FE0
0880
0880
0880
0000
ENDCHAR

STARTCHAR Ca1f5
ENCODING 41461
SWIDTH 1000 0
DWIDTH 16 0
BBX 16 16 0 -2
BITMAP
0000
0000
0000
0E00
1100
1100
1200
0C00
1420
2220
2140
2080
1140
0E30
0000
0000
ENDCHAR

STARTCHAR Ca1f6
ENCODING 41462
SWIDTH 1000 0
DWIDTH 16 0
BBX 16 16 0 -2
BITMAP
0000
0000
0000
0000
0100
0BA0
1930
0540
0380
0540
1930
0BA0
0100
0000
0000
0000
ENDCHAR

STARTCHAR Ca1f7
ENCODING 41463
SWIDTH 1000 0
DWIDTH 16 0
BBX 16 16 0 -2
BITMAP
0000
0780
1860
2010
2350
44C8
4848
4848
4888
4890
2760
2008
1830
07C0
0000
0000
ENDCHAR

STARTCHAR Ca1f8
ENCODING 41464
SWIDTH 1000 0
DWIDTH 16 0
BBX 16 16 0 -2
BITMAP
0000
0780
0840
0840
0800
0600
0980
0840
0840
0640
0180
0040
0840
0840
0780
0000
ENDCHAR

STARTCHAR Ca1f9
ENCODING 41465
SWIDTH 1000 0
DWIDTH 16 0
BBX 16 16 0 -2
BITMAP
0000
0000
0100
0100
0280
0280
7C7C
1010
0820
0440
0540
0AA0
0C60
1010
0000
0000
ENDCHAR

STARTCHAR Ca1fa
ENCODING 41466
SWIDTH 1000 0
DWIDTH 16 0
BBX 16 16 0 -2
BITMAP
0000
0000
0100
0100
0380
0380
7FFC
1FF0
0FE0
07C0
07C0
0EE0
0C60
1010
0000
0000
ENDCHAR

STARTCHAR Ca1fb
ENCODING 41467
SWIDTH 1000 0
DWIDTH 16 0
BBX 16 16 0 -2
BITMAP
0000
0000
0780
1860
2010
2010
4008
4008
4008
4008
2010
2010
1860
0780
0000
0000
ENDCHAR

STARTCHAR Ca1fc
ENCODING 41468
SWIDTH 1000 0
DWIDTH 16 0
BBX 16 16 0 -2
BITMAP
0000
0000
0780
1FE0
3FF0
3FF0
7FF8
7FF8
7FF8
7FF8
3FF0
3FF0
1FE0
0780
0000
0000
ENDCHAR

STARTCHAR Ca1fd
ENCODING 41469
SWIDTH 1000 0
DWIDTH 16 0
BBX 16 16 0 -2
BITMAP
0000
0000
0780
1860
2010
2790
4848
4848
4848
4848
2790
2010
1860
0780
0000
0000
ENDCHAR

STARTCHAR Ca1fe
ENCODING 41470
SWIDTH 1000 0
DWIDTH 16 0
BBX 16 16 0 -2
BITMAP
0000
0100
0280
0440
0820
1010
2008
4004
2008
1010
0820
0440
0280
0100
0000
0000
ENDCHAR

STARTCHAR Ca2a1
ENCODING 41633
SWIDTH 1000 0
DWIDTH 16 0
BBX 16 16 0 -2
BITMAP
0000
0100
0380
07C0
0FE0
1FF0
3FF8
7FFC
3FF8
1FF0
0FE0
07C0
0380
0100
0000
0000
ENDCHAR

STARTCHAR Ca2a2
ENCODING 41634
SWIDTH 1000 0
DWIDTH 16 0
BBX 16 16 0 -2
BITMAP
0000
0000
0000
3FF8
2008
2008
2008
2008
2008
2008
2008
2008
3FF8
0000
0000
0000
ENDCHAR

STARTCHAR Ca2a3
ENCODING 41635
SWIDTH 1000 0
DWIDTH 16 0
BBX 16 16 0 -2
BITMAP
0000
0000
0000
3FF8
3FF8
3FF8
3FF8
3FF8
3FF8
3FF8
3FF8
3FF8
3FF8
0000
0000
0000
ENDCHAR

STARTCHAR Ca2a4
ENCODING 41636
SWIDTH 1000 0
DWIDTH 16 0
BBX 16 16 0 -2
BITMAP
0000
0000
0100
0280
0280
0440
0440
0820
0820
1010
1010
2008
3FF8
0000
0000
0000
ENDCHAR

STARTCHAR Ca2a5
ENCODING 41637
SWIDTH 1000 0
DWIDTH 16 0
BBX 16 16 0 -2
BITMAP
0000
0000
0100
0380
0380
07C0
07C0
0FE0
0FE0
1FF0
1FF0
3FF8
3FF8
0000
0000
0000
ENDCHAR

STARTCHAR Ca2a6
ENCODING 41638
SWIDTH 1000 0
DWIDTH 16 0
BBX 16 16 0 -2
BITMAP
0000
0000
0000
3FF8
2008
1010
1010
0820
0820
0440
0440
0280
0280
0100
0000
0000
ENDCHAR

STARTCHAR Ca2a7
ENCODING 41639
SWIDTH 1000 0
DWIDTH 16 0
BBX 16 16 0 -2
BITMAP
0000
0000
0000
3FF8
3FF8
1FF0
1FF0
0FE0
0FE0
07C0
07C0
0380
0380
0100
0000
0000
ENDCHAR

STARTCHAR Ca2a8
ENCODING 41640
SWIDTH 1000 0
DWIDTH 16 0
BBX 16 16 0 -2
BITMAP
0000
0100
2388
1110
0820
0440
2288
711C
2288
0440
0820
1110
2388
0100
0000
0000
ENDCHAR

STARTCHAR Ca2a9
ENCODING 41641
SWIDTH 1000 0
DWIDTH 16 0
BBX 16 16 0 -2
BITMAP
0000
0000
3FF0
3FF0
0000
0000
3FF0
3FF0
0300
0300
0300
0300
0300
0300
0000
0000
ENDCHAR

STARTCHAR Ca2aa
ENCODING 41642
SWIDTH 1000 0
DWIDTH 16 0
BBX 16 16 0 -2
BITMAP
0000
0000
0000
0000
0040
0020
0010
3FF8
0010
0020
0040
0000
0000
0000
0000
0000
ENDCHAR

STARTCHAR Ca2ab
ENCODING 41643
SWIDTH 1000 0
DWIDTH 16 0
BBX 16 16 0 -2
BITMAP
0000
0000
0000
0000
0400
0800
1000
3FF8
1000
0800
0400
0000
0000
0000
0000
0000
ENDCHAR

STARTCHAR Ca2ac
ENCODING 41644
SWIDTH 1000 0
DWIDTH 16 0
BBX 16 16 0 -2
BITMAP
0000
0000
0100
0380
0540
0920
0100
0100
0100
0100
0100
0100
0100
0100
0000
0000
ENDCHAR

STARTCHAR Ca2ad
ENCODING 41645
SWIDTH 1000 0
DWIDTH 16 0
BBX 16 16 0 -2
BITMAP
0000
0000
0100
0100
0100
0100
0100
0100
0100
0100
0920
0540
0380
0100
0000
0000
ENDCHAR

STARTCHAR Ca2ae
ENCODING 41646
SWIDTH 1000 0
DWIDTH 16 0
BBX 16 16 0 -2
BITMAP
0000
0000
0000
0000
0000
0000
3FF8
0000
0000
0000
3FF8
0000
0000
0000
0000
0000
ENDCHAR

STARTCHAR Ca2af
ENCODING 41647
SWIDTH 1000 0
DWIDTH 16 0
BBX 16 16 0 -2
BITMAP
0000
0000
0000
0000
0000
0000
0000
0000
0000
0000
0000
0000
0000
0000
0000
0000
ENDCHAR

STARTCHAR Ca2b0
ENCODING 41648
SWIDTH 1000 0
DWIDTH 16 0
BBX 16 16 0 -2
BITMAP
0000
0000
0000
0000
0000
0000
0000
0000
0000
0000
0000
0000
0000
0000
0000
0000
ENDCHAR

STARTCHAR Ca2b1
ENCODING 41649
SWIDTH 1000 0
DWIDTH 16 0
BBX 16 16 0 -2
BITMAP
0000
0000
0000
0000
0000
0000
0000
0000
0000
0000
0000
0000
0000
0000
0000
0000
ENDCHAR

STARTCHAR Ca2b2
ENCODING 41650
SWIDTH 1000 0
DWIDTH 16 0
BBX 16 16 0 -2
BITMAP
0000
0000
0000
0000
0000
0000
0000
0000
0000
0000
0000
0000
0000
0000
0000
0000
ENDCHAR

STARTCHAR Ca2b3
ENCODING 41651
SWIDTH 1000 0
DWIDTH 16 0
BBX 16 16 0 -2
BITMAP
0000
0000
0000
0000
0000
0000
0000
0000
0000
0000
0000
0000
0000
0000
0000
0000
ENDCHAR

STARTCHAR Ca2b4
ENCODING 41652
SWIDTH 1000 0
DWIDTH 16 0
BBX 16 16 0 -2
BITMAP
0000
0000
0000
0000
0000
0000
0000
0000
0000
0000
0000
0000
0000
0000
0000
0000
ENDCHAR

STARTCHAR Ca2b5
ENCODING 41653
SWIDTH 1000 0
DWIDTH 16 0
BBX 16 16 0 -2
BITMAP
0000
0000
0000
0000
0000
0000
0000
0000
0000
0000
0000
0000
0000
0000
0000
0000
ENDCHAR

STARTCHAR Ca2b6
ENCODING 41654
SWIDTH 1000 0
DWIDTH 16 0
BBX 16 16 0 -2
BITMAP
0000
0000
0000
0000
0000
0000
0000
0000
0000
0000
0000
0000
0000
0000
0000
0000
ENDCHAR

STARTCHAR Ca2b7
ENCODING 41655
SWIDTH 1000 0
DWIDTH 16 0
BBX 16 16 0 -2
BITMAP
0000
0000
0000
0000
0000
0000
0000
0000
0000
0000
0000
0000
0000
0000
0000
0000
ENDCHAR

STARTCHAR Ca2b8
ENCODING 41656
SWIDTH 1000 0
DWIDTH 16 0
BBX 16 16 0 -2
BITMAP
0000
0000
0000
0000
0000
0000
0000
0000
0000
0000
0000
0000
0000
0000
0000
0000
ENDCHAR

STARTCHAR Ca2b9
ENCODING 41657
SWIDTH 1000 0
DWIDTH 16 0
BBX 16 16 0 -2
BITMAP
0000
0000
0000
0000
0000
0000
0000
0000
0000
0000
0000
0000
0000
0000
0000
0000
ENDCHAR

STARTCHAR Ca2ba
ENCODING 41658
SWIDTH 1000 0
DWIDTH 16 0
BBX 16 16 0 -2
BITMAP
0000
0000
0000
0000
0FFC
1000
2000
2000
3FFC
2000
2000
1000
0FFC
0000
0000
0000
ENDCHAR

STARTCHAR Ca2bb
ENCODING 41659
SWIDTH 1000 0
DWIDTH 16 0
BBX 16 16 0 -2
BITMAP
0000
0000
0000
0000
7FE0
0010
0008
0008
7FF8
0008
0008
0010
7FE0
0000
0000
0000
ENDCHAR

STARTCHAR Ca2bc
ENCODING 41660
SWIDTH 1000 0
DWIDTH 16 0
BBX 16 16 0 -2
BITMAP
0000
0000
0000
0000
0FFC
1000
2000
2000
2000
1000
0FFC
0000
0000
1FFC
0000
0000
ENDCHAR

STARTCHAR Ca2bd
ENCODING 41661
SWIDTH 1000 0
DWIDTH 16 0
BBX 16 16 0 -2
BITMAP
0000
0000
0000
0000
7FE0
0010
0008
0008
0008
0010
7FE0
0000
0000
7FF0
0000
0000
ENDCHAR

STARTCHAR Ca2be
ENCODING 41662
SWIDTH 1000 0
DWIDTH 16 0
BBX 16 16 0 -2
BITMAP
0000
0000
0000
0000
0FF8
1000
2000
2000
2000
2000
2000
1000
0FF8
0000
0000
0000
ENDCHAR

STARTCHAR Ca2bf
ENCODING 41663
SWIDTH 1000 0
DWIDTH 16 0
BBX 16 16 0 -2
BITMAP
0000
0000
0000
0000
3FE0
0010
0008
0008
0008
0008
0008
0010
3FE0
0000
0000
0000
ENDCHAR

STARTCHAR Ca2c0
ENCODING 41664
SWIDTH 1000 0
DWIDTH 16 0
BBX 16 16 0 -2
BITMAP
0000
0000
0000
1010
1010
1010
1010
1010
1010
1010
1010
1010
0820
07C0
0000
0000
ENDCHAR

STARTCHAR Ca2c1
ENCODING 41665
SWIDTH 1000 0
DWIDTH 16 0
BBX 16 16 0 -2
BITMAP
0000
0000
0000
07C0
0820
1010
1010
1010
1010
1010
1010
1010
1010
1010
0000
0000
ENDCHAR

STARTCHAR Ca2c2
ENCODING 41666
SWIDTH 1000 0
DWIDTH 16 0
BBX 16 16 0 -2
BITMAP
0000
0000
0000
0000
0000
0000
0000
0000
0000
0000
0000
0000
0000
0000
0000
0000
ENDCHAR

STARTCHAR Ca2c3
ENCODING 41667
SWIDTH 1000 0
DWIDTH 16 0
BBX 16 16 0 -2
BITMAP
0000
0000
0000
0000
0000
0000
0000
0000
0000
0000
0000
0000
0000
0000
0000
0000
ENDCHAR

STARTCHAR Ca2c4
ENCODING 41668
SWIDTH 1000 0
DWIDTH 16 0
BBX 16 16 0 -2
BITMAP
0000
0000
0000
0000
0000
0000
0000
0000
0000
0000
0000
0000
0000
0000
0000
0000
ENDCHAR

STARTCHAR Ca2c5
ENCODING 41669
SWIDTH 1000 0
DWIDTH 16 0
BBX 16 16 0 -2
BITMAP
0000
0000
0000
0000
0000
0000
0000
0000
0000
0000
0000
0000
0000
0000
0000
0000
ENDCHAR

STARTCHAR Ca2c6
ENCODING 41670
SWIDTH 1000 0
DWIDTH 16 0
BBX 16 16 0 -2
BITMAP
0000
0000
0000
0000
0000
0000
0000
0000
0000
0000
0000
0000
0000
0000
0000
0000
ENDCHAR

STARTCHAR Ca2c7
ENCODING 41671
SWIDTH 1000 0
DWIDTH 16 0
BBX 16 16 0 -2
BITMAP
0000
0000
0000
0000
0000
0000
0000
0000
0000
0000
0000
0000
0000
0000
0000
0000
ENDCHAR

STARTCHAR Ca2c8
ENCODING 41672
SWIDTH 1000 0
DWIDTH 16 0
BBX 16 16 0 -2
BITMAP
0000
0000
0000
0000
0000
0000
0000
0000
0000
0000
0000
0000
0000
0000
0000
0000
ENDCHAR

STARTCHAR Ca2c9
ENCODING 41673
SWIDTH 1000 0
DWIDTH 16 0
BBX 16 16 0 -2
BITMAP
0000
0000
0000
0000
0000
0000
0000
0000
0000
0000
0000
0000
0000
0000
0000
0000
ENDCHAR

STARTCHAR Ca2ca
ENCODING 41674
SWIDTH 1000 0
DWIDTH 16 0
BBX 16 16 0 -2
BITMAP
0000
0000
0000
0100
0280
0280
0440
0440
0820
0820
1010
1010
2008
2008
0000
0000
ENDCHAR

STARTCHAR Ca2cb
ENCODING 41675
SWIDTH 1000 0
DWIDTH 16 0
BBX 16 16 0 -2
BITMAP
0000
0000
0000
2008
2008
1010
1010
0820
0820
0440
0440
0280
0280
0100
0000
0000
ENDCHAR

STARTCHAR Ca2cc
ENCODING 41676
SWIDTH 1000 0
DWIDTH 16 0
BBX 16 16 0 -2
BITMAP
0000
0000
0000
0000
0000
0000
0000
3FF0
0010
0010
0010
0010
0000
0000
0000
0000
ENDCHAR

STARTCHAR Ca2cd
ENCODING 41677
SWIDTH 1000 0
DWIDTH 16 0
BBX 16 16 0 -2
BITMAP
0000
0000
0000
0000
0040
0020
3FF0
0008
0004
0008
3FF0
0020
0040
0000
0000
0000
ENDCHAR

STARTCHAR Ca2ce
ENCODING 41678
SWIDTH 1000 0
DWIDTH 16 0
BBX 16 16 0 -2
BITMAP
0000
0000
0000
0000
0440
0820
1FF0
2008
4004
2008
1FF0
0820
0440
0000
0000
0000
ENDCHAR

STARTCHAR Ca2cf
ENCODING 41679
SWIDTH 1000 0
DWIDTH 16 0
BBX 16 16 0 -2
BITMAP
0000
0000
2008
2008
1010
1FF0
0820
0820
0440
0440
0280
0280
0100
0100
0000
0000
ENDCHAR

STARTCHAR Ca2d0
ENCODING 41680
SWIDTH 1000 0
DWIDTH 16 0
BBX 16 16 0 -2
BITMAP
0000
0000
0000
0000
1FF8
0008
0008
0008
1FF8
0008
0008
0008
1FF8
0000
0000
0000
ENDCHAR

STARTCHAR Ca2d1
ENCODING 41681
SWIDTH 1000 0
DWIDTH 16 0
BBX 16 16 0 -2
BITMAP
0000
0000
0000
0000
0000
0000
0000
0000
0000
0000
0000
0000
0000
0000
0000
0000
ENDCHAR

STARTCHAR Ca2d2
ENCODING 41682
SWIDTH 1000 0
DWIDTH 16 0
BBX 16 16 0 -2
BITMAP
0000
0000
0000
0000
0000
0000
0000
0000
0000
0000
0000
0000
0000
0000
0000
0000
ENDCHAR

STARTCHAR Ca2d3
ENCODING 41683
SWIDTH 1000 0
DWIDTH 16 0
BBX 16 16 0 -2
BITMAP
0000
0000
0000
0000
0000
0000
0000
0000
0000
0000
0000
0000
0000
0000
0000
0000
ENDCHAR

STARTCHAR Ca2d4
ENCODING 41684
SWIDTH 1000 0
DWIDTH 16 0
BBX 16 16 0 -2
BITMAP
0000
0000
0000
0000
0000
0000
0000
0000
0000
0000
0000
0000
0000
0000
0000
0000
ENDCHAR

STARTCHAR Ca2d5
ENCODING 41685
SWIDTH 1000 0
DWIDTH 16 0
BBX 16 16 0 -2
BITMAP
0000
0000
0000
0000
0000
0000
0000
0000
0000
0000
0000
0000
0000
0000
0000
0000
ENDCHAR

STARTCHAR Ca2d6
ENCODING 41686
SWIDTH 1000 0
DWIDTH 16 0
BBX 16 16 0 -2
BITMAP
0000
0000
0000
0000
0000
0000
0000
0000
0000
0000
0000
0000
0000
0000
0000
0000
ENDCHAR

STARTCHAR Ca2d7
ENCODING 41687
SWIDTH 1000 0
DWIDTH 16 0
BBX 16 16 0 -2
BITMAP
0000
0000
0000
0000
0000
0000
0000
0000
0000
0000
0000
0000
0000
0000
0000
0000
ENDCHAR

STARTCHAR Ca2d8
ENCODING 41688
SWIDTH 1000 0
DWIDTH 16 0
BBX 16 16 0 -2
BITMAP
0000
0000
0000
0000
0000
0000
0000
0000
0000
0000
0000
0000
0000
0000
0000
0000
ENDCHAR

STARTCHAR Ca2d9
ENCODING 41689
SWIDTH 1000 0
DWIDTH 16 0
BBX 16 16 0 -2
BITMAP
0000
0000
0000
0000
0000
0000
0000
0000
0000
0000
0000
0000
0000
0000
0000
0000
ENDCHAR

STARTCHAR Ca2da
ENCODING 41690
SWIDTH 1000 0
DWIDTH 16 0
BBX 16 16 0 -2
BITMAP
0000
0000
0000
0000
0000
0000
0000
0000
0000
0000
0000
0000
0000
0000
0000
0000
ENDCHAR

STARTCHAR Ca2db
ENCODING 41691
SWIDTH 1000 0
DWIDTH 16 0
BBX 16 16 0 -2
BITMAP
0000
0000
0000
0000
0000
0000
0000
0000
0000
0000
0000
0000
0000
0000
0000
0000
ENDCHAR

STARTCHAR Ca2dc
ENCODING 41692
SWIDTH 1000 0
DWIDTH 16 0
BBX 16 16 0 -2
BITMAP
0000
0000
0000
0008
0010
0020
0040
0080
0100
0200
0400
0800
1000
3FF8
0000
0000
ENDCHAR

STARTCHAR Ca2dd
ENCODING 41693
SWIDTH 1000 0
DWIDTH 16 0
BBX 16 16 0 -2
BITMAP
0000
0000
0000
0100
0100
0100
0100
0100
0100
0100
0100
0100
0100
3FF8
0000
0000
ENDCHAR

STARTCHAR Ca2de
ENCODING 41694
SWIDTH 1000 0
DWIDTH 16 0
BBX 16 16 0 -2
BITMAP
0000
07C0
1830
2008
0000
0000
0000
0000
0000
0000
0000
0000
0000
0000
0000
0000
ENDCHAR

STARTCHAR Ca2df
ENCODING 41695
SWIDTH 1000 0
DWIDTH 16 0
BBX 16 16 0 -2
BITMAP
0000
0000
01C0
0220
0020
0020
0020
03A0
0440
0440
0840
0880
0880
0700
0000
0000
ENDCHAR

STARTCHAR Ca2e0
ENCODING 41696
SWIDTH 1000 0
DWIDTH 16 0
BBX 16 16 0 -2
BITMAP
0000
0000
3FF8
2008
2008
1010
1010
0820
0820
0440
0440
0280
0280
0100
0000
0000
ENDCHAR

STARTCHAR Ca2e1
ENCODING 41697
SWIDTH 1000 0
DWIDTH 16 0
BBX 16 16 0 -2
BITMAP
0000
0000
0000
0000
0000
1FF0
0000
0000
1FF0
0000
0000
1FF0
0000
0000
0000
0000
ENDCHAR

STARTCHAR Ca2e2
ENCODING 41698
SWIDTH 1000 0
DWIDTH 16 0
BBX 16 16 0 -2
BITMAP
0000
0000
0800
1C00
0800
0000
1FF0
0000
0000
1FF0
0000
0020
0070
0020
0000
0000
ENDCHAR

STARTCHAR Ca2e3
ENCODING 41699
SWIDTH 1000 0
DWIDTH 16 0
BBX 16 16 0 -2
BITMAP
0000
0000
0000
00CC
0110
0660
0880
3300
4400
3300
0880
0660
0110
00CC
0000
0000
ENDCHAR

STARTCHAR Ca2e4
ENCODING 41700
SWIDTH 1000 0
DWIDTH 16 0
BBX 16 16 0 -2
BITMAP
0000
0000
0000
6600
1100
0CC0
0220
0198
0044
0198
0220
0CC0
1100
6600
0000
0000
ENDCHAR

STARTCHAR Ca2e5
ENCODING 41701
SWIDTH 1000 0
DWIDTH 16 0
BBX 16 16 0 -2
BITMAP
0000
007E
0040
0040
0080
0080
0080
0100
2100
5100
5200
0A00
0A00
0400
0400
0000
ENDCHAR

STARTCHAR Ca2e6
ENCODING 41702
SWIDTH 1000 0
DWIDTH 16 0
BBX 16 16 0 -2
BITMAP
0000
0000
0000
0000
0000
0000
1870
2088
2108
2208
1C30
0000
0000
0000
0000
0000
ENDCHAR

STARTCHAR Ca2e7
ENCODING 41703
SWIDTH 1000 0
DWIDTH 16 0
BBX 16 16 0 -2
BITMAP
0000
0000
0000
0000
0000
0000
1C70
2288
2100
2288
1C70
0000
0000
0000
0000
0000
ENDCHAR

STARTCHAR Ca2e8
ENCODING 41704
SWIDTH 1000 0
DWIDTH 16 0
BBX 16 16 0 -2
BITMAP
0000
0000
0000
0000
0820
1C70
0820
0000
0000
0100
0380
0100
0000
0000
0000
0000
ENDCHAR

STARTCHAR Ca2e9
ENCODING 41705
SWIDTH 1000 0
DWIDTH 16 0
BBX 16 16 0 -2
BITMAP
0000
00C0
0120
0120
0100
0100
0100
0100
0200
0200
0200
0200
1200
1200
0C00
0000
ENDCHAR

STARTCHAR Ca2ea
ENCODING 41706
SWIDTH 1000 0
DWIDTH 16 0
BBX 16 16 0 -2
BITMAP
0000
0318
04A4
04A4
0420
0420
0420
0420
0840
0840
0840
0840
4A40
4A40
3180
0000
ENDCHAR

STARTCHAR Ca2eb
ENCODING 41707
SWIDTH 1000 0
DWIDTH 16 0
BBX 16 16 0 -2
BITMAP
0000
0000
0000
0000
0000
0000
0000
0000
0000
0000
0000
0000
0000
0000
0000
0000
ENDCHAR

STARTCHAR Ca2ec
ENCODING 41708
SWIDTH 1000 0
DWIDTH 16 0
BBX 16 16 0 -2
BITMAP
0000
0000
0000
0000
0000
0000
0000
0000
0000
0000
0000
0000
0000
0000
0000
0000
ENDCHAR

STARTCHAR Ca2ed
ENCODING 41709
SWIDTH 1000 0
DWIDTH 16 0
BBX 16 16 0 -2
BITMAP
0000
0000
0000
0000
0000
0000
0000
0000
0000
0000
0000
0000
0000
0000
0000
0000
ENDCHAR

STARTCHAR Ca2ee
ENCODING 41710
SWIDTH 1000 0
DWIDTH 16 0
BBX 16 16 0 -2
BITMAP
0000
0000
0000
0000
0000
0000
0000
0000
0000
0000
0000
0000
0000
0000
0000
0000
ENDCHAR

STARTCHAR Ca2ef
ENCODING 41711
SWIDTH 1000 0
DWIDTH 16 0
BBX 16 16 0 -2
BITMAP
0000
0000
0000
0000
0000
0000
0000
0000
0000
0000
0000
0000
0000
0000
0000
0000
ENDCHAR

STARTCHAR Ca2f0
ENCODING 41712
SWIDTH 1000 0
DWIDTH 16 0
BBX 16 16 0 -2
BITMAP
0000
0000
0000
0000
0000
0000
0000
0000
0000
0000
0000
0000
0000
0000
0000
0000
ENDCHAR

STARTCHAR Ca2f1
ENCODING 41713
SWIDTH 1000 0
DWIDTH 16 0
BBX 16 16 0 -2
BITMAP
0000
0000
0000
0000
0000
0000
0000
0000
0000
0000
0000
0000
0000
0000
0000
0000
ENDCHAR

STARTCHAR Ca2f2
ENCODING 41714
SWIDTH 1000 0
DWIDTH 16 0
BBX 16 16 0 -2
BITMAP
0000
0380
0440
0380
0100
0280
0280
0440
0440
0820
1FF0
1010
2008
2008
0000
0000
ENDCHAR

STARTCHAR Ca2f3
ENCODING 41715
SWIDTH 1000 0
DWIDTH 16 0
BBX 16 16 0 -2
BITMAP
0000
0080
1080
2900
2900
2A00
2A00
1400
0510
0AA8
0AA8
12A8
12A8
2110
2000
0000
ENDCHAR

STARTCHAR Ca2f4
ENCODING 41716
SWIDTH 1000 0
DWIDTH 16 0
BBX 16 16 0 -2
BITMAP
0000
0000
0440
0440
0470
07C0
1C40
0440
0440
0470
07C0
1C40
0440
0440
0000
0000
ENDCHAR

STARTCHAR Ca2f5
ENCODING 41717
SWIDTH 1000 0
DWIDTH 16 0
BBX 16 16 0 -2
BITMAP
0000
0400
0400
0400
0400
0400
05C0
0620
0420
0420
0420
0440
0580
0600
0000
0000
ENDCHAR

STARTCHAR Ca2f6
ENCODING 41718
SWIDTH 1000 0
DWIDTH 16 0
BBX 16 16 0 -2
BITMAP
0000
0200
0300
02C0
0220
0210
0210
0210
0220
0240
0E00
1E00
1E00
1C00
0800
0000
ENDCHAR

STARTCHAR Ca2f7
ENCODING 41719
SWIDTH 1000 0
DWIDTH 16 0
BBX 16 16 0 -2
BITMAP
0000
0100
0380
0100
0920
1FF0
0920
0100
0380
0100
0100
0100
0100
0100
0100
0000
ENDCHAR

STARTCHAR Ca2f8
ENCODING 41720
SWIDTH 1000 0
DWIDTH 16 0
BBX 16 16 0 -2
BITMAP
0000
0100
0380
0920
1FF0
0920
0380
0100
0100
0380
0920
1FF0
0920
0380
0100
0000
ENDCHAR

STARTCHAR Ca2f9
ENCODING 41721
SWIDTH 1000 0
DWIDTH 16 0
BBX 16 16 0 -2
BITMAP
0000
0000
07C0
0E40
0E40
0E40
0640
0240
0240
0240
0240
0240
0240
0240
0000
0000
ENDCHAR

STARTCHAR Ca2fa
ENCODING 41722
SWIDTH 1000 0
DWIDTH 16 0
BBX 16 16 0 -2
BITMAP
0000
0000
0000
0000
0000
0000
0000
0000
0000
0000
0000
0000
0000
0000
0000
0000
ENDCHAR

STARTCHAR Ca2fb
ENCODING 41723
SWIDTH 1000 0
DWIDTH 16 0
BBX 16 16 0 -2
BITMAP
0000
0000
0000
0000
0000
0000
0000
0000
0000
0000
0000
0000
0000
0000
0000
0000
ENDCHAR

STARTCHAR Ca2fc
ENCODING 41724
SWIDTH 1000 0
DWIDTH 16 0
BBX 16 16 0 -2
BITMAP
0000
0000
0000
0000
0000
0000
0000
0000
0000
0000
0000
0000
0000
0000
0000
0000
ENDCHAR

STARTCHAR Ca2fd
ENCODING 41725
SWIDTH 1000 0
DWIDTH 16 0
BBX 16 16 0 -2
BITMAP
0000
0000
0000
0000
0000
0000
0000
0000
0000
0000
0000
0000
0000
0000
0000
0000
ENDCHAR

STARTCHAR Ca2fe
ENCODING 41726
SWIDTH 1000 0
DWIDTH 16 0
BBX 16 16 0 -2
BITMAP
0000
0000
07C0
1830
2008
2008
4004
4004
4004
4004
4004
2008
2008
1830
07C0
0000
ENDCHAR

STARTCHAR Ca3a2
ENCODING 41890
SWIDTH 1000 0
DWIDTH 16 0
BBX 16 16 0 -2
BITMAP
0000
0000
0000
0000
0000
0000
0000
0000
0000
0000
0000
0000
0000
0000
0000
0000
ENDCHAR

STARTCHAR Ca3a3
ENCODING 41891
SWIDTH 1000 0
DWIDTH 16 0
BBX 16 16 0 -2
BITMAP
0000
0000
0000
0000
0000
0000
0000
0000
0000
0000
0000
0000
0000
0000
0000
0000
ENDCHAR

STARTCHAR Ca3a4
ENCODING 41892
SWIDTH 1000 0
DWIDTH 16 0
BBX 16 16 0 -2
BITMAP
0000
0000
0000
0000
0000
0000
0000
0000
0000
0000
0000
0000
0000
0000
0000
0000
ENDCHAR

STARTCHAR Ca3a5
ENCODING 41893
SWIDTH 1000 0
DWIDTH 16 0
BBX 16 16 0 -2
BITMAP
0000
0000
0000
0000
0000
0000
0000
0000
0000
0000
0000
0000
0000
0000
0000
0000
ENDCHAR

STARTCHAR Ca3a6
ENCODING 41894
SWIDTH 1000 0
DWIDTH 16 0
BBX 16 16 0 -2
BITMAP
0000
0000
0000
0000
0000
0000
0000
0000
0000
0000
0000
0000
0000
0000
0000
0000
ENDCHAR

STARTCHAR Ca3a7
ENCODING 41895
SWIDTH 1000 0
DWIDTH 16 0
BBX 16 16 0 -2
BITMAP
0000
0000
0000
0000
0000
0000
0000
0000
0000
0000
0000
0000
0000
0000
0000
0000
ENDCHAR

STARTCHAR Ca3a8
ENCODING 41896
SWIDTH 1000 0
DWIDTH 16 0
BBX 16 16 0 -2
BITMAP
0000
0000
0000
0000
0000
0000
0000
0000
0000
0000
0000
0000
0000
0000
0000
0000
ENDCHAR

STARTCHAR Ca3a9
ENCODING 41897
SWIDTH 1000 0
DWIDTH 16 0
BBX 16 16 0 -2
BITMAP
0000
0000
0000
0000
0000
0000
0000
0000
0000
0000
0000
0000
0000
0000
0000
0000
ENDCHAR

STARTCHAR Ca3aa
ENCODING 41898
SWIDTH 1000 0
DWIDTH 16 0
BBX 16 16 0 -2
BITMAP
0000
0000
0000
0000
0000
0000
0000
0000
0000
0000
0000
0000
0000
0000
0000
0000
ENDCHAR

STARTCHAR Ca3ab
ENCODING 41899
SWIDTH 1000 0
DWIDTH 16 0
BBX 16 16 0 -2
BITMAP
0000
0000
0000
0000
0000
0000
0000
0000
0000
0000
0000
0000
0000
0000
0000
0000
ENDCHAR

STARTCHAR Ca3ac
ENCODING 41900
SWIDTH 1000 0
DWIDTH 16 0
BBX 16 16 0 -2
BITMAP
0000
0000
0000
0000
0000
0000
0000
0000
0000
0000
0000
0000
0000
0000
0000
0000
ENDCHAR

STARTCHAR Ca3ad
ENCODING 41901
SWIDTH 1000 0
DWIDTH 16 0
BBX 16 16 0 -2
BITMAP
0000
0000
0000
0000
0000
0000
0000
0000
0000
0000
0000
0000
0000
0000
0000
0000
ENDCHAR

STARTCHAR Ca3ae
ENCODING 41902
SWIDTH 1000 0
DWIDTH 16 0
BBX 16 16 0 -2
BITMAP
0000
0000
0000
0000
0000
0000
0000
0000
0000
0000
0000
0000
0000
0000
0000
0000
ENDCHAR

STARTCHAR Ca3af
ENCODING 41903
SWIDTH 1000 0
DWIDTH 16 0
BBX 16 16 0 -2
BITMAP
0000
0000
0000
0000
0000
0000
0000
0000
0000
0000
0000
0000
0000
0000
0000
0000
ENDCHAR

STARTCHAR Ca3b0
ENCODING 41904
SWIDTH 1000 0
DWIDTH 16 0
BBX 16 16 0 -2
BITMAP
0000
0000
0000
0780
0840
0840
1020
1020
1020
1020
1020
0840
0840
0780
0000
0000
ENDCHAR

STARTCHAR Ca3b1
ENCODING 41905
SWIDTH 1000 0
DWIDTH 16 0
BBX 16 16 0 -2
BITMAP
0000
0000
0000
0300
0500
0900
0100
0100
0100
0100
0100
0100
0100
0100
0000
0000
ENDCHAR

STARTCHAR Ca3b2
ENCODING 41906
SWIDTH 1000 0
DWIDTH 16 0
BBX 16 16 0 -2
BITMAP
0000
0000
0000
0700
0880
1040
1040
0040
0080
0100
0600
0800
1000
1FE0
0000
0000
ENDCHAR

STARTCHAR Ca3b3
ENCODING 41907
SWIDTH 1000 0
DWIDTH 16 0
BBX 16 16 0 -2
BITMAP
0000
0000
0000
0700
0880
1040
1040
0040
0380
0040
1020
1020
0840
0780
0000
0000
ENDCHAR

STARTCHAR Ca3b4
ENCODING 41908
SWIDTH 1000 0
DWIDTH 16 0
BBX 16 16 0 -2
BITMAP
0000
0000
0000
0080
0180
0280
0480
0880
1080
2080
3FF0
0080
0080
0080
0000
0000
ENDCHAR

STARTCHAR Ca3b5
ENCODING 41909
SWIDTH 1000 0
DWIDTH 16 0
BBX 16 16 0 -2
BITMAP
0000
0000
0000
0FC0
0800
0800
0800
0B80
0C40
0020
1020
1020
0840
0780
0000
0000
ENDCHAR

STARTCHAR Ca3b6
ENCODING 41910
SWIDTH 1000 0
DWIDTH 16 0
BBX 16 16 0 -2
BITMAP
0000
0000
0000
0780
0840
1020
1000
1780
1840
1020
1020
1020
0840
0780
0000
0000
ENDCHAR

STARTCHAR Ca3b7
ENCODING 41911
SWIDTH 1000 0
DWIDTH 16 0
BBX 16 16 0 -2
BITMAP
0000
0000
0000
1FE0
0020
0040
0040
0080
0080
0100
0100
0200
0200
0200
0000
0000
ENDCHAR

STARTCHAR Ca3b8
ENCODING 41912
SWIDTH 1000 0
DWIDTH 16 0
BBX 16 16 0 -2
BITMAP
0000
0000
0000
0380
0440
0820
0820
0440
0380
0C60
1010
1010
0820
07C0
0000
0000
ENDCHAR

STARTCHAR Ca3b9
ENCODING 41913
SWIDTH 1000 0
DWIDTH 16 0
BBX 16 16 0 -2
BITMAP
0000
0000
0000
0780
0840
1020
1020
1020
0860
07A0
0020
1020
0840
0780
0000
0000
ENDCHAR

STARTCHAR Ca3ba
ENCODING 41914
SWIDTH 1000 0
DWIDTH 16 0
BBX 16 16 0 -2
BITMAP
0000
0000
0000
0000
0000
0000
0000
0000
0000
0000
0000
0000
0000
0000
0000
0000
ENDCHAR

STARTCHAR Ca3bb
ENCODING 41915
SWIDTH 1000 0
DWIDTH 16 0
BBX 16 16 0 -2
BITMAP
0000
0000
0000
0000
0000
0000
0000
0000
0000
0000
0000
0000
0000
0000
0000
0000
ENDCHAR

STARTCHAR Ca3bc
ENCODING 41916
SWIDTH 1000 0
DWIDTH 16 0
BBX 16 16 0 -2
BITMAP
0000
0000
0000
0000
0000
0000
0000
0000
0000
0000
0000
0000
0000
0000
0000
0000
ENDCHAR

STARTCHAR Ca3bd
ENCODING 41917
SWIDTH 1000 0
DWIDTH 16 0
BBX 16 16 0 -2
BITMAP
0000
0000
0000
0000
0000
0000
0000
0000
0000
0000
0000
0000
0000
0000
0000
0000
ENDCHAR

STARTCHAR Ca3be
ENCODING 41918
SWIDTH 1000 0
DWIDTH 16 0
BBX 16 16 0 -2
BITMAP
0000
0000
0000
0000
0000
0000
0000
0000
0000
0000
0000
0000
0000
0000
0000
0000
ENDCHAR

STARTCHAR Ca3bf
ENCODING 41919
SWIDTH 1000 0
DWIDTH 16 0
BBX 16 16 0 -2
BITMAP
0000
0000
0000
0000
0000
0000
0000
0000
0000
0000
0000
0000
0000
0000
0000
0000
ENDCHAR

STARTCHAR Ca3c0
ENCODING 41920
SWIDTH 1000 0
DWIDTH 16 0
BBX 16 16 0 -2
BITMAP
0000
0000
0000
0000
0000
0000
0000
0000
0000
0000
0000
0000
0000
0000
0000
0000
ENDCHAR

STARTCHAR Ca3c1
ENCODING 41921
SWIDTH 1000 0
DWIDTH 16 0
BBX 16 16 0 -2
BITMAP
0000
0000
0000
0100
0280
0280
0440
0440
0820
0820
1FF0
1010
2008
2008
0000
0000
ENDCHAR

STARTCHAR Ca3c2
ENCODING 41922
SWIDTH 1000 0
DWIDTH 16 0
BBX 16 16 0 -2
BITMAP
0000
0000
0000
1FC0
1020
1010
1010
1020
1FC0
1030
1008
1008
1010
1FE0
0000
0000
ENDCHAR

STARTCHAR Ca3c3
ENCODING 41923
SWIDTH 1000 0
DWIDTH 16 0
BBX 16 16 0 -2
BITMAP
0000
0000
0000
03C0
0C30
1008
1008
2000
2000
2000
1008
1008
0C30
03C0
0000
0000
ENDCHAR

STARTCHAR Ca3c4
ENCODING 41924
SWIDTH 1000 0
DWIDTH 16 0
BBX 16 16 0 -2
BITMAP
0000
0000
0000
1F80
1060
1010
1010
1008
1008
1008
1010
1010
1060
1F80
0000
0000
ENDCHAR

STARTCHAR Ca3c5
ENCODING 41925
SWIDTH 1000 0
DWIDTH 16 0
BBX 16 16 0 -2
BITMAP
0000
0000
0000
1FF0
1000
1000
1000
1000
1FE0
1000
1000
1000
1000
1FF0
0000
0000
ENDCHAR

STARTCHAR Ca3c6
ENCODING 41926
SWIDTH 1000 0
DWIDTH 16 0
BBX 16 16 0 -2
BITMAP
0000
0000
0000
1FF0
1000
1000
1000
1000
1FE0
1000
1000
1000
1000
1000
0000
0000
ENDCHAR

STARTCHAR Ca3c7
ENCODING 41927
SWIDTH 1000 0
DWIDTH 16 0
BBX 16 16 0 -2
BITMAP
0000
0000
0000
03C0
0C30
1008
1008
2000
2000
2038
1008
1008
0C38
03C8
0000
0000
ENDCHAR

STARTCHAR Ca3c8
ENCODING 41928
SWIDTH 1000 0
DWIDTH 16 0
BBX 16 16 0 -2
BITMAP
0000
0000
0000
1010
1010
1010
1010
1010
1FF0
1010
1010
1010
1010
1010
0000
0000
ENDCHAR

STARTCHAR Ca3c9
ENCODING 41929
SWIDTH 1000 0
DWIDTH 16 0
BBX 16 16 0 -2
BITMAP
0000
0000
0000
0100
0100
0100
0100
0100
0100
0100
0100
0100
0100
0100
0000
0000
ENDCHAR

STARTCHAR Ca3ca
ENCODING 41930
SWIDTH 1000 0
DWIDTH 16 0
BBX 16 16 0 -2
BITMAP
0000
0000
0000
0040
0040
0040
0040
0040
0040
0040
1040
1040
0880
0700
0000
0000
ENDCHAR

STARTCHAR Ca3cb
ENCODING 41931
SWIDTH 1000 0
DWIDTH 16 0
BBX 16 16 0 -2
BITMAP
0000
0000
0000
1020
1040
1080
1100
1200
1500
1880
1080
1040
1020
1010
0000
0000
ENDCHAR

STARTCHAR Ca3cc
ENCODING 41932
SWIDTH 1000 0
DWIDTH 16 0
BBX 16 16 0 -2
BITMAP
0000
0000
0000
1000
1000
1000
1000
1000
1000
1000
1000
1000
1000
1FF0
0000
0000
ENDCHAR

STARTCHAR Ca3cd
ENCODING 41933
SWIDTH 1000 0
DWIDTH 16 0
BBX 16 16 0 -2
BITMAP
0000
0000
0000
3018
2828
2828
2448
2448
2448
2288
2288
2108
2108
2008
0000
0000
ENDCHAR

STARTCHAR Ca3ce
ENCODING 41934
SWIDTH 1000 0
DWIDTH 16 0
BBX 16 16 0 -2
BITMAP
0000
0000
0000
1810
1410
1410
1210
1110
1110
1090
1050
1050
1030
1010
0000
0000
ENDCHAR

STARTCHAR Ca3cf
ENCODING 41935
SWIDTH 1000 0
DWIDTH 16 0
BBX 16 16 0 -2
BITMAP
0000
0000
0000
0780
1860
2010
2010
4008
4008
4008
2010
2010
1860
0780
0000
0000
ENDCHAR

STARTCHAR Ca3d0
ENCODING 41936
SWIDTH 1000 0
DWIDTH 16 0
BBX 16 16 0 -2
BITMAP
0000
0000
0000
0FC0
0820
0810
0810
0810
0820
0FC0
0800
0800
0800
0800
0000
0000
ENDCHAR

STARTCHAR Ca3d1
ENCODING 41937
SWIDTH 1000 0
DWIDTH 16 0
BBX 16 16 0 -2
BITMAP
0000
0000
0000
0780
1860
2010
2010
4008
4008
4008
2110
2090
1860
07A0
0010
0000
ENDCHAR

STARTCHAR Ca3d2
ENCODING 41938
SWIDTH 1000 0
DWIDTH 16 0
BBX 16 16 0 -2
BITMAP
0000
0000
0000
0FC0
0820
0810
0810
0820
0FC0
0840
0820
0810
0810
0808
0000
0000
ENDCHAR

STARTCHAR Ca3d3
ENCODING 41939
SWIDTH 1000 0
DWIDTH 16 0
BBX 16 16 0 -2
BITMAP
0000
0000
0000
0780
0840
1020
1020
0C00
0380
0060
1010
1010
0820
07C0
0000
0000
ENDCHAR

STARTCHAR Ca3d4
ENCODING 41940
SWIDTH 1000 0
DWIDTH 16 0
BBX 16 16 0 -2
BITMAP
0000
0000
0000
3FF8
0100
0100
0100
0100
0100
0100
0100
0100
0100
0100
0000
0000
ENDCHAR

STARTCHAR Ca3d5
ENCODING 41941
SWIDTH 1000 0
DWIDTH 16 0
BBX 16 16 0 -2
BITMAP
0000
0000
0000
1010
1010
1010
1010
1010
1010
1010
1010
1010
0820
07C0
0000
0000
ENDCHAR

STARTCHAR Ca3d6
ENCODING 41942
SWIDTH 1000 0
DWIDTH 16 0
BBX 16 16 0 -2
BITMAP
0000
0000
0000
1010
1010
0820
0820
0820
0440
0440
0280
0280
0100
0100
0000
0000
ENDCHAR

STARTCHAR Ca3d7
ENCODING 41943
SWIDTH 1000 0
DWIDTH 16 0
BBX 16 16 0 -2
BITMAP
0000
0000
0000
2108
2108
2108
2288
2288
1290
1450
1450
1450
0820
0820
0000
0000
ENDCHAR

STARTCHAR Ca3d8
ENCODING 41944
SWIDTH 1000 0
DWIDTH 16 0
BBX 16 16 0 -2
BITMAP
0000
0000
0000
1010
0820
0440
0440
0280
0100
0280
0440
0820
1010
2008
0000
0000
ENDCHAR

STARTCHAR Ca3d9
ENCODING 41945
SWIDTH 1000 0
DWIDTH 16 0
BBX 16 16 0 -2
BITMAP
0000
0000
0000
1010
1010
0820
0440
0440
0280
0100
0100
0100
0100
0100
0000
0000
ENDCHAR

STARTCHAR Ca3da
ENCODING 41946
SWIDTH 1000 0
DWIDTH 16 0
BBX 16 16 0 -2
BITMAP
0000
0000
0000
0FE0
0020
0040
0080
0080
0100
0200
0200
0400
0800
1FF0
0000
0000
ENDCHAR

STARTCHAR Ca3db
ENCODING 41947
SWIDTH 1000 0
DWIDTH 16 0
BBX 16 16 0 -2
BITMAP
0000
0000
0000
0000
0000
0000
0000
0000
0000
0000
0000
0000
0000
0000
0000
0000
ENDCHAR

STARTCHAR Ca3dc
ENCODING 41948
SWIDTH 1000 0
DWIDTH 16 0
BBX 16 16 0 -2
BITMAP
0000
0000
0000
0000
0000
0000
0000
0000
0000
0000
0000
0000
0000
0000
0000
0000
ENDCHAR

STARTCHAR Ca3dd
ENCODING 41949
SWIDTH 1000 0
DWIDTH 16 0
BBX 16 16 0 -2
BITMAP
0000
0000
0000
0000
0000
0000
0000
0000
0000
0000
0000
0000
0000
0000
0000
0000
ENDCHAR

STARTCHAR Ca3de
ENCODING 41950
SWIDTH 1000 0
DWIDTH 16 0
BBX 16 16 0 -2
BITMAP
0000
0000
0000
0000
0000
0000
0000
0000
0000
0000
0000
0000
0000
0000
0000
0000
ENDCHAR

STARTCHAR Ca3df
ENCODING 41951
SWIDTH 1000 0
DWIDTH 16 0
BBX 16 16 0 -2
BITMAP
0000
0000
0000
0000
0000
0000
0000
0000
0000
0000
0000
0000
0000
0000
0000
0000
ENDCHAR

STARTCHAR Ca3e0
ENCODING 41952
SWIDTH 1000 0
DWIDTH 16 0
BBX 16 16 0 -2
BITMAP
0000
0000
0000
0000
0000
0000
0000
0000
0000
0000
0000
0000
0000
0000
0000
0000
ENDCHAR

STARTCHAR Ca3e1
ENCODING 41953
SWIDTH 1000 0
DWIDTH 16 0
BBX 16 16 0 -2
BITMAP
0000
0000
0000
0000
0000
0000
0780
0840
0040
07C0
0840
1040
10C0
0F30
0000
0000
ENDCHAR

STARTCHAR Ca3e2
ENCODING 41954
SWIDTH 1000 0
DWIDTH 16 0
BBX 16 16 0 -2
BITMAP
0000
0000
0000
0800
0800
0800
0B80
0C40
0820
0820
0820
0820
0C40
0B80
0000
0000
ENDCHAR

STARTCHAR Ca3e3
ENCODING 41955
SWIDTH 1000 0
DWIDTH 16 0
BBX 16 16 0 -2
BITMAP
0000
0000
0000
0000
0000
0000
07C0
0820
1020
1000
1000
1000
0820
07C0
0000
0000
ENDCHAR

STARTCHAR Ca3e4
ENCODING 41956
SWIDTH 1000 0
DWIDTH 16 0
BBX 16 16 0 -2
BITMAP
0000
0000
0000
0040
0040
0040
0740
08C0
1040
1040
1040
1040
08C0
0740
0000
0000
ENDCHAR

STARTCHAR Ca3e5
ENCODING 41957
SWIDTH 1000 0
DWIDTH 16 0
BBX 16 16 0 -2
BITMAP
0000
0000
0000
0000
0000
0000
0780
0840
1020
1FE0
1000
1000
0820
07C0
0000
0000
ENDCHAR

STARTCHAR Ca3e6
ENCODING 41958
SWIDTH 1000 0
DWIDTH 16 0
BBX 16 16 0 -2
BITMAP
0000
0000
0000
01C0
0200
0200
0FC0
0200
0200
0200
0200
0200
0200
0200
0000
0000
ENDCHAR

STARTCHAR Ca3e7
ENCODING 41959
SWIDTH 1000 0
DWIDTH 16 0
BBX 16 16 0 -2
BITMAP
0000
0000
0000
0000
0000
0000
03A0
0460
0820
0820
0460
03A0
0020
0820
07C0
0000
ENDCHAR

STARTCHAR Ca3e8
ENCODING 41960
SWIDTH 1000 0
DWIDTH 16 0
BBX 16 16 0 -2
BITMAP
0000
0000
0000
0800
0800
0800
0B80
0C40
0840
0840
0840
0840
0840
0840
0000
0000
ENDCHAR

STARTCHAR Ca3e9
ENCODING 41961
SWIDTH 1000 0
DWIDTH 16 0
BBX 16 16 0 -2
BITMAP
0000
0000
0000
0100
0100
0000
0100
0100
0100
0100
0100
0100
0100
0100
0000
0000
ENDCHAR

STARTCHAR Ca3ea
ENCODING 41962
SWIDTH 1000 0
DWIDTH 16 0
BBX 16 16 0 -2
BITMAP
0000
0000
0000
0080
0080
0000
0080
0080
0080
0080
0080
0080
0080
0080
0F00
0000
ENDCHAR

STARTCHAR Ca3eb
ENCODING 41963
SWIDTH 1000 0
DWIDTH 16 0
BBX 16 16 0 -2
BITMAP
0000
0000
0000
0800
0800
0800
0840
0880
0900
0A00
0D00
0880
0840
0820
0000
0000
ENDCHAR

STARTCHAR Ca3ec
ENCODING 41964
SWIDTH 1000 0
DWIDTH 16 0
BBX 16 16 0 -2
BITMAP
0000
0000
0000
0100
0100
0100
0100
0100
0100
0100
0100
0100
0100
0100
0000
0000
ENDCHAR

STARTCHAR Ca3ed
ENCODING 41965
SWIDTH 1000 0
DWIDTH 16 0
BBX 16 16 0 -2
BITMAP
0000
0000
0000
0000
0000
0000
16E0
1910
1110
1110
1110
1110
1110
1110
0000
0000
ENDCHAR

STARTCHAR Ca3ee
ENCODING 41966
SWIDTH 1000 0
DWIDTH 16 0
BBX 16 16 0 -2
BITMAP
0000
0000
0000
0000
0000
0000
0B80
0C40
0840
0840
0840
0840
0840
0840
0000
0000
ENDCHAR

STARTCHAR Ca3ef
ENCODING 41967
SWIDTH 1000 0
DWIDTH 16 0
BBX 16 16 0 -2
BITMAP
0000
0000
0000
0000
0000
0000
0780
0840
1020
1020
1020
1020
0840
0780
0000
0000
ENDCHAR

STARTCHAR Ca3f0
ENCODING 41968
SWIDTH 1000 0
DWIDTH 16 0
BBX 16 16 0 -2
BITMAP
0000
0000
0000
0000
0000
0000
0B80
0C40
0820
0820
0820
0C40
0B80
0800
0800
0000
ENDCHAR

STARTCHAR Ca3f1
ENCODING 41969
SWIDTH 1000 0
DWIDTH 16 0
BBX 16 16 0 -2
BITMAP
0000
0000
0000
0000
0000
0000
0740
08C0
1040
1040
1040
08C0
0740
0040
0040
0000
ENDCHAR

STARTCHAR Ca3f2
ENCODING 41970
SWIDTH 1000 0
DWIDTH 16 0
BBX 16 16 0 -2
BITMAP
0000
0000
0000
0000
0000
0000
04C0
0500
0600
0400
0400
0400
0400
0400
0000
0000
ENDCHAR

STARTCHAR Ca3f3
ENCODING 41971
SWIDTH 1000 0
DWIDTH 16 0
BBX 16 16 0 -2
BITMAP
0000
0000
0000
0000
0000
0000
0780
0840
0840
0600
0180
0840
0840
0780
0000
0000
ENDCHAR

STARTCHAR Ca3f4
ENCODING 41972
SWIDTH 1000 0
DWIDTH 16 0
BBX 16 16 0 -2
BITMAP
0000
0000
0000
0200
0200
0200
0FC0
0200
0200
0200
0200
0200
0200
01C0
0000
0000
ENDCHAR

STARTCHAR Ca3f5
ENCODING 41973
SWIDTH 1000 0
DWIDTH 16 0
BBX 16 16 0 -2
BITMAP
0000
0000
0000
0000
0000
0000
0840
0840
0840
0840
0840
0840
04C0
0340
0000
0000
ENDCHAR

STARTCHAR Ca3f6
ENCODING 41974
SWIDTH 1000 0
DWIDTH 16 0
BBX 16 16 0 -2
BITMAP
0000
0000
0000
0000
0000
0000
0820
0820
0440
0440
0280
0280
0100
0100
0000
0000
ENDCHAR

STARTCHAR Ca3f7
ENCODING 41975
SWIDTH 1000 0
DWIDTH 16 0
BBX 16 16 0 -2
BITMAP
0000
0000
0000
0000
0000
0000
2108
2108
2288
1290
1450
1450
0820
0820
0000
0000
ENDCHAR

STARTCHAR Ca3f8
ENCODING 41976
SWIDTH 1000 0
DWIDTH 16 0
BBX 16 16 0 -2
BITMAP
0000
0000
0000
0000
0000
0000
0820
0440
0280
0100
0280
0440
0820
1010
0000
0000
ENDCHAR

STARTCHAR Ca3f9
ENCODING 41977
SWIDTH 1000 0
DWIDTH 16 0
BBX 16 16 0 -2
BITMAP
0000
0000
0000
0000
0000
0000
0820
0820
0440
0440
0280
0100
0100
0200
0C00
0000
ENDCHAR

STARTCHAR Ca3fa
ENCODING 41978
SWIDTH 1000 0
DWIDTH 16 0
BBX 16 16 0 -2
BITMAP
0000
0000
0000
0000
0000
0000
0FC0
0040
0080
0100
0200
0400
0800
1FE0
0000
0000
ENDCHAR

STARTCHAR Ca4a1
ENCODING 42145
SWIDTH 1000 0
DWIDTH 16 0
BBX 16 16 0 -2
BITMAP
0000
0000
0000
0000
0400
0780
1C00
0400
07C0
0D20
1510
2210
2410
1860
0180
0000
ENDCHAR

STARTCHAR Ca4a2
ENCODING 42146
SWIDTH 1000 0
DWIDTH 16 0
BBX 16 16 0 -2
BITMAP
0000
0000
0200
0200
03E0
3E00
0400
0400
07E0
0C90
1488
2508
2208
1C30
00C0
0000
ENDCHAR

STARTCHAR Ca4a3
ENCODING 42147
SWIDTH 1000 0
DWIDTH 16 0
BBX 16 16 0 -2
BITMAP
0000
0000
0000
0000
0000
0000
1000
1040
1020
1020
1010
1410
0800
0800
0000
0000
ENDCHAR

STARTCHAR Ca4a4
ENCODING 42148
SWIDTH 1000 0
DWIDTH 16 0
BBX 16 16 0 -2
BITMAP
0000
0000
0000
0000
2000
2020
2010
2010
2008
2208
2208
1400
1400
0800
0000
0000
ENDCHAR

STARTCHAR Ca4a5
ENCODING 42149
SWIDTH 1000 0
DWIDTH 16 0
BBX 16 16 0 -2
BITMAP
0000
0000
0000
0000
0400
0300
0000
0780
1840
0040
0040
0040
0080
0180
0600
0000
ENDCHAR

STARTCHAR Ca4a6
ENCODING 42150
SWIDTH 1000 0
DWIDTH 16 0
BBX 16 16 0 -2
BITMAP
0000
0000
0600
0180
0000
0380
1C40
0020
0020
0020
0020
0040
0040
0180
0600
0000
ENDCHAR

STARTCHAR Ca4a7
ENCODING 42151
SWIDTH 1000 0
DWIDTH 16 0
BBX 16 16 0 -2
BITMAP
0000
0000
0000
0000
0400
0300
0000
03C0
1C80
0100
0200
0500
0900
1100
20E0
0000
ENDCHAR

STARTCHAR Ca4a8
ENCODING 42152
SWIDTH 1000 0
DWIDTH 16 0
BBX 16 16 0 -2
BITMAP
0000
0000
0600
0180
0000
03C0
1C80
0100
0200
0300
0480
0880
1080
2078
0000
0000
ENDCHAR

STARTCHAR Ca4a9
ENCODING 42153
SWIDTH 1000 0
DWIDTH 16 0
BBX 16 16 0 -2
BITMAP
0000
0000
0000
0000
0000
0400
0440
0720
3C10
0400
07C0
1C20
2420
2420
1DC0
0000
ENDCHAR

STARTCHAR Ca4aa
ENCODING 42154
SWIDTH 1000 0
DWIDTH 16 0
BBX 16 16 0 -2
BITMAP
0000
0000
0400
0410
07C8
3C04
0404
0400
07E0
0C10
1408
2408
2410
1CE0
0000
0000
ENDCHAR

STARTCHAR Ca4ab
ENCODING 42155
SWIDTH 1000 0
DWIDTH 16 0
BBX 16 16 0 -2
BITMAP
0000
0000
0200
0200
0210
0788
3C48
0444
0844
0844
1040
1080
2280
2100
0000
0000
ENDCHAR

STARTCHAR Ca4ac
ENCODING 42156
SWIDTH 1000 0
DWIDTH 16 0
BBX 16 16 0 -2
BITMAP
0000
0028
0214
0200
0210
0788
3C48
0444
0844
0844
1040
1080
2280
2100
0000
0000
ENDCHAR

STARTCHAR Ca4ad
ENCODING 42157
SWIDTH 1000 0
DWIDTH 16 0
BBX 16 16 0 -2
BITMAP
0000
0000
0100
0170
1F80
0080
00F8
3F40
0020
0020
0FD0
1830
1000
0C00
03F0
0000
ENDCHAR

STARTCHAR Ca4ae
ENCODING 42158
SWIDTH 1000 0
DWIDTH 16 0
BBX 16 16 0 -2
BITMAP
0000
0008
0124
0170
1F80
0080
00F8
3F40
0020
0020
0FD0
1830
1000
0C00
03F0
0000
ENDCHAR

STARTCHAR Ca4af
ENCODING 42159
SWIDTH 1000 0
DWIDTH 16 0
BBX 16 16 0 -2
BITMAP
0000
0000
0040
0040
0080
0100
0200
0400
0800
0400
0200
0100
0080
0040
0020
0000
ENDCHAR

STARTCHAR Ca4b0
ENCODING 42160
SWIDTH 1000 0
DWIDTH 16 0
BBX 16 16 0 -2
BITMAP
0000
0000
0040
0040
0088
0124
0210
0400
0800
0400
0200
0100
0080
0040
0020
0000
ENDCHAR

STARTCHAR Ca4b1
ENCODING 42161
SWIDTH 1000 0
DWIDTH 16 0
BBX 16 16 0 -2
BITMAP
0000
0000
0020
1020
1020
103C
23E0
2020
2020
2020
2820
2820
1040
1040
0080
0000
ENDCHAR

STARTCHAR Ca4b2
ENCODING 42162
SWIDTH 1000 0
DWIDTH 16 0
BBX 16 16 0 -2
BITMAP
0000
0008
0024
1028
1024
103C
23E0
2020
2020
2020
2820
2820
1040
1040
0080
0000
ENDCHAR

STARTCHAR Ca4b3
ENCODING 42163
SWIDTH 1000 0
DWIDTH 16 0
BBX 16 16 0 -2
BITMAP
0000
0000
0000
0000
1FE0
0040
0080
0000
0000
0000
2000
2000
1800
07F0
0000
0000
ENDCHAR

STARTCHAR Ca4b4
ENCODING 42164
SWIDTH 1000 0
DWIDTH 16 0
BBX 16 16 0 -2
BITMAP
0000
0010
0048
0028
1FE0
0040
0080
0000
0000
0000
2000
2000
1800
07F0
0000
0000
ENDCHAR

STARTCHAR Ca4b5
ENCODING 42165
SWIDTH 1000 0
DWIDTH 16 0
BBX 16 16 0 -2
BITMAP
0000
0000
0100
0100
00F8
3F80
0040
0020
03D0
0C30
1000
1000
0C00
03F0
0000
0000
ENDCHAR

STARTCHAR Ca4b6
ENCODING 42166
SWIDTH 1000 0
DWIDTH 16 0
BBX 16 16 0 -2
BITMAP
0000
0008
0124
0110
00F8
3F80
0040
0020
03D0
0C30
1000
1000
0C00
03F0
0000
0000
ENDCHAR

STARTCHAR Ca4b7
ENCODING 42167
SWIDTH 1000 0
DWIDTH 16 0
BBX 16 16 0 -2
BITMAP
0000
0000
0800
0800
0800
0800
0800
0800
0808
0808
0810
0810
0460
0380
0000
0000
ENDCHAR

STARTCHAR Ca4b8
ENCODING 42168
SWIDTH 1000 0
DWIDTH 16 0
BBX 16 16 0 -2
BITMAP
0000
0000
0820
0890
0850
0840
0800
0800
0808
0808
0810
0810
0460
0380
0000
0000
ENDCHAR

STARTCHAR Ca4b9
ENCODING 42169
SWIDTH 1000 0
DWIDTH 16 0
BBX 16 16 0 -2
BITMAP
0000
0080
0080
00FC
7F80
0080
0380
0440
0440
04C0
0340
0040
0080
0180
0600
0000
ENDCHAR

STARTCHAR Ca4ba
ENCODING 42170
SWIDTH 1000 0
DWIDTH 16 0
BBX 16 16 0 -2
BITMAP
0000
00A8
0094
00FC
7F80
0080
0380
0440
0440
04C0
0340
0040
0080
0180
0600
0000
ENDCHAR

STARTCHAR Ca4bb
ENCODING 42171
SWIDTH 1000 0
DWIDTH 16 0
BBX 16 16 0 -2
BITMAP
0000
0000
0020
0420
0420
0420
07FC
7C20
0420
04A0
0440
0400
0400
03F0
0000
0000
ENDCHAR

STARTCHAR Ca4bc
ENCODING 42172
SWIDTH 1000 0
DWIDTH 16 0
BBX 16 16 0 -2
BITMAP
0000
0008
0024
0430
0428
0420
07FC
7C20
0420
04A0
0440
0400
0400
03F0
0000
0000
ENDCHAR

STARTCHAR Ca4bd
ENCODING 42173
SWIDTH 1000 0
DWIDTH 16 0
BBX 16 16 0 -2
BITMAP
0000
0000
01E0
0E40
0080
0100
0278
0780
3900
0200
0200
0200
0100
00E0
0000
0000
ENDCHAR

STARTCHAR Ca4be
ENCODING 42174
SWIDTH 1000 0
DWIDTH 16 0
BBX 16 16 0 -2
BITMAP
0000
0008
01E4
0E50
0088
0100
0278
0780
3900
0200
0200
0200
0100
00E0
0000
0000
ENDCHAR

STARTCHAR Ca4bf
ENCODING 42175
SWIDTH 1000 0
DWIDTH 16 0
BBX 16 16 0 -2
BITMAP
0000
0000
0400
0400
05C0
3E00
0800
0870
1180
1000
1000
2000
2200
41F8
0000
0000
ENDCHAR

STARTCHAR Ca4c0
ENCODING 42176
SWIDTH 1000 0
DWIDTH 16 0
BBX 16 16 0 -2
BITMAP
0000
0008
0424
0410
05C0
3E00
0800
0870
1180
1000
1000
2000
2200
41F8
0000
0000
ENDCHAR

STARTCHAR Ca4c1
ENCODING 42177
SWIDTH 1000 0
DWIDTH 16 0
BBX 16 16 0 -2
BITMAP
0000
0000
0200
0200
02E0
1F00
0400
0400
08E0
0B10
0C08
0008
0008
0030
07C0
0000
ENDCHAR

STARTCHAR Ca4c2
ENCODING 42178
SWIDTH 1000 0
DWIDTH 16 0
BBX 16 16 0 -2
BITMAP
0000
0008
0224
0210
02E0
1F00
0400
0400
08E0
0B10
0C08
0008
0008
0030
07C0
0000
ENDCHAR

STARTCHAR Ca4c3
ENCODING 42179
SWIDTH 1000 0
DWIDTH 16 0
BBX 16 16 0 -2
BITMAP
0000
0000
0000
0000
0000
0000
0000
07C0
3820
0010
0010
0010
0060
0780
0000
0000
ENDCHAR

STARTCHAR Ca4c4
ENCODING 42180
SWIDTH 1000 0
DWIDTH 16 0
BBX 16 16 0 -2
BITMAP
0000
0000
0000
0000
07E0
7810
0008
0008
0008
0008
0010
0060
0780
0000
0000
0000
ENDCHAR

STARTCHAR Ca4c5
ENCODING 42181
SWIDTH 1000 0
DWIDTH 16 0
BBX 16 16 0 -2
BITMAP
0000
0008
0024
0010
07E0
7810
0008
0008
0008
0008
0010
0060
0780
0000
0000
0000
ENDCHAR

STARTCHAR Ca4c6
ENCODING 42182
SWIDTH 1000 0
DWIDTH 16 0
BBX 16 16 0 -2
BITMAP
0000
0000
0000
03F8
7C80
0100
0200
0200
0400
0400
0400
0400
0300
00E0
0000
0000
ENDCHAR

STARTCHAR Ca4c7
ENCODING 42183
SWIDTH 1000 0
DWIDTH 16 0
BBX 16 16 0 -2
BITMAP
0000
0000
0000
03F8
7C80
0108
0224
0210
0400
0400
0400
0400
0300
00E0
0000
0000
ENDCHAR

STARTCHAR Ca4c8
ENCODING 42184
SWIDTH 1000 0
DWIDTH 16 0
BBX 16 16 0 -2
BITMAP
0000
0000
0800
0800
0400
0420
04C0
0300
0400
0800
1000
1000
1800
07F0
0000
0000
ENDCHAR

STARTCHAR Ca4c9
ENCODING 42185
SWIDTH 1000 0
DWIDTH 16 0
BBX 16 16 0 -2
BITMAP
0000
0008
0824
0810
0400
0420
04C0
0300
0400
0800
1000
1000
1800
07F0
0000
0000
ENDCHAR

STARTCHAR Ca4ca
ENCODING 42186
SWIDTH 1000 0
DWIDTH 16 0
BBX 16 16 0 -2
BITMAP
0000
0000
0200
0200
0790
3C08
0404
0820
0820
1020
1020
23E0
2438
0224
01C0
0000
ENDCHAR

STARTCHAR Ca4cb
ENCODING 42187
SWIDTH 1000 0
DWIDTH 16 0
BBX 16 16 0 -2
BITMAP
0000
0000
0000
1000
10F0
1300
2000
2000
2000
2000
2800
2A00
11F8
1000
0000
0000
ENDCHAR

STARTCHAR Ca4cc
ENCODING 42188
SWIDTH 1000 0
DWIDTH 16 0
BBX 16 16 0 -2
BITMAP
0000
0000
0100
2100
23C0
2D30
1110
3208
2A08
4A08
4408
44E8
4910
30E8
0000
0000
ENDCHAR

STARTCHAR Ca4cd
ENCODING 42189
SWIDTH 1000 0
DWIDTH 16 0
BBX 16 16 0 -2
BITMAP
0000
0000
0400
0600
3C70
0588
0604
0404
0C04
1404
1404
2474
4488
0474
0400
0000
ENDCHAR

STARTCHAR Ca4ce
ENCODING 42190
SWIDTH 1000 0
DWIDTH 16 0
BBX 16 16 0 -2
BITMAP
0000
0000
0000
07C0
1930
2110
2108
4208
4208
4408
4410
4810
3060
0180
0000
0000
ENDCHAR

STARTCHAR Ca4cf
ENCODING 42191
SWIDTH 1000 0
DWIDTH 16 0
BBX 16 16 0 -2
BITMAP
0000
0000
0020
1020
103C
13E0
2020
2020
2020
2020
29E0
2A38
1124
10E0
0000
0000
ENDCHAR

STARTCHAR Ca4d0
ENCODING 42192
SWIDTH 1000 0
DWIDTH 16 0
BBX 16 16 0 -2
BITMAP
0000
0008
0024
1028
1038
13E0
2020
2020
2020
2020
29E0
2A38
1124
10E0
0000
0000
ENDCHAR

STARTCHAR Ca4d1
ENCODING 42193
SWIDTH 1000 0
DWIDTH 16 0
BBX 16 16 0 -2
BITMAP
0000
0018
0024
1024
1038
13E0
2020
2020
2020
2020
29E0
2A38
1124
10E0
0000
0000
ENDCHAR

STARTCHAR Ca4d2
ENCODING 42194
SWIDTH 1000 0
DWIDTH 16 0
BBX 16 16 0 -2
BITMAP
0000
0000
0040
0C40
7420
0820
1010
1028
2020
2020
2020
2040
10C0
0F00
0000
0000
ENDCHAR

STARTCHAR Ca4d3
ENCODING 42195
SWIDTH 1000 0
DWIDTH 16 0
BBX 16 16 0 -2
BITMAP
0000
0008
0044
0C50
7428
0820
1010
1028
2020
2020
2020
2040
10C0
0F00
0000
0000
ENDCHAR

STARTCHAR Ca4d4
ENCODING 42196
SWIDTH 1000 0
DWIDTH 16 0
BBX 16 16 0 -2
BITMAP
0000
0018
0024
0C24
7438
0820
1010
1028
2020
2020
2020
2040
10C0
0F00
0000
0000
ENDCHAR

STARTCHAR Ca4d5
ENCODING 42197
SWIDTH 1000 0
DWIDTH 16 0
BBX 16 16 0 -2
BITMAP
0000
0000
0400
0300
00C0
0100
0200
0200
0110
1088
1044
2044
4440
0380
0000
0000
ENDCHAR

STARTCHAR Ca4d6
ENCODING 42198
SWIDTH 1000 0
DWIDTH 16 0
BBX 16 16 0 -2
BITMAP
0000
0008
0424
0310
00C0
0100
0200
0200
0110
1088
1044
2044
4440
0380
0000
0000
ENDCHAR

STARTCHAR Ca4d7
ENCODING 42199
SWIDTH 1000 0
DWIDTH 16 0
BBX 16 16 0 -2
BITMAP
0000
0018
0424
0324
00D8
0100
0200
0200
0110
1088
1044
2044
4440
0380
0000
0000
ENDCHAR

STARTCHAR Ca4d8
ENCODING 42200
SWIDTH 1000 0
DWIDTH 16 0
BBX 16 16 0 -2
BITMAP
0000
0000
0000
0000
0200
0500
0880
0840
1020
2010
4008
0004
0000
0000
0000
0000
ENDCHAR

STARTCHAR Ca4d9
ENCODING 42201
SWIDTH 1000 0
DWIDTH 16 0
BBX 16 16 0 -2
BITMAP
0000
0000
0008
0024
0210
0500
0880
0840
1020
2010
4008
0004
0000
0000
0000
0000
ENDCHAR

STARTCHAR Ca4da
ENCODING 42202
SWIDTH 1000 0
DWIDTH 16 0
BBX 16 16 0 -2
BITMAP
0000
0000
0018
0024
0224
0518
0880
0840
1020
2010
4008
0004
0000
0000
0000
0000
ENDCHAR

STARTCHAR Ca4db
ENCODING 42203
SWIDTH 1000 0
DWIDTH 16 0
BBX 16 16 0 -2
BITMAP
0000
0000
0038
13E0
1020
1020
203C
23E0
2020
2020
29E0
2A38
1124
10E0
0000
0000
ENDCHAR

STARTCHAR Ca4dc
ENCODING 42204
SWIDTH 1000 0
DWIDTH 16 0
BBX 16 16 0 -2
BITMAP
0000
0028
0014
13F0
1020
1020
203C
23E0
2020
2020
29E0
2A38
1124
10E0
0000
0000
ENDCHAR

STARTCHAR Ca4dd
ENCODING 42205
SWIDTH 1000 0
DWIDTH 16 0
BBX 16 16 0 -2
BITMAP
0000
0018
0024
13E4
1038
1020
2020
23FC
2020
2020
29E0
2A38
1124
10E0
0000
0000
ENDCHAR

STARTCHAR Ca4de
ENCODING 42206
SWIDTH 1000 0
DWIDTH 16 0
BBX 16 16 0 -2
BITMAP
0000
0000
0080
0080
1FF8
0080
0080
0FF0
0080
0080
0FC0
10B0
0888
0780
0000
0000
ENDCHAR

STARTCHAR Ca4df
ENCODING 42207
SWIDTH 1000 0
DWIDTH 16 0
BBX 16 16 0 -2
BITMAP
0000
0000
0300
1D00
0100
0210
0210
1F90
2470
4418
4824
3020
0040
0080
0000
0000
ENDCHAR

STARTCHAR Ca4e0
ENCODING 42208
SWIDTH 1000 0
DWIDTH 16 0
BBX 16 16 0 -2
BITMAP
0000
0000
0800
0820
7F10
0808
0808
3820
4820
4820
3010
1010
1010
0FE0
0000
0000
ENDCHAR

STARTCHAR Ca4e1
ENCODING 42209
SWIDTH 1000 0
DWIDTH 16 0
BBX 16 16 0 -2
BITMAP
0000
0000
0080
1080
11E0
1698
0888
1884
1504
2504
2204
2408
1830
01C0
0000
0000
ENDCHAR

STARTCHAR Ca4e2
ENCODING 42210
SWIDTH 1000 0
DWIDTH 16 0
BBX 16 16 0 -2
BITMAP
0000
0000
0400
0400
3F80
0400
0400
0420
3F90
0810
0810
0810
0420
03C0
0000
0000
ENDCHAR

STARTCHAR Ca4e3
ENCODING 42211
SWIDTH 1000 0
DWIDTH 16 0
BBX 16 16 0 -2
BITMAP
0000
0000
0000
0000
0100
0880
09E0
0E10
3410
0410
0260
0200
0200
0100
0100
0000
ENDCHAR

STARTCHAR Ca4e4
ENCODING 42212
SWIDTH 1000 0
DWIDTH 16 0
BBX 16 16 0 -2
BITMAP
0000
0100
1080
1000
08F0
0B08
1C04
6404
0408
0270
0200
0200
0100
0100
0100
0000
ENDCHAR

STARTCHAR Ca4e5
ENCODING 42213
SWIDTH 1000 0
DWIDTH 16 0
BBX 16 16 0 -2
BITMAP
0000
0000
0000
0000
0100
1100
13C0
1520
1910
1110
1520
13C0
0100
0200
0400
0000
ENDCHAR

STARTCHAR Ca4e6
ENCODING 42214
SWIDTH 1000 0
DWIDTH 16 0
BBX 16 16 0 -2
BITMAP
0000
0000
0080
2080
23E0
2490
4888
4888
5088
5088
2490
23E0
0080
0100
0600
0000
ENDCHAR

STARTCHAR Ca4e7
ENCODING 42215
SWIDTH 1000 0
DWIDTH 16 0
BBX 16 16 0 -2
BITMAP
0000
0000
0000
0000
0000
0100
0100
01E0
0100
0100
0100
0F00
11C0
1920
0700
0000
ENDCHAR

STARTCHAR Ca4e8
ENCODING 42216
SWIDTH 1000 0
DWIDTH 16 0
BBX 16 16 0 -2
BITMAP
0000
0000
0100
0100
0100
01F0
0100
0100
0100
0100
1F80
2160
1110
0F00
0000
0000
ENDCHAR

STARTCHAR Ca4e9
ENCODING 42217
SWIDTH 1000 0
DWIDTH 16 0
BBX 16 16 0 -2
BITMAP
0000
0000
0600
0180
0040
0800
0800
0800
11E0
1610
1808
1008
0008
0030
07C0
0000
ENDCHAR

STARTCHAR Ca4ea
ENCODING 42218
SWIDTH 1000 0
DWIDTH 16 0
BBX 16 16 0 -2
BITMAP
0000
0000
0020
0820
0820
0820
1020
1020
1420
0820
0820
0040
0040
0180
0600
0000
ENDCHAR

STARTCHAR Ca4eb
ENCODING 42219
SWIDTH 1000 0
DWIDTH 16 0
BBX 16 16 0 -2
BITMAP
0000
0000
0000
01C0
0E40
0080
0100
0200
05E0
0E10
1008
2008
0708
0890
07E0
0000
ENDCHAR

STARTCHAR Ca4ec
ENCODING 42220
SWIDTH 1000 0
DWIDTH 16 0
BBX 16 16 0 -2
BITMAP
0000
0000
0800
0800
0CC0
3920
0A20
0C20
0820
1820
2824
2824
4824
0818
0800
0000
ENDCHAR

STARTCHAR Ca4ed
ENCODING 42221
SWIDTH 1000 0
DWIDTH 16 0
BBX 16 16 0 -2
BITMAP
0000
0000
0000
0380
1C80
0100
0200
0400
0BC0
1C20
2010
0010
0010
0060
0F80
0000
ENDCHAR

STARTCHAR Ca4ee
ENCODING 42222
SWIDTH 1000 0
DWIDTH 16 0
BBX 16 16 0 -2
BITMAP
0000
0000
0000
0000
0000
0400
0400
3DC0
0620
0410
0C10
1410
2420
05C0
0400
0000
ENDCHAR

STARTCHAR Ca4ef
ENCODING 42223
SWIDTH 1000 0
DWIDTH 16 0
BBX 16 16 0 -2
BITMAP
0000
0000
0400
0400
0600
3CF0
0708
0404
0C04
1404
1404
2408
4430
04C0
0400
0000
ENDCHAR

STARTCHAR Ca4f0
ENCODING 42224
SWIDTH 1000 0
DWIDTH 16 0
BBX 16 16 0 -2
BITMAP
0000
0000
0380
1C80
0100
0100
03E0
0E10
1208
2208
4408
44E8
4910
30E0
0000
0000
ENDCHAR

STARTCHAR Ca4f1
ENCODING 42225
SWIDTH 1000 0
DWIDTH 16 0
BBX 16 16 0 -2
BITMAP
0000
0000
0FC0
0080
0300
04E0
0810
1310
04A0
03C0
0200
0430
1A48
2184
4084
0000
ENDCHAR

STARTCHAR Ca4f2
ENCODING 42226
SWIDTH 1000 0
DWIDTH 16 0
BBX 16 16 0 -2
BITMAP
0000
0000
0200
03C0
3E00
0400
0800
0E10
1160
2180
0300
0500
0900
0800
07F0
0000
ENDCHAR

STARTCHAR Ca4f3
ENCODING 42227
SWIDTH 1000 0
DWIDTH 16 0
BBX 16 16 0 -2
BITMAP
0000
0000
0100
0100
0200
0200
0400
0400
0E08
0908
1108
1110
2110
20E0
0000
0000
ENDCHAR

STARTCHAR Ca5a1
ENCODING 42401
SWIDTH 1000 0
DWIDTH 16 0
BBX 16 16 0 -2
BITMAP
0000
0000
0000
0000
0000
0000
1FF0
0010
0120
0140
0100
0100
0200
0200
0400
0000
ENDCHAR

STARTCHAR Ca5a2
ENCODING 42402
SWIDTH 1000 0
DWIDTH 16 0
BBX 16 16 0 -2
BITMAP
0000
0000
0000
3FF8
0008
0010
0120
0140
0100
0100
0200
0200
0400
0800
0000
0000
ENDCHAR

STARTCHAR Ca5a3
ENCODING 42403
SWIDTH 1000 0
DWIDTH 16 0
BBX 16 16 0 -2
BITMAP
0000
0000
0000
0000
0000
0020
0020
0040
0080
0180
0680
1880
0080
0080
0080
0000
ENDCHAR

STARTCHAR Ca5a4
ENCODING 42404
SWIDTH 1000 0
DWIDTH 16 0
BBX 16 16 0 -2
BITMAP
0000
0000
0010
0010
0020
0040
0080
0180
0280
0C80
3080
0080
0080
0080
0080
0000
ENDCHAR

STARTCHAR Ca5a5
ENCODING 42405
SWIDTH 1000 0
DWIDTH 16 0
BBX 16 16 0 -2
BITMAP
0000
0000
0000
0000
0000
0100
0100
0FE0
0820
0820
0820
0040
0040
0080
0300
0000
ENDCHAR

STARTCHAR Ca5a6
ENCODING 42406
SWIDTH 1000 0
DWIDTH 16 0
BBX 16 16 0 -2
BITMAP
0000
0000
0100
0100
0100
1FF8
1008
1008
1008
1008
0010
0010
0020
00C0
0300
0000
ENDCHAR

STARTCHAR Ca5a7
ENCODING 42407
SWIDTH 1000 0
DWIDTH 16 0
BBX 16 16 0 -2
BITMAP
0000
0000
0000
0000
0000
0000
0000
0FE0
0100
0100
0100
0100
0100
1FF0
0000
0000
ENDCHAR

STARTCHAR Ca5a8
ENCODING 42408
SWIDTH 1000 0
DWIDTH 16 0
BBX 16 16 0 -2
BITMAP
0000
0000
0000
0000
1FF0
0100
0100
0100
0100
0100
0100
0100
3FF8
0000
0000
0000
ENDCHAR

STARTCHAR Ca5a9
ENCODING 42409
SWIDTH 1000 0
DWIDTH 16 0
BBX 16 16 0 -2
BITMAP
0000
0000
0000
0000
0000
0080
0080
1FF0
0280
0480
0480
0880
1080
2080
0380
0000
ENDCHAR

STARTCHAR Ca5aa
ENCODING 42410
SWIDTH 1000 0
DWIDTH 16 0
BBX 16 16 0 -2
BITMAP
0000
0000
0040
0040
0040
3FFC
0140
0240
0240
0440
0840
1040
2040
01C0
0000
0000
ENDCHAR

STARTCHAR Ca5ab
ENCODING 42411
SWIDTH 1000 0
DWIDTH 16 0
BBX 16 16 0 -2
BITMAP
0000
0000
0100
0100
0100
1FF0
0210
0210
0210
0410
0410
0810
09A0
1060
2000
0000
ENDCHAR

STARTCHAR Ca5ac
ENCODING 42412
SWIDTH 1000 0
DWIDTH 16 0
BBX 16 16 0 -2
BITMAP
0000
0028
0114
0100
0100
1FF0
0210
0210
0210
0410
0410
0810
09A0
1060
2000
0000
ENDCHAR

STARTCHAR Ca5ad
ENCODING 42413
SWIDTH 1000 0
DWIDTH 16 0
BBX 16 16 0 -2
BITMAP
0000
0000
0200
0200
02E0
1F00
0100
0100
01F8
3E80
0080
0040
0040
0040
0000
0000
ENDCHAR

STARTCHAR Ca5ae
ENCODING 42414
SWIDTH 1000 0
DWIDTH 16 0
BBX 16 16 0 -2
BITMAP
0000
0008
0224
0210
02E0
1F00
0100
0100
01F8
3E80
0080
0040
0040
0040
0000
0000
ENDCHAR

STARTCHAR Ca5af
ENCODING 42415
SWIDTH 1000 0
DWIDTH 16 0
BBX 16 16 0 -2
BITMAP
0000
0000
0100
0100
03F0
0210
0410
0810
1020
0020
0040
0080
0300
0C00
0000
0000
ENDCHAR

STARTCHAR Ca5b0
ENCODING 42416
SWIDTH 1000 0
DWIDTH 16 0
BBX 16 16 0 -2
BITMAP
0000
0008
0124
0110
03F0
0210
0410
0810
1020
0020
0040
0080
0300
0C00
0000
0000
ENDCHAR

STARTCHAR Ca5b1
ENCODING 42417
SWIDTH 1000 0
DWIDTH 16 0
BBX 16 16 0 -2
BITMAP
0000
0000
0400
0400
0400
0FFC
0840
1040
2040
0080
0080
0100
0200
0C00
0000
0000
ENDCHAR

STARTCHAR Ca5b2
ENCODING 42418
SWIDTH 1000 0
DWIDTH 16 0
BBX 16 16 0 -2
BITMAP
0000
0008
0424
0410
0400
0FFC
0840
1040
2040
0080
0080
0100
0200
0C00
0000
0000
ENDCHAR

STARTCHAR Ca5b3
ENCODING 42419
SWIDTH 1000 0
DWIDTH 16 0
BBX 16 16 0 -2
BITMAP
0000
0000
0000
0000
0000
1FF0
0010
0010
0010
0010
0010
0010
1FF0
0010
0000
0000
ENDCHAR

STARTCHAR Ca5b4
ENCODING 42420
SWIDTH 1000 0
DWIDTH 16 0
BBX 16 16 0 -2
BITMAP
0000
0008
0024
0010
0000
1FF0
0010
0010
0010
0010
0010
0010
1FF0
0010
0000
0000
ENDCHAR

STARTCHAR Ca5b5
ENCODING 42421
SWIDTH 1000 0
DWIDTH 16 0
BBX 16 16 0 -2
BITMAP
0000
0000
0020
0420
0420
3FFC
0420
0420
0420
0420
0040
0040
0080
0300
0000
0000
ENDCHAR

STARTCHAR Ca5b6
ENCODING 42422
SWIDTH 1000 0
DWIDTH 16 0
BBX 16 16 0 -2
BITMAP
0000
0008
0024
0430
0428
3FFC
0420
0420
0420
0420
0040
0040
0080
0300
0000
0000
ENDCHAR

STARTCHAR Ca5b7
ENCODING 42423
SWIDTH 1000 0
DWIDTH 16 0
BBX 16 16 0 -2
BITMAP
0000
0000
0000
0800
0400
0208
2008
1010
0810
0020
0040
0080
0300
1C00
0000
0000
ENDCHAR

STARTCHAR Ca5b8
ENCODING 42424
SWIDTH 1000 0
DWIDTH 16 0
BBX 16 16 0 -2
BITMAP
0000
0008
0024
0810
0400
0208
2008
1010
0810
0020
0040
0080
0300
1C00
0000
0000
ENDCHAR

STARTCHAR Ca5b9
ENCODING 42425
SWIDTH 1000 0
DWIDTH 16 0
BBX 16 16 0 -2
BITMAP
0000
0000
0000
0000
1FE0
0020
0020
0040
0040
0080
0140
0220
0C10
3008
0000
0000
ENDCHAR

STARTCHAR Ca5ba
ENCODING 42426
SWIDTH 1000 0
DWIDTH 16 0
BBX 16 16 0 -2
BITMAP
0000
0008
0024
0010
1FE0
0020
0020
0040
0040
0080
0140
0220
0C10
3008
0000
0000
ENDCHAR

STARTCHAR Ca5bb
ENCODING 42427
SWIDTH 1000 0
DWIDTH 16 0
BBX 16 16 0 -2
BITMAP
0000
0000
0000
0400
0400
0400
07F8
3C08
0410
0460
0400
0400
0400
03F8
0000
0000
ENDCHAR

STARTCHAR Ca5bc
ENCODING 42428
SWIDTH 1000 0
DWIDTH 16 0
BBX 16 16 0 -2
BITMAP
0000
0000
0008
0424
0410
0400
07F8
3C08
0410
0460
0400
0400
0400
03F8
0000
0000
ENDCHAR

STARTCHAR Ca5bd
ENCODING 42429
SWIDTH 1000 0
DWIDTH 16 0
BBX 16 16 0 -2
BITMAP
0000
0000
0000
0010
2010
1010
0810
0820
0020
0040
0080
0100
0600
1800
0000
0000
ENDCHAR

STARTCHAR Ca5be
ENCODING 42430
SWIDTH 1000 0
DWIDTH 16 0
BBX 16 16 0 -2
BITMAP
0000
0008
0024
0010
2000
1010
0810
0820
0020
0040
0080
0100
0600
1800
0000
0000
ENDCHAR

STARTCHAR Ca5bf
ENCODING 42431
SWIDTH 1000 0
DWIDTH 16 0
BBX 16 16 0 -2
BITMAP
0000
0000
0100
0100
03F0
0210
0410
0A10
1120
00A0
0040
0080
0300
0C00
0000
0000
ENDCHAR

STARTCHAR Ca5c0
ENCODING 42432
SWIDTH 1000 0
DWIDTH 16 0
BBX 16 16 0 -2
BITMAP
0000
0028
0114
0100
03F0
0210
0410
0A10
1120
00A0
0040
0080
0300
0C00
0000
0000
ENDCHAR

STARTCHAR Ca5c1
ENCODING 42433
SWIDTH 1000 0
DWIDTH 16 0
BBX 16 16 0 -2
BITMAP
0000
0000
0010
00E0
1F80
0080
0080
3FFC
0080
0080
0100
0100
0200
0C00
0000
0000
ENDCHAR

STARTCHAR Ca5c2
ENCODING 42434
SWIDTH 1000 0
DWIDTH 16 0
BBX 16 16 0 -2
BITMAP
0000
0008
0024
00D0
1F80
0080
0080
3FFC
0080
0080
0100
0100
0200
0C00
0000
0000
ENDCHAR

STARTCHAR Ca5c3
ENCODING 42435
SWIDTH 1000 0
DWIDTH 16 0
BBX 16 16 0 -2
BITMAP
0000
0000
0000
0000
0000
0000
0820
2420
1420
1040
0040
0080
0100
0600
1800
0000
ENDCHAR

STARTCHAR Ca5c4
ENCODING 42436
SWIDTH 1000 0
DWIDTH 16 0
BBX 16 16 0 -2
BITMAP
0000
0000
0000
0408
2208
1108
0908
0810
0010
0020
0040
0080
0300
0C00
0000
0000
ENDCHAR

STARTCHAR Ca5c5
ENCODING 42437
SWIDTH 1000 0
DWIDTH 16 0
BBX 16 16 0 -2
BITMAP
0000
0008
0024
0410
2208
1108
0908
0810
0010
0020
0040
0080
0300
0C00
0000
0000
ENDCHAR

STARTCHAR Ca5c6
ENCODING 42438
SWIDTH 1000 0
DWIDTH 16 0
BBX 16 16 0 -2
BITMAP
0000
0000
0FF0
0000
0000
0000
3FFC
0080
0080
0080
0100
0100
0200
0C00
0000
0000
ENDCHAR

STARTCHAR Ca5c7
ENCODING 42439
SWIDTH 1000 0
DWIDTH 16 0
BBX 16 16 0 -2
BITMAP
0000
0008
0FE4
0010
0008
0000
3FFC
0080
0080
0080
0100
0100
0200
0C00
0000
0000
ENDCHAR

STARTCHAR Ca5c8
ENCODING 42440
SWIDTH 1000 0
DWIDTH 16 0
BBX 16 16 0 -2
BITMAP
0000
0000
0400
0400
0400
0400
0400
0700
04C0
0420
0400
0400
0400
0400
0400
0000
ENDCHAR

STARTCHAR Ca5c9
ENCODING 42441
SWIDTH 1000 0
DWIDTH 16 0
BBX 16 16 0 -2
BITMAP
0000
0010
0448
0420
0400
0400
0400
0700
04C0
0420
0400
0400
0400
0400
0400
0000
ENDCHAR

STARTCHAR Ca5ca
ENCODING 42442
SWIDTH 1000 0
DWIDTH 16 0
BBX 16 16 0 -2
BITMAP
0000
0000
0080
0080
0080
3FFC
0080
0080
0080
0080
0100
0100
0200
0C00
0000
0000
ENDCHAR

STARTCHAR Ca5cb
ENCODING 42443
SWIDTH 1000 0
DWIDTH 16 0
BBX 16 16 0 -2
BITMAP
0000
0000
0000
0000
0000
1FE0
0000
0000
0000
0000
0000
0000
7FF8
0000
0000
0000
ENDCHAR

STARTCHAR Ca5cc
ENCODING 42444
SWIDTH 1000 0
DWIDTH 16 0
BBX 16 16 0 -2
BITMAP
0000
0000
0000
0FF0
0010
0010
0020
0620
0140
00C0
0120
0210
0C08
3000
0000
0000
ENDCHAR

STARTCHAR Ca5cd
ENCODING 42445
SWIDTH 1000 0
DWIDTH 16 0
BBX 16 16 0 -2
BITMAP
0000
0000
0200
0100
0000
1FE0
0040
0080
0100
0360
0D10
3108
0100
0100
0100
0000
ENDCHAR

STARTCHAR Ca5ce
ENCODING 42446
SWIDTH 1000 0
DWIDTH 16 0
BBX 16 16 0 -2
BITMAP
0000
0000
0000
0010
0010
0010
0020
0020
0040
0040
0080
0100
0600
1800
0000
0000
ENDCHAR

STARTCHAR Ca5cf
ENCODING 42447
SWIDTH 1000 0
DWIDTH 16 0
BBX 16 16 0 -2
BITMAP
0000
0000
0000
0000
0440
0420
0410
0810
0808
1008
1004
2004
4000
0000
0000
0000
ENDCHAR

STARTCHAR Ca5d0
ENCODING 42448
SWIDTH 1000 0
DWIDTH 16 0
BBX 16 16 0 -2
BITMAP
0000
0008
0024
0010
0440
0420
0410
0810
0808
1008
1004
2004
4000
0000
0000
0000
ENDCHAR

STARTCHAR Ca5d1
ENCODING 42449
SWIDTH 1000 0
DWIDTH 16 0
BBX 16 16 0 -2
BITMAP
0000
0018
0024
0024
0458
0420
0410
0810
0808
1008
1004
2004
4000
0000
0000
0000
ENDCHAR

STARTCHAR Ca5d2
ENCODING 42450
SWIDTH 1000 0
DWIDTH 16 0
BBX 16 16 0 -2
BITMAP
0000
0000
0000
0800
0800
0810
0860
0980
0E00
0800
0800
0800
0800
07F8
0000
0000
ENDCHAR

STARTCHAR Ca5d3
ENCODING 42451
SWIDTH 1000 0
DWIDTH 16 0
BBX 16 16 0 -2
BITMAP
0000
0008
0004
0810
0808
0810
0860
0980
0E00
0800
0800
0800
0800
07F8
0000
0000
ENDCHAR

STARTCHAR Ca5d4
ENCODING 42452
SWIDTH 1000 0
DWIDTH 16 0
BBX 16 16 0 -2
BITMAP
0000
0000
0018
0824
0824
0818
0860
0980
0E00
0800
0800
0800
0800
07F8
0000
0000
ENDCHAR

STARTCHAR Ca5d5
ENCODING 42453
SWIDTH 1000 0
DWIDTH 16 0
BBX 16 16 0 -2
BITMAP
0000
0000
0000
0000
3FF0
0010
0010
0010
0020
0020
0040
0080
0300
0C00
0000
0000
ENDCHAR

STARTCHAR Ca5d6
ENCODING 42454
SWIDTH 1000 0
DWIDTH 16 0
BBX 16 16 0 -2
BITMAP
0000
0008
0024
0010
3FF0
0010
0010
0010
0020
0020
0040
0080
0300
0C00
0000
0000
ENDCHAR

STARTCHAR Ca5d7
ENCODING 42455
SWIDTH 1000 0
DWIDTH 16 0
BBX 16 16 0 -2
BITMAP
0000
0018
0024
0024
3FF8
0010
0010
0010
0020
0020
0040
0080
0300
0C00
0000
0000
ENDCHAR

STARTCHAR Ca5d8
ENCODING 42456
SWIDTH 1000 0
DWIDTH 16 0
BBX 16 16 0 -2
BITMAP
0000
0000
0000
0000
0200
0500
0880
1040
6020
0010
0008
0004
0000
0000
0000
0000
ENDCHAR

STARTCHAR Ca5d9
ENCODING 42457
SWIDTH 1000 0
DWIDTH 16 0
BBX 16 16 0 -2
BITMAP
0000
0000
0010
0048
0220
0500
0880
1040
6020
0010
0008
0004
0000
0000
0000
0000
ENDCHAR

STARTCHAR Ca5da
ENCODING 42458
SWIDTH 1000 0
DWIDTH 16 0
BBX 16 16 0 -2
BITMAP
0000
0000
0018
0024
0224
0518
0880
1040
6020
0010
0008
0004
0000
0000
0000
0000
ENDCHAR

STARTCHAR Ca5db
ENCODING 42459
SWIDTH 1000 0
DWIDTH 16 0
BBX 16 16 0 -2
BITMAP
0000
0000
0100
0100
0100
3FF8
0100
0100
0920
0910
1110
1108
2108
0100
0000
0000
ENDCHAR

STARTCHAR Ca5dc
ENCODING 42460
SWIDTH 1000 0
DWIDTH 16 0
BBX 16 16 0 -2
BITMAP
0000
0008
0124
0110
0100
3FF8
0100
0100
0920
0910
1110
1108
2108
0100
0000
0000
ENDCHAR

STARTCHAR Ca5dd
ENCODING 42461
SWIDTH 1000 0
DWIDTH 16 0
BBX 16 16 0 -2
BITMAP
0000
0000
0118
0124
0124
3FF8
0100
0100
0920
0910
1110
1108
2108
0100
0000
0000
ENDCHAR

STARTCHAR Ca5de
ENCODING 42462
SWIDTH 1000 0
DWIDTH 16 0
BBX 16 16 0 -2
BITMAP
0000
0000
0000
0000
3FFC
0004
0008
0010
0020
0640
0180
0040
0020
0000
0000
0000
ENDCHAR

STARTCHAR Ca5df
ENCODING 42463
SWIDTH 1000 0
DWIDTH 16 0
BBX 16 16 0 -2
BITMAP
0000
0000
0E00
0180
0060
0000
0C00
0300
00C0
0000
0000
1C00
0300
00C0
0020
0000
ENDCHAR

STARTCHAR Ca5e0
ENCODING 42464
SWIDTH 1000 0
DWIDTH 16 0
BBX 16 16 0 -2
BITMAP
0000
0000
0200
0200
0200
0400
0400
0440
0820
0810
1010
11E8
7E08
0008
0000
0000
ENDCHAR

STARTCHAR Ca5e1
ENCODING 42465
SWIDTH 1000 0
DWIDTH 16 0
BBX 16 16 0 -2
BITMAP
0000
0000
0000
0010
0010
0020
0620
0140
00C0
00A0
0110
0208
0C00
3000
0000
0000
ENDCHAR

STARTCHAR Ca5e2
ENCODING 42466
SWIDTH 1000 0
DWIDTH 16 0
BBX 16 16 0 -2
BITMAP
0000
0000
0000
1FE0
0200
0200
0200
0200
7FF8
0200
0200
0200
0200
01F0
0000
0000
ENDCHAR

STARTCHAR Ca5e3
ENCODING 42467
SWIDTH 1000 0
DWIDTH 16 0
BBX 16 16 0 -2
BITMAP
0000
0000
0000
0000
0000
0800
0800
05E0
3E20
0440
0200
0200
0200
0100
0100
0000
ENDCHAR

STARTCHAR Ca5e4
ENCODING 42468
SWIDTH 1000 0
DWIDTH 16 0
BBX 16 16 0 -2
BITMAP
0000
0000
0800
0800
0400
05F8
7E08
0210
0220
0100
0100
0100
0080
0080
0080
0000
ENDCHAR

STARTCHAR Ca5e5
ENCODING 42469
SWIDTH 1000 0
DWIDTH 16 0
BBX 16 16 0 -2
BITMAP
0000
0000
0000
0000
0000
0000
0000
0F80
0080
0080
0080
0080
3FF0
0000
0000
0000
ENDCHAR

STARTCHAR Ca5e6
ENCODING 42470
SWIDTH 1000 0
DWIDTH 16 0
BBX 16 16 0 -2
BITMAP
0000
0000
0000
0000
0000
1FE0
0020
0020
0020
0020
0020
0020
7FFC
0000
0000
0000
ENDCHAR

STARTCHAR Ca5e7
ENCODING 42471
SWIDTH 1000 0
DWIDTH 16 0
BBX 16 16 0 -2
BITMAP
0000
0000
0000
0000
0000
0000
1FC0
0040
0040
0FC0
0040
0040
1FC0
0040
0000
0000
ENDCHAR

STARTCHAR Ca5e8
ENCODING 42472
SWIDTH 1000 0
DWIDTH 16 0
BBX 16 16 0 -2
BITMAP
0000
0000
0000
0000
1FF0
0010
0010
0010
0FF0
0010
0010
0010
1FF0
0010
0000
0000
ENDCHAR

STARTCHAR Ca5e9
ENCODING 42473
SWIDTH 1000 0
DWIDTH 16 0
BBX 16 16 0 -2
BITMAP
0000
0000
0000
1FE0
0000
0000
3FF0
0010
0010
0020
0020
0040
0180
0600
0000
0000
ENDCHAR

STARTCHAR Ca5ea
ENCODING 42474
SWIDTH 1000 0
DWIDTH 16 0
BBX 16 16 0 -2
BITMAP
0000
0000
0020
0820
0820
0820
0820
0820
0820
0820
0040
0040
0180
0600
0000
0000
ENDCHAR

STARTCHAR Ca5eb
ENCODING 42475
SWIDTH 1000 0
DWIDTH 16 0
BBX 16 16 0 -2
BITMAP
0000
0000
0080
0880
0880
0880
0880
0884
0884
0888
1088
1090
20A0
40C0
0000
0000
ENDCHAR

STARTCHAR Ca5ec
ENCODING 42476
SWIDTH 1000 0
DWIDTH 16 0
BBX 16 16 0 -2
BITMAP
0000
0000
0800
0800
0800
0808
0808
0810
0810
0820
0840
0980
0E00
0800
0000
0000
ENDCHAR

STARTCHAR Ca5ed
ENCODING 42477
SWIDTH 1000 0
DWIDTH 16 0
BBX 16 16 0 -2
BITMAP
0000
0000
0000
0000
3FF0
2010
2010
2010
2010
2010
2010
2010
3FF0
2010
0000
0000
ENDCHAR

STARTCHAR Ca5ee
ENCODING 42478
SWIDTH 1000 0
DWIDTH 16 0
BBX 16 16 0 -2
BITMAP
0000
0000
0000
0000
0000
0000
1FE0
1020
1020
1020
0020
0040
0040
0180
0600
0000
ENDCHAR

STARTCHAR Ca5ef
ENCODING 42479
SWIDTH 1000 0
DWIDTH 16 0
BBX 16 16 0 -2
BITMAP
0000
0000
0000
1FF0
1010
1010
1010
1010
1010
0020
0020
0040
0180
0600
0000
0000
ENDCHAR

STARTCHAR Ca5f0
ENCODING 42480
SWIDTH 1000 0
DWIDTH 16 0
BBX 16 16 0 -2
BITMAP
0000
0000
0080
0080
0080
3FF0
0880
0880
0880
0880
7FF8
0080
0080
0080
0080
0000
ENDCHAR

STARTCHAR Ca5f1
ENCODING 42481
SWIDTH 1000 0
DWIDTH 16 0
BBX 16 16 0 -2
BITMAP
0000
0000
0000
0000
1FF0
0010
0020
0040
0180
0100
0100
0100
7FFC
0000
0000
0000
ENDCHAR

STARTCHAR Ca5f2
ENCODING 42482
SWIDTH 1000 0
DWIDTH 16 0
BBX 16 16 0 -2
BITMAP
0000
0000
0000
1FF0
0010
0010
0010
0FF0
0010
0020
0020
0040
0180
0600
0000
0000
ENDCHAR

STARTCHAR Ca5f3
ENCODING 42483
SWIDTH 1000 0
DWIDTH 16 0
BBX 16 16 0 -2
BITMAP
0000
0000
0000
1000
0808
0408
0008
0010
0010
0020
0040
0080
0300
0C00
0000
0000
ENDCHAR

STARTCHAR Ca5f4
ENCODING 42484
SWIDTH 1000 0
DWIDTH 16 0
BBX 16 16 0 -2
BITMAP
0000
0008
0124
0110
0100
1FF8
1008
1008
1008
1008
0010
0010
0020
00C0
0300
0000
ENDCHAR

STARTCHAR Ca5f5
ENCODING 42485
SWIDTH 1000 0
DWIDTH 16 0
BBX 16 16 0 -2
BITMAP
0000
0000
0000
0000
0000
0200
0200
1FE0
0220
0220
0220
0420
04A0
0840
1000
0000
ENDCHAR

STARTCHAR Ca5f6
ENCODING 42486
SWIDTH 1000 0
DWIDTH 16 0
BBX 16 16 0 -2
BITMAP
0000
0000
0000
0000
0000
0400
0400
0800
0FF0
1080
2080
0100
0100
0200
0C00
0000
ENDCHAR

STARTCHAR Ca6a1
ENCODING 42657
SWIDTH 1000 0
DWIDTH 16 0
BBX 16 16 0 -2
BITMAP
0000
0000
0000
0100
0280
0280
0440
0440
0820
0820
1FF0
1010
2008
2008
0000
0000
ENDCHAR

STARTCHAR Ca6a2
ENCODING 42658
SWIDTH 1000 0
DWIDTH 16 0
BBX 16 16 0 -2
BITMAP
0000
0000
0000
1FC0
1020
1010
1010
1020
1FC0
1030
1008
1008
1010
1FE0
0000
0000
ENDCHAR

STARTCHAR Ca6a3
ENCODING 42659
SWIDTH 1000 0
DWIDTH 16 0
BBX 16 16 0 -2
BITMAP
0000
0000
0000
0FF0
0800
0800
0800
0800
0800
0800
0800
0800
0800
0800
0000
0000
ENDCHAR

STARTCHAR Ca6a4
ENCODING 42660
SWIDTH 1000 0
DWIDTH 16 0
BBX 16 16 0 -2
BITMAP
0000
0000
0000
0100
0280
0280
0440
0440
0820
0820
1010
1010
2008
3FF8
0000
0000
ENDCHAR

STARTCHAR Ca6a5
ENCODING 42661
SWIDTH 1000 0
DWIDTH 16 0
BBX 16 16 0 -2
BITMAP
0000
0000
0000
1FF0
1000
1000
1000
1000
1FE0
1000
1000
1000
1000
1FF0
0000
0000
ENDCHAR

STARTCHAR Ca6a6
ENCODING 42662
SWIDTH 1000 0
DWIDTH 16 0
BBX 16 16 0 -2
BITMAP
0000
0000
0000
0FE0
0020
0040
0080
0080
0100
0200
0200
0400
0800
1FF0
0000
0000
ENDCHAR

STARTCHAR Ca6a7
ENCODING 42663
SWIDTH 1000 0
DWIDTH 16 0
BBX 16 16 0 -2
BITMAP
0000
0000
0000
1010
1010
1010
1010
1010
1FF0
1010
1010
1010
1010
1010
0000
0000
ENDCHAR

STARTCHAR Ca6a8
ENCODING 42664
SWIDTH 1000 0
DWIDTH 16 0
BBX 16 16 0 -2
BITMAP
0000
0000
0000
0780
1860
2010
2010
4008
4FC8
4008
2010
2010
1860
0780
0000
0000
ENDCHAR

STARTCHAR Ca6a9
ENCODING 42665
SWIDTH 1000 0
DWIDTH 16 0
BBX 16 16 0 -2
BITMAP
0000
0000
0000
0100
0100
0100
0100
0100
0100
0100
0100
0100
0100
0100
0000
0000
ENDCHAR

STARTCHAR Ca6aa
ENCODING 42666
SWIDTH 1000 0
DWIDTH 16 0
BBX 16 16 0 -2
BITMAP
0000
0000
0000
1020
1040
1080
1100
1200
1500
1880
1080
1040
1020
1010
0000
0000
ENDCHAR

STARTCHAR Ca6ab
ENCODING 42667
SWIDTH 1000 0
DWIDTH 16 0
BBX 16 16 0 -2
BITMAP
0000
0000
0000
0100
0280
0280
0440
0440
0820
0820
1010
1010
2008
2008
0000
0000
ENDCHAR

STARTCHAR Ca6ac
ENCODING 42668
SWIDTH 1000 0
DWIDTH 16 0
BBX 16 16 0 -2
BITMAP
0000
0000
0000
3018
2828
2828
2448
2448
2448
2288
2288
2108
2108
2008
0000
0000
ENDCHAR

STARTCHAR Ca6ad
ENCODING 42669
SWIDTH 1000 0
DWIDTH 16 0
BBX 16 16 0 -2
BITMAP
0000
0000
0000
1810
1410
1410
1210
1110
1110
1090
1050
1050
1030
1010
0000
0000
ENDCHAR

STARTCHAR Ca6ae
ENCODING 42670
SWIDTH 1000 0
DWIDTH 16 0
BBX 16 16 0 -2
BITMAP
0000
0000
0000
1FF0
0000
0000
0000
0000
0FE0
0000
0000
0000
0000
1FF0
0000
0000
ENDCHAR

STARTCHAR Ca6af
ENCODING 42671
SWIDTH 1000 0
DWIDTH 16 0
BBX 16 16 0 -2
BITMAP
0000
0000
0000
0780
1860
2010
2010
4008
4008
4008
2010
2010
1860
0780
0000
0000
ENDCHAR

STARTCHAR Ca6b0
ENCODING 42672
SWIDTH 1000 0
DWIDTH 16 0
BBX 16 16 0 -2
BITMAP
0000
0000
0000
1FE0
1020
1020
1020
1020
1020
1020
1020
1020
1020
1020
0000
0000
ENDCHAR

STARTCHAR Ca6b1
ENCODING 42673
SWIDTH 1000 0
DWIDTH 16 0
BBX 16 16 0 -2
BITMAP
0000
0000
0000
0FC0
0820
0810
0810
0810
0820
0FC0
0800
0800
0800
0800
0000
0000
ENDCHAR

STARTCHAR Ca6b2
ENCODING 42674
SWIDTH 1000 0
DWIDTH 16 0
BBX 16 16 0 -2
BITMAP
0000
0000
0000
1FF0
1000
0800
0400
0200
0100
0200
0400
0800
1000
1FF0
0000
0000
ENDCHAR

STARTCHAR Ca6b3
ENCODING 42675
SWIDTH 1000 0
DWIDTH 16 0
BBX 16 16 0 -2
BITMAP
0000
0000
0000
3FF8
0100
0100
0100
0100
0100
0100
0100
0100
0100
0100
0000
0000
ENDCHAR

STARTCHAR Ca6b4
ENCODING 42676
SWIDTH 1000 0
DWIDTH 16 0
BBX 16 16 0 -2
BITMAP
0000
0000
0000
1010
1010
0820
0440
0440
0280
0100
0100
0100
0100
0100
0000
0000
ENDCHAR

STARTCHAR Ca6b5
ENCODING 42677
SWIDTH 1000 0
DWIDTH 16 0
BBX 16 16 0 -2
BITMAP
0000
0000
0000
0100
0100
0FE0
1110
2108
2108
2108
1110
0FE0
0100
0100
0000
0000
ENDCHAR

STARTCHAR Ca6b6
ENCODING 42678
SWIDTH 1000 0
DWIDTH 16 0
BBX 16 16 0 -2
BITMAP
0000
0000
0000
1010
0820
0440
0440
0280
0100
0280
0440
0820
1010
2008
0000
0000
ENDCHAR

STARTCHAR Ca6b7
ENCODING 42679
SWIDTH 1000 0
DWIDTH 16 0
BBX 16 16 0 -2
BITMAP
0000
0000
0000
1110
1110
1110
1110
1110
1110
0920
07C0
0100
0100
0100
0000
0000
ENDCHAR

STARTCHAR Ca6b8
ENCODING 42680
SWIDTH 1000 0
DWIDTH 16 0
BBX 16 16 0 -2
BITMAP
0000
0000
0000
07C0
0820
1010
1010
1010
1010
1010
0820
0440
0280
1EF0
0000
0000
ENDCHAR

STARTCHAR Ca6b9
ENCODING 42681
SWIDTH 1000 0
DWIDTH 16 0
BBX 16 16 0 -2
BITMAP
0000
0000
0000
0000
0000
0000
0000
0000
0000
0000
0000
0000
0000
0000
0000
0000
ENDCHAR

STARTCHAR Ca6ba
ENCODING 42682
SWIDTH 1000 0
DWIDTH 16 0
BBX 16 16 0 -2
BITMAP
0000
0000
0000
0000
0000
0000
0000
0000
0000
0000
0000
0000
0000
0000
0000
0000
ENDCHAR

STARTCHAR Ca6bb
ENCODING 42683
SWIDTH 1000 0
DWIDTH 16 0
BBX 16 16 0 -2
BITMAP
0000
0000
0000
0000
0000
0000
0000
0000
0000
0000
0000
0000
0000
0000
0000
0000
ENDCHAR

STARTCHAR Ca6bc
ENCODING 42684
SWIDTH 1000 0
DWIDTH 16 0
BBX 16 16 0 -2
BITMAP
0000
0000
0000
0000
0000
0000
0000
0000
0000
0000
0000
0000
0000
0000
0000
0000
ENDCHAR

STARTCHAR Ca6bd
ENCODING 42685
SWIDTH 1000 0
DWIDTH 16 0
BBX 16 16 0 -2
BITMAP
0000
0000
0000
0000
0000
0000
0000
0000
0000
0000
0000
0000
0000
0000
0000
0000
ENDCHAR

STARTCHAR Ca6be
ENCODING 42686
SWIDTH 1000 0
DWIDTH 16 0
BBX 16 16 0 -2
BITMAP
0000
0000
0000
0000
0000
0000
0000
0000
0000
0000
0000
0000
0000
0000
0000
0000
ENDCHAR

STARTCHAR Ca6bf
ENCODING 42687
SWIDTH 1000 0
DWIDTH 16 0
BBX 16 16 0 -2
BITMAP
0000
0000
0000
0000
0000
0000
0000
0000
0000
0000
0000
0000
0000
0000
0000
0000
ENDCHAR

STARTCHAR Ca6c0
ENCODING 42688
SWIDTH 1000 0
DWIDTH 16 0
BBX 16 16 0 -2
BITMAP
0000
0000
0000
0000
0000
0000
0000
0000
0000
0000
0000
0000
0000
0000
0000
0000
ENDCHAR

STARTCHAR Ca6c1
ENCODING 42689
SWIDTH 1000 0
DWIDTH 16 0
BBX 16 16 0 -2
BITMAP
0000
0000
0000
0000
0000
0000
0720
08A0
08C0
1080
1080
1080
11A0
0E40
0000
0000
ENDCHAR

STARTCHAR Ca6c2
ENCODING 42690
SWIDTH 1000 0
DWIDTH 16 0
BBX 16 16 0 -2
BITMAP
0000
0000
0000
01C0
0220
0220
0420
0440
0580
0840
0840
0840
1480
1300
1000
0000
ENDCHAR

STARTCHAR Ca6c3
ENCODING 42691
SWIDTH 1000 0
DWIDTH 16 0
BBX 16 16 0 -2
BITMAP
0000
0000
0000
0000
0000
0000
0C20
1240
0280
0300
0200
0200
0400
0400
0000
0000
ENDCHAR

STARTCHAR Ca6c4
ENCODING 42692
SWIDTH 1000 0
DWIDTH 16 0
BBX 16 16 0 -2
BITMAP
0000
0000
0000
0380
0440
0220
0100
0280
0440
0440
0840
0880
0880
0700
0000
0000
ENDCHAR

STARTCHAR Ca6c5
ENCODING 42693
SWIDTH 1000 0
DWIDTH 16 0
BBX 16 16 0 -2
BITMAP
0000
0000
0000
0000
0000
0000
0380
0440
0400
0380
0400
0800
0840
0780
0000
0000
ENDCHAR

STARTCHAR Ca6c6
ENCODING 42694
SWIDTH 1000 0
DWIDTH 16 0
BBX 16 16 0 -2
BITMAP
0000
0000
0000
0420
08C0
0500
0200
0400
0800
0800
0600
0180
0040
0440
0380
0000
ENDCHAR

STARTCHAR Ca6c7
ENCODING 42695
SWIDTH 1000 0
DWIDTH 16 0
BBX 16 16 0 -2
BITMAP
0000
0000
0000
0000
0000
0000
0CC0
1320
0220
0420
0440
0440
0840
0880
0080
0000
ENDCHAR

STARTCHAR Ca6c8
ENCODING 42696
SWIDTH 1000 0
DWIDTH 16 0
BBX 16 16 0 -2
BITMAP
0000
0000
0000
01C0
0220
0420
0420
0820
0FE0
0820
0840
0840
0880
0700
0000
0000
ENDCHAR

STARTCHAR Ca6c9
ENCODING 42697
SWIDTH 1000 0
DWIDTH 16 0
BBX 16 16 0 -2
BITMAP
0000
0000
0000
0000
0000
0000
0100
0100
0200
0200
0200
0420
0440
0380
0000
0000
ENDCHAR

STARTCHAR Ca6ca
ENCODING 42698
SWIDTH 1000 0
DWIDTH 16 0
BBX 16 16 0 -2
BITMAP
0000
0000
0000
0000
0000
0000
0420
04C0
0900
0A00
0C00
0A20
1240
1180
0000
0000
ENDCHAR

STARTCHAR Ca6cb
ENCODING 42699
SWIDTH 1000 0
DWIDTH 16 0
BBX 16 16 0 -2
BITMAP
0000
0000
0000
0300
0480
0080
0080
0080
0140
0240
0240
0420
0820
1010
0000
0000
ENDCHAR

STARTCHAR Ca6cc
ENCODING 42700
SWIDTH 1000 0
DWIDTH 16 0
BBX 16 16 0 -2
BITMAP
0000
0000
0000
0000
0000
0000
0420
0420
0420
0840
0840
0840
1490
1360
1000
0000
ENDCHAR

STARTCHAR Ca6cd
ENCODING 42701
SWIDTH 1000 0
DWIDTH 16 0
BBX 16 16 0 -2
BITMAP
0000
0000
0000
0000
0000
0000
1820
0420
0420
0440
0440
0480
0700
0C00
0000
0000
ENDCHAR

STARTCHAR Ca6ce
ENCODING 42702
SWIDTH 1000 0
DWIDTH 16 0
BBX 16 16 0 -2
BITMAP
0000
0000
0000
0080
0340
0400
0200
0180
0600
0800
0800
0700
0080
0880
0700
0000
ENDCHAR

STARTCHAR Ca6cf
ENCODING 42703
SWIDTH 1000 0
DWIDTH 16 0
BBX 16 16 0 -2
BITMAP
0000
0000
0000
0000
0000
0000
01C0
0220
0420
0420
0840
0840
0880
0700
0000
0000
ENDCHAR

STARTCHAR Ca6d0
ENCODING 42704
SWIDTH 1000 0
DWIDTH 16 0
BBX 16 16 0 -2
BITMAP
0000
0000
0000
0000
0000
0000
0010
0FE0
1280
0280
0480
0510
0920
08C0
0000
0000
ENDCHAR

STARTCHAR Ca6d1
ENCODING 42705
SWIDTH 1000 0
DWIDTH 16 0
BBX 16 16 0 -2
BITMAP
0000
0000
0000
0000
0000
0000
01C0
0220
0420
0420
0840
0840
1480
1300
1000
0000
ENDCHAR

STARTCHAR Ca6d2
ENCODING 42706
SWIDTH 1000 0
DWIDTH 16 0
BBX 16 16 0 -2
BITMAP
0000
0000
0000
0000
0000
0000
01F0
0240
0420
0420
0840
0840
0880
0700
0000
0000
ENDCHAR

STARTCHAR Ca6d3
ENCODING 42707
SWIDTH 1000 0
DWIDTH 16 0
BBX 16 16 0 -2
BITMAP
0000
0000
0000
0000
0000
0000
0FE0
1100
0200
0200
0400
0420
0440
0380
0000
0000
ENDCHAR

STARTCHAR Ca6d4
ENCODING 42708
SWIDTH 1000 0
DWIDTH 16 0
BBX 16 16 0 -2
BITMAP
0000
0000
0000
0000
0000
0000
0840
1420
0420
0420
0840
0840
0880
0700
0000
0000
ENDCHAR

STARTCHAR Ca6d5
ENCODING 42709
SWIDTH 1000 0
DWIDTH 16 0
BBX 16 16 0 -2
BITMAP
0000
0000
0000
0080
0080
0080
0380
0540
0920
0920
0540
0380
0200
0200
0200
0000
ENDCHAR

STARTCHAR Ca6d6
ENCODING 42710
SWIDTH 1000 0
DWIDTH 16 0
BBX 16 16 0 -2
BITMAP
0000
0000
0000
0000
0000
0610
0920
0140
0180
0100
0280
0280
0480
0890
1060
0000
ENDCHAR

STARTCHAR Ca6d7
ENCODING 42711
SWIDTH 1000 0
DWIDTH 16 0
BBX 16 16 0 -2
BITMAP
0000
0000
0000
0080
0080
02A0
0490
0510
0920
0920
0540
0380
0200
0200
0200
0000
ENDCHAR

STARTCHAR Ca6d8
ENCODING 42712
SWIDTH 1000 0
DWIDTH 16 0
BBX 16 16 0 -2
BITMAP
0000
0000
0000
0000
0000
0000
0440
0820
1120
1110
2210
2210
2520
18C0
0000
0000
ENDCHAR

STARTCHAR Ca7a1
ENCODING 42913
SWIDTH 1000 0
DWIDTH 16 0
BBX 16 16 0 -2
BITMAP
0000
0000
0000
0100
0280
0280
0440
0440
0820
0820
1FF0
1010
2008
2008
0000
0000
ENDCHAR

STARTCHAR Ca7a2
ENCODING 42914
SWIDTH 1000 0
DWIDTH 16 0
BBX 16 16 0 -2
BITMAP
0000
0000
0000
1FF0
1000
1000
1000
1000
1FE0
1010
1008
1008
1010
1FE0
0000
0000
ENDCHAR

STARTCHAR Ca7a3
ENCODING 42915
SWIDTH 1000 0
DWIDTH 16 0
BBX 16 16 0 -2
BITMAP
0000
0000
0000
1FC0
1020
1010
1010
1020
1FC0
1030
1008
1008
1010
1FE0
0000
0000
ENDCHAR

STARTCHAR Ca7a4
ENCODING 42916
SWIDTH 1000 0
DWIDTH 16 0
BBX 16 16 0 -2
BITMAP
0000
0000
0000
0FF0
0800
0800
0800
0800
0800
0800
0800
0800
0800
0800
0000
0000
ENDCHAR

STARTCHAR Ca7a5
ENCODING 42917
SWIDTH 1000 0
DWIDTH 16 0
BBX 16 16 0 -2
BITMAP
0000
0000
0000
03E0
0220
0220
0220
0420
0420
0420
0820
0820
1020
3FF0
2010
0000
ENDCHAR

STARTCHAR Ca7a6
ENCODING 42918
SWIDTH 1000 0
DWIDTH 16 0
BBX 16 16 0 -2
BITMAP
0000
0000
0000
1FF0
1000
1000
1000
1000
1FE0
1000
1000
1000
1000
1FF0
0000
0000
ENDCHAR

STARTCHAR Ca7a7
ENCODING 42919
SWIDTH 1000 0
DWIDTH 16 0
BBX 16 16 0 -2
BITMAP
0000
0000
0440
1FF0
1000
1000
1000
1000
1FE0
1000
1000
1000
1000
1FF0
0000
0000
ENDCHAR

STARTCHAR Ca7a8
ENCODING 42920
SWIDTH 1000 0
DWIDTH 16 0
BBX 16 16 0 -2
BITMAP
0000
0000
0000
1110
1110
1110
0920
0920
07C0
0920
0920
1110
1110
2108
0000
0000
ENDCHAR

STARTCHAR Ca7a9
ENCODING 42921
SWIDTH 1000 0
DWIDTH 16 0
BBX 16 16 0 -2
BITMAP
0000
0000
0000
0780
0840
1020
0020
0040
0780
0060
0010
1010
0820
07C0
0000
0000
ENDCHAR

STARTCHAR Ca7aa
ENCODING 42922
SWIDTH 1000 0
DWIDTH 16 0
BBX 16 16 0 -2
BITMAP
0000
0000
0000
1020
1020
1060
10A0
1120
1220
1420
1820
1020
1020
1020
0000
0000
ENDCHAR

STARTCHAR Ca7ab
ENCODING 42923
SWIDTH 1000 0
DWIDTH 16 0
BBX 16 16 0 -2
BITMAP
0000
0480
0300
1020
1020
1060
10A0
1120
1220
1420
1820
1020
1020
1020
0000
0000
ENDCHAR

STARTCHAR Ca7ac
ENCODING 42924
SWIDTH 1000 0
DWIDTH 16 0
BBX 16 16 0 -2
BITMAP
0000
0000
0000
1020
1020
1040
1080
1100
1E00
1100
1080
1040
1020
1010
0000
0000
ENDCHAR

STARTCHAR Ca7ad
ENCODING 42925
SWIDTH 1000 0
DWIDTH 16 0
BBX 16 16 0 -2
BITMAP
0000
0000
0000
01F0
0110
0110
0110
0110
0110
0110
0210
2210
2410
1810
0000
0000
ENDCHAR

STARTCHAR Ca7ae
ENCODING 42926
SWIDTH 1000 0
DWIDTH 16 0
BBX 16 16 0 -2
BITMAP
0000
0000
0000
3018
2828
2828
2448
2448
2448
2288
2288
2108
2108
2008
0000
0000
ENDCHAR

STARTCHAR Ca7af
ENCODING 42927
SWIDTH 1000 0
DWIDTH 16 0
BBX 16 16 0 -2
BITMAP
0000
0000
0000
1010
1010
1010
1010
1010
1FF0
1010
1010
1010
1010
1010
0000
0000
ENDCHAR

STARTCHAR Ca7b0
ENCODING 42928
SWIDTH 1000 0
DWIDTH 16 0
BBX 16 16 0 -2
BITMAP
0000
0000
0000
0780
1860
2010
2010
4008
4008
4008
2010
2010
1860
0780
0000
0000
ENDCHAR

STARTCHAR Ca7b1
ENCODING 42929
SWIDTH 1000 0
DWIDTH 16 0
BBX 16 16 0 -2
BITMAP
0000
0000
0000
1FE0
1020
1020
1020
1020
1020
1020
1020
1020
1020
1020
0000
0000
ENDCHAR

STARTCHAR Ca7b2
ENCODING 42930
SWIDTH 1000 0
DWIDTH 16 0
BBX 16 16 0 -2
BITMAP
0000
0000
0000
0FC0
0820
0810
0810
0810
0820
0FC0
0800
0800
0800
0800
0000
0000
ENDCHAR

STARTCHAR Ca7b3
ENCODING 42931
SWIDTH 1000 0
DWIDTH 16 0
BBX 16 16 0 -2
BITMAP
0000
0000
0000
03C0
0C30
1008
1008
2000
2000
2000
1008
1008
0C30
03C0
0000
0000
ENDCHAR

STARTCHAR Ca7b4
ENCODING 42932
SWIDTH 1000 0
DWIDTH 16 0
BBX 16 16 0 -2
BITMAP
0000
0000
0000
3FF8
0100
0100
0100
0100
0100
0100
0100
0100
0100
0100
0000
0000
ENDCHAR

STARTCHAR Ca7b5
ENCODING 42933
SWIDTH 1000 0
DWIDTH 16 0
BBX 16 16 0 -2
BITMAP
0000
0000
0000
0820
0820
0440
0440
0440
0280
0280
0100
0100
0200
1C00
0000
0000
ENDCHAR

STARTCHAR Ca7b6
ENCODING 42934
SWIDTH 1000 0
DWIDTH 16 0
BBX 16 16 0 -2
BITMAP
0000
0000
0000
0100
0100
0FE0
1110
2108
2108
2108
1110
0FE0
0100
0100
0000
0000
ENDCHAR

STARTCHAR Ca7b7
ENCODING 42935
SWIDTH 1000 0
DWIDTH 16 0
BBX 16 16 0 -2
BITMAP
0000
0000
0000
1010
0820
0440
0440
0280
0100
0280
0440
0820
1010
2008
0000
0000
ENDCHAR

STARTCHAR Ca7b8
ENCODING 42936
SWIDTH 1000 0
DWIDTH 16 0
BBX 16 16 0 -2
BITMAP
0000
0000
0000
0820
0820
0820
0820
0820
0820
0820
0820
0820
0820
0FF0
0010
0000
ENDCHAR

STARTCHAR Ca7b9
ENCODING 42937
SWIDTH 1000 0
DWIDTH 16 0
BBX 16 16 0 -2
BITMAP
0000
0000
0000
0820
0820
0820
0820
0820
0820
0460
03A0
0020
0020
0020
0000
0000
ENDCHAR

STARTCHAR Ca7ba
ENCODING 42938
SWIDTH 1000 0
DWIDTH 16 0
BBX 16 16 0 -2
BITMAP
0000
0000
0000
1110
1110
1110
1110
1110
1110
1110
1110
1110
1110
1FF0
0000
0000
ENDCHAR

STARTCHAR Ca7bb
ENCODING 42939
SWIDTH 1000 0
DWIDTH 16 0
BBX 16 16 0 -2
BITMAP
0000
0000
0000
1110
1110
1110
1110
1110
1110
1110
1110
1110
1110
1FF8
0008
0000
ENDCHAR

STARTCHAR Ca7bc
ENCODING 42940
SWIDTH 1000 0
DWIDTH 16 0
BBX 16 16 0 -2
BITMAP
0000
0000
0000
3C00
0400
0400
0400
0400
07E0
0410
0408
0408
0410
07E0
0000
0000
ENDCHAR

STARTCHAR Ca7bd
ENCODING 42941
SWIDTH 1000 0
DWIDTH 16 0
BBX 16 16 0 -2
BITMAP
0000
0000
0000
1010
1010
1010
1010
1010
1F10
1090
1050
1050
1090
1F10
0000
0000
ENDCHAR

STARTCHAR Ca7be
ENCODING 42942
SWIDTH 1000 0
DWIDTH 16 0
BBX 16 16 0 -2
BITMAP
0000
0000
0000
0800
0800
0800
0800
0800
0FC0
0820
0810
0810
0820
0FC0
0000
0000
ENDCHAR

STARTCHAR Ca7bf
ENCODING 42943
SWIDTH 1000 0
DWIDTH 16 0
BBX 16 16 0 -2
BITMAP
0000
0000
0000
07C0
0820
1010
0010
0650
0990
0010
0010
1010
0820
07C0
0000
0000
ENDCHAR

STARTCHAR Ca7c0
ENCODING 42944
SWIDTH 1000 0
DWIDTH 16 0
BBX 16 16 0 -2
BITMAP
0000
0000
0000
21C0
2220
2220
2410
2410
3C10
2410
2410
2220
2220
21C0
0000
0000
ENDCHAR

STARTCHAR Ca7c1
ENCODING 42945
SWIDTH 1000 0
DWIDTH 16 0
BBX 16 16 0 -2
BITMAP
0000
0000
0000
03F0
0410
0810
0810
0410
03F0
0110
0210
0210
0410
1810
0000
0000
ENDCHAR

STARTCHAR Ca7c2
ENCODING 42946
SWIDTH 1000 0
DWIDTH 16 0
BBX 16 16 0 -2
BITMAP
0000
0000
0000
0000
0000
0000
0000
0000
0000
0000
0000
0000
0000
0000
0000
0000
ENDCHAR

STARTCHAR Ca7c3
ENCODING 42947
SWIDTH 1000 0
DWIDTH 16 0
BBX 16 16 0 -2
BITMAP
0000
0000
0000
0000
0000
0000
0000
0000
0000
0000
0000
0000
0000
0000
0000
0000
ENDCHAR

STARTCHAR Ca7c4
ENCODING 42948
SWIDTH 1000 0
DWIDTH 16 0
BBX 16 16 0 -2
BITMAP
0000
0000
0000
0000
0000
0000
0000
0000
0000
0000
0000
0000
0000
0000
0000
0000
ENDCHAR

STARTCHAR Ca7c5
ENCODING 42949
SWIDTH 1000 0
DWIDTH 16 0
BBX 16 16 0 -2
BITMAP
0000
0000
0000
0000
0000
0000
0000
0000
0000
0000
0000
0000
0000
0000
0000
0000
ENDCHAR

STARTCHAR Ca7c6
ENCODING 42950
SWIDTH 1000 0
DWIDTH 16 0
BBX 16 16 0 -2
BITMAP
0000
0000
0000
0000
0000
0000
0000
0000
0000
0000
0000
0000
0000
0000
0000
0000
ENDCHAR

STARTCHAR Ca7c7
ENCODING 42951
SWIDTH 1000 0
DWIDTH 16 0
BBX 16 16 0 -2
BITMAP
0000
0000
0000
0000
0000
0000
0000
0000
0000
0000
0000
0000
0000
0000
0000
0000
ENDCHAR

STARTCHAR Ca7c8
ENCODING 42952
SWIDTH 1000 0
DWIDTH 16 0
BBX 16 16 0 -2
BITMAP
0000
0000
0000
0000
0000
0000
0000
0000
0000
0000
0000
0000
0000
0000
0000
0000
ENDCHAR

STARTCHAR Ca7c9
ENCODING 42953
SWIDTH 1000 0
DWIDTH 16 0
BBX 16 16 0 -2
BITMAP
0000
0000
0000
0000
0000
0000
0000
0000
0000
0000
0000
0000
0000
0000
0000
0000
ENDCHAR

STARTCHAR Ca7ca
ENCODING 42954
SWIDTH 1000 0
DWIDTH 16 0
BBX 16 16 0 -2
BITMAP
0000
0000
0000
0000
0000
0000
0000
0000
0000
0000
0000
0000
0000
0000
0000
0000
ENDCHAR

STARTCHAR Ca7cb
ENCODING 42955
SWIDTH 1000 0
DWIDTH 16 0
BBX 16 16 0 -2
BITMAP
0000
0000
0000
0000
0000
0000
0000
0000
0000
0000
0000
0000
0000
0000
0000
0000
ENDCHAR

STARTCHAR Ca7cc
ENCODING 42956
SWIDTH 1000 0
DWIDTH 16 0
BBX 16 16 0 -2
BITMAP
0000
0000
0000
0000
0000
0000
0000
0000
0000
0000
0000
0000
0000
0000
0000
0000
ENDCHAR

STARTCHAR Ca7cd
ENCODING 42957
SWIDTH 1000 0
DWIDTH 16 0
BBX 16 16 0 -2
BITMAP
0000
0000
0000
0000
0000
0000
0000
0000
0000
0000
0000
0000
0000
0000
0000
0000
ENDCHAR

STARTCHAR Ca7ce
ENCODING 42958
SWIDTH 1000 0
DWIDTH 16 0
BBX 16 16 0 -2
BITMAP
0000
0000
0000
0000
0000
0000
0000
0000
0000
0000
0000
0000
0000
0000
0000
0000
ENDCHAR

STARTCHAR Ca7cf
ENCODING 42959
SWIDTH 1000 0
DWIDTH 16 0
BBX 16 16 0 -2
BITMAP
0000
0000
0000
0000
0000
0000
0000
0000
0000
0000
0000
0000
0000
0000
0000
0000
ENDCHAR

STARTCHAR Ca7d0
ENCODING 42960
SWIDTH 1000 0
DWIDTH 16 0
BBX 16 16 0 -2
BITMAP
0000
0000
0000
0000
0000
0000
0000
0000
0000
0000
0000
0000
0000
0000
0000
0000
ENDCHAR

STARTCHAR Ca7d1
ENCODING 42961
SWIDTH 1000 0
DWIDTH 16 0
BBX 16 16 0 -2
BITMAP
0000
0000
0000
0000
0000
0000
0780
0840
0040
07C0
0840
1040
10C0
0F30
0000
0000
ENDCHAR

STARTCHAR Ca7d2
ENCODING 42962
SWIDTH 1000 0
DWIDTH 16 0
BBX 16 16 0 -2
BITMAP
0000
0000
0000
0060
0380
0400
0800
0B80
0C40
0820
0820
0820
0440
0380
0000
0000
ENDCHAR

STARTCHAR Ca7d3
ENCODING 42963
SWIDTH 1000 0
DWIDTH 16 0
BBX 16 16 0 -2
BITMAP
0000
0000
0000
0000
0000
0000
0F80
0840
0840
0F80
0840
0840
0840
0F80
0000
0000
ENDCHAR

STARTCHAR Ca7d4
ENCODING 42964
SWIDTH 1000 0
DWIDTH 16 0
BBX 16 16 0 -2
BITMAP
0000
0000
0000
0000
0000
0000
0FC0
0800
0800
0800
0800
0800
0800
0800
0000
0000
ENDCHAR

STARTCHAR Ca7d5
ENCODING 42965
SWIDTH 1000 0
DWIDTH 16 0
BBX 16 16 0 -2
BITMAP
0000
0000
0000
0000
0000
0000
03C0
0240
0240
0240
0440
0440
0840
1FE0
1020
0000
ENDCHAR

STARTCHAR Ca7d6
ENCODING 42966
SWIDTH 1000 0
DWIDTH 16 0
BBX 16 16 0 -2
BITMAP
0000
0000
0000
0000
0000
0000
0780
0840
1020
1FE0
1000
1000
0820
07C0
0000
0000
ENDCHAR

STARTCHAR Ca7d7
ENCODING 42967
SWIDTH 1000 0
DWIDTH 16 0
BBX 16 16 0 -2
BITMAP
0000
0000
0000
0000
0480
0000
0780
0840
1020
1FE0
1000
1000
0820
07C0
0000
0000
ENDCHAR

STARTCHAR Ca7d8
ENCODING 42968
SWIDTH 1000 0
DWIDTH 16 0
BBX 16 16 0 -2
BITMAP
0000
0000
0000
0000
0000
0000
0920
0920
0920
07C0
0540
0920
0920
1110
0000
0000
ENDCHAR

STARTCHAR Ca7d9
ENCODING 42969
SWIDTH 1000 0
DWIDTH 16 0
BBX 16 16 0 -2
BITMAP
0000
0000
0000
0000
0000
0000
0780
0840
0040
0780
0040
0040
0840
0780
0000
0000
ENDCHAR

STARTCHAR Ca7da
ENCODING 42970
SWIDTH 1000 0
DWIDTH 16 0
BBX 16 16 0 -2
BITMAP
0000
0000
0000
0000
0000
0000
0820
0820
0860
08A0
0B20
0C20
0820
0820
0000
0000
ENDCHAR

STARTCHAR Ca7db
ENCODING 42971
SWIDTH 1000 0
DWIDTH 16 0
BBX 16 16 0 -2
BITMAP
0000
0000
0000
0000
0280
0100
0820
0820
0860
08A0
0B20
0C20
0820
0820
0000
0000
ENDCHAR

STARTCHAR Ca7dc
ENCODING 42972
SWIDTH 1000 0
DWIDTH 16 0
BBX 16 16 0 -2
BITMAP
0000
0000
0000
0000
0000
0000
0880
0880
0900
0E00
0900
0880
0880
0840
0000
0000
ENDCHAR

STARTCHAR Ca7dd
ENCODING 42973
SWIDTH 1000 0
DWIDTH 16 0
BBX 16 16 0 -2
BITMAP
0000
0000
0000
0000
0000
0000
03E0
0220
0220
0220
0220
0420
2420
1820
0000
0000
ENDCHAR

STARTCHAR Ca7de
ENCODING 42974
SWIDTH 1000 0
DWIDTH 16 0
BBX 16 16 0 -2
BITMAP
0000
0000
0000
0000
0000
0000
1010
1830
1450
1450
1290
1110
1110
1010
0000
0000
ENDCHAR

STARTCHAR Ca7df
ENCODING 42975
SWIDTH 1000 0
DWIDTH 16 0
BBX 16 16 0 -2
BITMAP
0000
0000
0000
0000
0000
0000
0820
0820
0820
0FE0
0820
0820
0820
0820
0000
0000
ENDCHAR

STARTCHAR Ca7e0
ENCODING 42976
SWIDTH 1000 0
DWIDTH 16 0
BBX 16 16 0 -2
BITMAP
0000
0000
0000
0000
0000
0000
0780
0840
1020
1020
1020
1020
0840
0780
0000
0000
ENDCHAR

STARTCHAR Ca7e1
ENCODING 42977
SWIDTH 1000 0
DWIDTH 16 0
BBX 16 16 0 -2
BITMAP
0000
0000
0000
0000
0000
0000
0FE0
0820
0820
0820
0820
0820
0820
0820
0000
0000
ENDCHAR

STARTCHAR Ca7e2
ENCODING 42978
SWIDTH 1000 0
DWIDTH 16 0
BBX 16 16 0 -2
BITMAP
0000
0000
0000
0000
0000
0000
0B80
0C40
0820
0820
0820
0C40
0B80
0800
0800
0000
ENDCHAR

STARTCHAR Ca7e3
ENCODING 42979
SWIDTH 1000 0
DWIDTH 16 0
BBX 16 16 0 -2
BITMAP
0000
0000
0000
0000
0000
0000
07C0
0820
1020
1000
1000
1000
0820
07C0
0000
0000
ENDCHAR

STARTCHAR Ca7e4
ENCODING 42980
SWIDTH 1000 0
DWIDTH 16 0
BBX 16 16 0 -2
BITMAP
0000
0000
0000
0000
0000
0000
0FE0
0100
0100
0100
0100
0100
0100
0100
0000
0000
ENDCHAR

STARTCHAR Ca7e5
ENCODING 42981
SWIDTH 1000 0
DWIDTH 16 0
BBX 16 16 0 -2
BITMAP
0000
0000
0000
0000
0000
0000
0820
0820
0440
0440
0280
0100
0100
0200
1C00
0000
ENDCHAR

STARTCHAR Ca7e6
ENCODING 42982
SWIDTH 1000 0
DWIDTH 16 0
BBX 16 16 0 -2
BITMAP
0000
0000
0000
0100
0100
0100
0D60
1390
1110
1110
1390
0D60
0100
0100
0100
0000
ENDCHAR

STARTCHAR Ca7e7
ENCODING 42983
SWIDTH 1000 0
DWIDTH 16 0
BBX 16 16 0 -2
BITMAP
0000
0000
0000
0000
0000
0000
0820
0440
0280
0100
0280
0440
0820
1010
0000
0000
ENDCHAR

STARTCHAR Ca7e8
ENCODING 42984
SWIDTH 1000 0
DWIDTH 16 0
BBX 16 16 0 -2
BITMAP
0000
0000
0000
0000
0000
0000
0820
0820
0820
0820
0820
0820
0820
0FF0
0010
0000
ENDCHAR

STARTCHAR Ca7e9
ENCODING 42985
SWIDTH 1000 0
DWIDTH 16 0
BBX 16 16 0 -2
BITMAP
0000
0000
0000
0000
0000
0000
0820
0820
0820
0820
0420
03E0
0020
0020
0000
0000
ENDCHAR

STARTCHAR Ca7ea
ENCODING 42986
SWIDTH 1000 0
DWIDTH 16 0
BBX 16 16 0 -2
BITMAP
0000
0000
0000
0000
0000
0000
1110
1110
1110
1110
1110
1110
1110
1FF0
0000
0000
ENDCHAR

STARTCHAR Ca7eb
ENCODING 42987
SWIDTH 1000 0
DWIDTH 16 0
BBX 16 16 0 -2
BITMAP
0000
0000
0000
0000
0000
0000
1110
1110
1110
1110
1110
1110
1110
1FF8
0008
0000
ENDCHAR

STARTCHAR Ca7ec
ENCODING 42988
SWIDTH 1000 0
DWIDTH 16 0
BBX 16 16 0 -2
BITMAP
0000
0000
0000
0000
0000
0000
1C00
0400
0400
07E0
0410
0410
0410
07E0
0000
0000
ENDCHAR

STARTCHAR Ca7ed
ENCODING 42989
SWIDTH 1000 0
DWIDTH 16 0
BBX 16 16 0 -2
BITMAP
0000
0000
0000
0000
0000
0000
1010
1010
1010
1F10
1090
1090
1090
1F10
0000
0000
ENDCHAR

STARTCHAR Ca7ee
ENCODING 42990
SWIDTH 1000 0
DWIDTH 16 0
BBX 16 16 0 -2
BITMAP
0000
0000
0000
0000
0000
0000
0800
0800
0800
0FC0
0820
0820
0820
0FC0
0000
0000
ENDCHAR

STARTCHAR Ca7ef
ENCODING 42991
SWIDTH 1000 0
DWIDTH 16 0
BBX 16 16 0 -2
BITMAP
0000
0000
0000
0000
0000
0000
0780
0840
0020
0660
09A0
0020
0840
0780
0000
0000
ENDCHAR

STARTCHAR Ca7f0
ENCODING 42992
SWIDTH 1000 0
DWIDTH 16 0
BBX 16 16 0 -2
BITMAP
0000
0000
0000
0000
0000
0000
21C0
2220
2410
3C10
2410
2410
2220
21C0
0000
0000
ENDCHAR

STARTCHAR Ca7f1
ENCODING 42993
SWIDTH 1000 0
DWIDTH 16 0
BBX 16 16 0 -2
BITMAP
0000
0000
0000
0000
0000
0000
07C0
0840
0840
0840
07C0
0240
0440
0840
0000
0000
ENDCHAR

STARTCHAR Ca8a1
ENCODING 43169
SWIDTH 1000 0
DWIDTH 16 0
BBX 16 16 0 -2
BITMAP
0000
0000
0000
0000
0000
0000
0000
FFFF
0000
0000
0000
0000
0000
0000
0000
0000
ENDCHAR

STARTCHAR Ca8a2
ENCODING 43170
SWIDTH 1000 0
DWIDTH 16 0
BBX 16 16 0 -2
BITMAP
0100
0100
0100
0100
0100
0100
0100
0100
0100
0100
0100
0100
0100
0100
0100
0100
ENDCHAR

STARTCHAR Ca8a3
ENCODING 43171
SWIDTH 1000 0
DWIDTH 16 0
BBX 16 16 0 -2
BITMAP
0000
0000
0000
0000
0000
0000
0000
01FF
0100
0100
0100
0100
0100
0100
0100
0100
ENDCHAR

STARTCHAR Ca8a4
ENCODING 43172
SWIDTH 1000 0
DWIDTH 16 0
BBX 16 16 0 -2
BITMAP
0000
0000
0000
0000
0000
0000
0000
FF00
0100
0100
0100
0100
0100
0100
0100
0100
ENDCHAR

STARTCHAR Ca8a5
ENCODING 43173
SWIDTH 1000 0
DWIDTH 16 0
BBX 16 16 0 -2
BITMAP
0100
0100
0100
0100
0100
0100
0100
FF00
0000
0000
0000
0000
0000
0000
0000
0000
ENDCHAR

STARTCHAR Ca8a6
ENCODING 43174
SWIDTH 1000 0
DWIDTH 16 0
BBX 16 16 0 -2
BITMAP
0100
0100
0100
0100
0100
0100
0100
01FF
0000
0000
0000
0000
0000
0000
0000
0000
ENDCHAR

STARTCHAR Ca8a7
ENCODING 43175
SWIDTH 1000 0
DWIDTH 16 0
BBX 16 16 0 -2
BITMAP
0100
0100
0100
0100
0100
0100
0100
01FF
0100
0100
0100
0100
0100
0100
0100
0100
ENDCHAR

STARTCHAR Ca8a8
ENCODING 43176
SWIDTH 1000 0
DWIDTH 16 0
BBX 16 16 0 -2
BITMAP
0000
0000
0000
0000
0000
0000
0000
FFFF
0100
0100
0100
0100
0100
0100
0100
0100
ENDCHAR

STARTCHAR Ca8a9
ENCODING 43177
SWIDTH 1000 0
DWIDTH 16 0
BBX 16 16 0 -2
BITMAP
0100
0100
0100
0100
0100
0100
0100
FF00
0100
0100
0100
0100
0100
0100
0100
0100
ENDCHAR

STARTCHAR Ca8aa
ENCODING 43178
SWIDTH 1000 0
DWIDTH 16 0
BBX 16 16 0 -2
BITMAP
0100
0100
0100
0100
0100
0100
0100
FFFF
0000
0000
0000
0000
0000
0000
0000
0000
ENDCHAR

STARTCHAR Ca8ab
ENCODING 43179
SWIDTH 1000 0
DWIDTH 16 0
BBX 16 16 0 -2
BITMAP
0100
0100
0100
0100
0100
0100
0100
FFFF
0100
0100
0100
0100
0100
0100
0100
0100
ENDCHAR

STARTCHAR Ca8ac
ENCODING 43180
SWIDTH 1000 0
DWIDTH 16 0
BBX 16 16 0 -2
BITMAP
0000
0000
0000
0000
0000
0000
0000
FFFF
FFFF
0000
0000
0000
0000
0000
0000
0000
ENDCHAR

STARTCHAR Ca8ad
ENCODING 43181
SWIDTH 1000 0
DWIDTH 16 0
BBX 16 16 0 -2
BITMAP
0180
0180
0180
0180
0180
0180
0180
0180
0180
0180
0180
0180
0180
0180
0180
0180
ENDCHAR

STARTCHAR Ca8ae
ENCODING 43182
SWIDTH 1000 0
DWIDTH 16 0
BBX 16 16 0 -2
BITMAP
0000
0000
0000
0000
0000
0000
0000
01FF
01FF
0180
0180
0180
0180
0180
0180
0180
ENDCHAR

STARTCHAR Ca8af
ENCODING 43183
SWIDTH 1000 0
DWIDTH 16 0
BBX 16 16 0 -2
BITMAP
0000
0000
0000
0000
0000
0000
0000
FF80
FF80
0180
0180
0180
0180
0180
0180
0180
ENDCHAR

STARTCHAR Ca8b0
ENCODING 43184
SWIDTH 1000 0
DWIDTH 16 0
BBX 16 16 0 -2
BITMAP
0180
0180
0180
0180
0180
0180
0180
FF80
FF80
0000
0000
0000
0000
0000
0000
0000
ENDCHAR

STARTCHAR Ca8b1
ENCODING 43185
SWIDTH 1000 0
DWIDTH 16 0
BBX 16 16 0 -2
BITMAP
0180
0180
0180
0180
0180
0180
0180
01FF
01FF
0000
0000
0000
0000
0000
0000
0000
ENDCHAR

STARTCHAR Ca8b2
ENCODING 43186
SWIDTH 1000 0
DWIDTH 16 0
BBX 16 16 0 -2
BITMAP
0180
0180
0180
0180
0180
0180
0180
01FF
01FF
0180
0180
0180
0180
0180
0180
0180
ENDCHAR

STARTCHAR Ca8b3
ENCODING 43187
SWIDTH 1000 0
DWIDTH 16 0
BBX 16 16 0 -2
BITMAP
0000
0000
0000
0000
0000
0000
0000
FFFF
FFFF
0180
0180
0180
0180
0180
0180
0180
ENDCHAR

STARTCHAR Ca8b4
ENCODING 43188
SWIDTH 1000 0
DWIDTH 16 0
BBX 16 16 0 -2
BITMAP
0180
0180
0180
0180
0180
0180
0180
FF80
FF80
0180
0180
0180
0180
0180
0180
0180
ENDCHAR

STARTCHAR Ca8b5
ENCODING 43189
SWIDTH 1000 0
DWIDTH 16 0
BBX 16 16 0 -2
BITMAP
0180
0180
0180
0180
0180
0180
0180
FFFF
FFFF
0000
0000
0000
0000
0000
0000
0000
ENDCHAR

STARTCHAR Ca8b6
ENCODING 43190
SWIDTH 1000 0
DWIDTH 16 0
BBX 16 16 0 -2
BITMAP
0180
0180
0180
0180
0180
0180
0180
FFFF
FFFF
0180
0180
0180
0180
0180
0180
0180
ENDCHAR

STARTCHAR Ca8b7
ENCODING 43191
SWIDTH 1000 0
DWIDTH 16 0
BBX 16 16 0 -2
BITMAP
0180
0180
0180
0180
0180
0180
0180
01FF
0180
0180
0180
0180
0180
0180
0180
0180
ENDCHAR

STARTCHAR Ca8b8
ENCODING 43192
SWIDTH 1000 0
DWIDTH 16 0
BBX 16 16 0 -2
BITMAP
0000
0000
0000
0000
0000
0000
0000
FFFF
FFFF
0100
0100
0100
0100
0100
0100
0100
ENDCHAR

STARTCHAR Ca8b9
ENCODING 43193
SWIDTH 1000 0
DWIDTH 16 0
BBX 16 16 0 -2
BITMAP
0180
0180
0180
0180
0180
0180
0180
FF80
0180
0180
0180
0180
0180
0180
0180
0180
ENDCHAR

STARTCHAR Ca8ba
ENCODING 43194
SWIDTH 1000 0
DWIDTH 16 0
BBX 16 16 0 -2
BITMAP
0100
0100
0100
0100
0100
0100
0100
FFFF
FFFF
0000
0000
0000
0000
0000
0000
0000
ENDCHAR

STARTCHAR Ca8bb
ENCODING 43195
SWIDTH 1000 0
DWIDTH 16 0
BBX 16 16 0 -2
BITMAP
0100
0100
0100
0100
0100
0100
0100
FFFF
FFFF
0100
0100
0100
0100
0100
0100
0100
ENDCHAR

STARTCHAR Ca8bc
ENCODING 43196
SWIDTH 1000 0
DWIDTH 16 0
BBX 16 16 0 -2
BITMAP
0100
0100
0100
0100
0100
0100
0100
01FF
01FF
0100
0100
0100
0100
0100
0100
0100
ENDCHAR

STARTCHAR Ca8bd
ENCODING 43197
SWIDTH 1000 0
DWIDTH 16 0
BBX 16 16 0 -2
BITMAP
0000
0000
0000
0000
0000
0000
0000
FFFF
0180
0180
0180
0180
0180
0180
0180
0180
ENDCHAR

STARTCHAR Ca8be
ENCODING 43198
SWIDTH 1000 0
DWIDTH 16 0
BBX 16 16 0 -2
BITMAP
0100
0100
0100
0100
0100
0100
0100
FF00
FF00
0100
0100
0100
0100
0100
0100
0100
ENDCHAR

STARTCHAR Ca8bf
ENCODING 43199
SWIDTH 1000 0
DWIDTH 16 0
BBX 16 16 0 -2
BITMAP
0180
0180
0180
0180
0180
0180
0180
FFFF
0000
0000
0000
0000
0000
0000
0000
0000
ENDCHAR

STARTCHAR Ca8c0
ENCODING 43200
SWIDTH 1000 0
DWIDTH 16 0
BBX 16 16 0 -2
BITMAP
0180
0180
0180
0180
0180
0180
0180
FFFF
0180
0180
0180
0180
0180
0180
0180
0180
ENDCHAR

STARTCHAR Cb0a1
ENCODING 45217
SWIDTH 1000 0
DWIDTH 16 0
BBX 16 16 0 -2
BITMAP
0000
0000
3FF8
0480
0480
0480
3FF8
2488
2488
2488
3FF8
0480
0480
0480
7FFC
0000
ENDCHAR

STARTCHAR Cb0a2
ENCODING 45218
SWIDTH 1000 0
DWIDTH 16 0
BBX 16 16 0 -2
BITMAP
0000
0000
07F8
0140
7140
57F8
5548
5548
5548
5548
57F8
7140
0140
0140
0FFC
0000
ENDCHAR

STARTCHAR Cb0a3
ENCODING 45219
SWIDTH 1000 0
DWIDTH 16 0
BBX 16 16 0 -2
BITMAP
0000
1040
1040
11F8
7C40
2440
2440
27FC
4440
4840
29F8
1840
1440
2240
43FC
0000
ENDCHAR

STARTCHAR Cb0a4
ENCODING 45220
SWIDTH 1000 0
DWIDTH 16 0
BBX 16 16 0 -2
BITMAP
0000
0000
3DFC
2408
2408
2808
31E8
2928
2528
2528
25E8
3808
2008
2008
2038
0000
ENDCHAR

STARTCHAR Cb0a5
ENCODING 45221
SWIDTH 1000 0
DWIDTH 16 0
BBX 16 16 0 -2
BITMAP
0000
0100
0100
7FFC
0000
1FF0
1010
1010
1FF0
0480
1848
6850
0820
0B90
7C0C
0000
ENDCHAR

STARTCHAR Cb0a6
ENCODING 45222
SWIDTH 1000 0
DWIDTH 16 0
BBX 16 16 0 -2
BITMAP
0000
0078
3F90
0920
7FFC
4104
5494
1428
27E4
0200
03F0
0C20
3640
0180
7E7C
0000
ENDCHAR

STARTCHAR Cb0a7
ENCODING 45223
SWIDTH 1000 0
DWIDTH 16 0
BBX 16 16 0 -2
BITMAP
0000
1080
1090
1108
7FF4
1000
1100
15F8
1A40
7440
17FC
1040
10A0
1110
360C
0000
ENDCHAR

STARTCHAR Cb0a8
ENCODING 45224
SWIDTH 1000 0
DWIDTH 16 0
BBX 16 16 0 -2
BITMAP
0000
1060
1090
1108
7E04
2400
25F8
2400
4400
45F8
2908
1908
1508
23F8
4108
0000
ENDCHAR

STARTCHAR Cb0a9
ENCODING 45225
SWIDTH 1000 0
DWIDTH 16 0
BBX 16 16 0 -2
BITMAP
0000
0080
41F0
2720
10C0
0F3C
0040
73F8
1040
13F8
1040
17FC
1040
2C40
43FC
0000
ENDCHAR

STARTCHAR Cb0aa
ENCODING 45226
SWIDTH 1000 0
DWIDTH 16 0
BBX 16 16 0 -2
BITMAP
0000
0440
7FFC
0440
1F10
42A4
2448
1830
6FEC
0100
0100
3FF8
0280
0C60
701C
0000
ENDCHAR

STARTCHAR Cb0ab
ENCODING 45227
SWIDTH 1000 0
DWIDTH 16 0
BBX 16 16 0 -2
BITMAP
0000
0440
7FFC
0440
0000
7FFC
0480
3FF8
2488
24A8
28E8
3008
2008
3FF8
2008
0000
ENDCHAR

STARTCHAR Cb0ac
ENCODING 45228
SWIDTH 1000 0
DWIDTH 16 0
BBX 16 16 0 -2
BITMAP
0000
0C80
70F0
1120
13F8
7E48
13F8
1248
3BFC
5644
53FC
5244
13FC
1040
107C
0000
ENDCHAR

STARTCHAR Cb0ad
ENCODING 45229
SWIDTH 1000 0
DWIDTH 16 0
BBX 16 16 0 -2
BITMAP
0000
0000
7FFC
0480
3FF8
2488
2488
3FF8
0480
0480
7FFC
0200
2908
2824
4FE4
0000
ENDCHAR

STARTCHAR Cb0ae
ENCODING 45230
SWIDTH 1000 0
DWIDTH 16 0
BBX 16 16 0 -2
BITMAP
0000
1000
13FC
1204
7FFC
1200
13FC
1240
1E88
73F4
1224
1220
14F8
1420
39FC
0000
ENDCHAR

STARTCHAR Cb0af
ENCODING 45231
SWIDTH 1000 0
DWIDTH 16 0
BBX 16 16 0 -2
BITMAP
0000
2000
17F8
0408
47F8
2400
07FC
1480
1510
17E8
6448
2440
2BF8
2840
37FC
0000
ENDCHAR

STARTCHAR Cb0b0
ENCODING 45232
SWIDTH 1000 0
DWIDTH 16 0
BBX 16 16 0 -2
BITMAP
0000
1000
1000
10F8
1088
7E88
12F8
1288
1288
1288
12F8
2200
2204
2204
43FC
0000
ENDCHAR

STARTCHAR Cb0b1
ENCODING 45233
SWIDTH 1000 0
DWIDTH 16 0
BBX 16 16 0 -2
BITMAP
0000
0440
7FFC
0440
0200
1FE0
0420
7FFC
1010
1FF0
0080
1FF0
1080
7FFC
0080
0000
ENDCHAR

STARTCHAR Cb0b2
ENCODING 45234
SWIDTH 1000 0
DWIDTH 16 0
BBX 16 16 0 -2
BITMAP
0000
0440
7FFC
0440
0000
3FF8
0000
1FF0
1010
1010
1FF0
1000
2000
2000
4000
0000
ENDCHAR

STARTCHAR Cb0b3
ENCODING 45235
SWIDTH 1000 0
DWIDTH 16 0
BBX 16 16 0 -2
BITMAP
0000
2090
3908
4BF4
1044
7C40
57FC
5490
7D28
5644
5590
7C64
0188
5430
55C0
0000
ENDCHAR

STARTCHAR Cb0b4
ENCODING 45236
SWIDTH 1000 0
DWIDTH 16 0
BBX 16 16 0 -2
BITMAP
0000
1040
1040
13F8
7D10
1110
10A0
38A0
57FC
5040
5040
13F8
1040
1040
1040
0000
ENDCHAR

STARTCHAR Cb0b5
ENCODING 45237
SWIDTH 1000 0
DWIDTH 16 0
BBX 16 16 0 -2
BITMAP
0000
0000
3FFC
2000
2080
2080
2080
2FF8
2080
2080
2080
2080
4080
5FFC
4000
0000
ENDCHAR

STARTCHAR Cb0b6
ENCODING 45238
SWIDTH 1000 0
DWIDTH 16 0
BBX 16 16 0 -2
BITMAP
0000
1020
7C50
1088
1104
7E90
4450
7D10
4490
4450
7C1C
11F0
7C10
1010
1010
0000
ENDCHAR

STARTCHAR Cb0b7
ENCODING 45239
SWIDTH 1000 0
DWIDTH 16 0
BBX 16 16 0 -2
BITMAP
0000
1000
17F0
1110
7D10
1120
1138
1508
1A88
7290
1250
1420
1450
1888
3304
0000
ENDCHAR

STARTCHAR Cb0b8
ENCODING 45240
SWIDTH 1000 0
DWIDTH 16 0
BBX 16 16 0 -2
BITMAP
0000
0100
0100
7FFC
4004
5004
1EF8
1288
1288
2A88
4498
0480
0884
1084
60FC
0000
ENDCHAR

STARTCHAR Cb0b9
ENCODING 45241
SWIDTH 1000 0
DWIDTH 16 0
BBX 16 16 0 -2
BITMAP
0000
1000
11F8
1108
7D08
2508
25F8
2508
4508
4908
29F8
1908
1508
2108
43FC
0000
ENDCHAR

STARTCHAR Cb0ba
ENCODING 45242
SWIDTH 1000 0
DWIDTH 16 0
BBX 16 16 0 -2
BITMAP
0000
1020
1020
1020
7EFC
5280
5280
5280
5280
7E80
1080
1480
1480
1A80
627C
0000
ENDCHAR

STARTCHAR Cb0bb
ENCODING 45243
SWIDTH 1000 0
DWIDTH 16 0
BBX 16 16 0 -2
BITMAP
0000
0820
1420
2240
4848
3E88
23F4
3E04
2200
22F8
3E88
2088
2888
24F8
7A88
0000
ENDCHAR

STARTCHAR Cb0bc
ENCODING 45244
SWIDTH 1000 0
DWIDTH 16 0
BBX 16 16 0 -2
BITMAP
0000
1080
2080
49FC
2904
1204
24F4
4494
7CF4
1094
54F4
5404
5404
5004
1038
0000
ENDCHAR

STARTCHAR Cb0bd
ENCODING 45245
SWIDTH 1000 0
DWIDTH 16 0
BBX 16 16 0 -2
BITMAP
0000
1040
21F8
4840
2840
13FC
2490
449C
7D40
1278
5488
5550
5420
5050
138C
0000
ENDCHAR

STARTCHAR Cb0be
ENCODING 45246
SWIDTH 1000 0
DWIDTH 16 0
BBX 16 16 0 -2
BITMAP
0000
1020
1C20
2420
483C
3E20
2A20
2A20
3EFC
2A84
2A84
3E84
0084
2AFC
4A84
0000
ENDCHAR

STARTCHAR Cb0bf
ENCODING 45247
SWIDTH 1000 0
DWIDTH 16 0
BBX 16 16 0 -2
BITMAP
0000
0050
0048
0040
7FFC
0040
0048
3E48
2250
2250
3E20
0020
0754
7894
010C
0000
ENDCHAR

STARTCHAR Cb0c0
ENCODING 45248
SWIDTH 1000 0
DWIDTH 16 0
BBX 16 16 0 -2
BITMAP
0000
0000
7FFC
0440
3FF8
2448
2448
3FF8
1110
0920
7FFC
0540
1930
610C
0100
0000
ENDCHAR

STARTCHAR Cb0c1
ENCODING 45249
SWIDTH 1000 0
DWIDTH 16 0
BBX 16 16 0 -2
BITMAP
0000
1060
1090
7D08
0604
0800
09F8
1000
3400
59F8
1508
1108
1108
11F8
1108
0000
ENDCHAR

STARTCHAR Cb0c2
ENCODING 45250
SWIDTH 1000 0
DWIDTH 16 0
BBX 16 16 0 -2
BITMAP
0000
0100
0100
7FFC
4004
4204
0200
7FFC
0420
0820
0840
1640
0180
0670
780C
0000
ENDCHAR

STARTCHAR Cb0c3
ENCODING 45251
SWIDTH 1000 0
DWIDTH 16 0
BBX 16 16 0 -2
BITMAP
0000
0100
0100
3FFC
2100
3FF8
2240
2520
3FFC
2910
2FF0
2910
4FF4
4904
41FC
0000
ENDCHAR

STARTCHAR Cb0c4
ENCODING 45252
SWIDTH 1000 0
DWIDTH 16 0
BBX 16 16 0 -2
BITMAP
0000
1040
1040
13FC
7E04
1244
1040
13FC
1C88
7110
1110
13A0
1050
1188
3604
0000
ENDCHAR

STARTCHAR Cb0c5
ENCODING 45253
SWIDTH 1000 0
DWIDTH 16 0
BBX 16 16 0 -2
BITMAP
0000
0040
0040
7BFC
4908
4890
4BFC
7800
49F8
4908
4908
79F8
0108
0108
01F8
0000
ENDCHAR

STARTCHAR Cb0c6
ENCODING 45254
SWIDTH 1000 0
DWIDTH 16 0
BBX 16 16 0 -2
BITMAP
0000
0100
0100
7FFC
4204
3FF8
0820
1E40
01B0
3E08
0100
7FFC
0540
1930
610C
0000
ENDCHAR

STARTCHAR Cb0c7
ENCODING 45255
SWIDTH 1000 0
DWIDTH 16 0
BBX 16 16 0 -2
BITMAP
0000
0000
7CF8
4488
7CF8
4488
7CF8
4208
5FE8
4488
5FE8
4848
4FC8
4848
4FD8
0000
ENDCHAR

STARTCHAR Cb0c8
ENCODING 45256
SWIDTH 1000 0
DWIDTH 16 0
BBX 16 16 0 -2
BITMAP
0000
2840
2840
7FFC
2A04
3A84
1080
7DFC
5490
5510
7D20
12A0
7C50
1088
1304
0000
ENDCHAR

STARTCHAR Cb0c9
ENCODING 45257
SWIDTH 1000 0
DWIDTH 16 0
BBX 16 16 0 -2
BITMAP
0000
0100
0100
7FFC
0540
0920
1110
610C
0000
1FF0
1010
1010
1010
1FF0
1010
0000
ENDCHAR

STARTCHAR Cb0ca
ENCODING 45258
SWIDTH 1000 0
DWIDTH 16 0
BBX 16 16 0 -2
BITMAP
0000
0010
1010
1210
1110
1090
1090
1010
1010
1020
1420
1850
6088
0108
0604
0000
ENDCHAR

STARTCHAR Cb0cb
ENCODING 45259
SWIDTH 1000 0
DWIDTH 16 0
BBX 16 16 0 -2
BITMAP
0000
0800
0BF8
0848
1048
17FC
3048
5048
1048
13F8
1040
1040
1080
1080
1100
0000
ENDCHAR

STARTCHAR Cb0cc
ENCODING 45260
SWIDTH 1000 0
DWIDTH 16 0
BBX 16 16 0 -2
BITMAP
0000
0880
0880
0FFC
1000
1010
3210
5210
1210
1120
1120
1120
1040
1040
17FC
0000
ENDCHAR

STARTCHAR Cb0cd
ENCODING 45261
SWIDTH 1000 0
DWIDTH 16 0
BBX 16 16 0 -2
BITMAP
0000
0880
0880
0FFC
1140
1140
3244
5228
1630
1A20
1210
1210
1208
1388
1C04
0000
ENDCHAR

STARTCHAR Cb0ce
ENCODING 45262
SWIDTH 1000 0
DWIDTH 16 0
BBX 16 16 0 -2
BITMAP
0000
0880
0BF0
0910
17FC
1000
33F8
5208
13F8
1020
13F8
1120
17FC
1020
1020
0000
ENDCHAR

STARTCHAR Cb0cf
ENCODING 45263
SWIDTH 1000 0
DWIDTH 16 0
BBX 16 16 0 -2
BITMAP
0000
0000
7FF8
4008
4488
4488
5FE8
4488
4488
5FE8
4488
4888
5088
4008
7FF8
0000
ENDCHAR

STARTCHAR Cb0d0
ENCODING 45264
SWIDTH 1000 0
DWIDTH 16 0
BBX 16 16 0 -2
BITMAP
0000
0100
7FFC
0100
3FF8
0108
0108
1FF8
1100
3FFC
2104
0284
044C
1830
600C
0000
ENDCHAR

STARTCHAR Cb0d1
ENCODING 45265
SWIDTH 1000 0
DWIDTH 16 0
BBX 16 16 0 -2
BITMAP
0000
00F0
1F00
0100
7FFC
0540
1930
610C
0200
7FFC
0420
0840
1C80
0370
7C0C
0000
ENDCHAR

STARTCHAR Cb0d2
ENCODING 45266
SWIDTH 1000 0
DWIDTH 16 0
BBX 16 16 0 -2
BITMAP
0000
0050
0048
3FFC
2040
3FC0
2448
2448
3FC8
2950
2950
3220
4A24
4554
588C
0000
ENDCHAR

STARTCHAR Cb0d3
ENCODING 45267
SWIDTH 1000 0
DWIDTH 16 0
BBX 16 16 0 -2
BITMAP
0000
0008
3F08
2108
2108
3FFC
2008
2E48
2028
3F28
2408
3508
5508
5408
4C38
0000
ENDCHAR

STARTCHAR Cb0d4
ENCODING 45268
SWIDTH 1000 0
DWIDTH 16 0
BBX 16 16 0 -2
BITMAP
0000
1090
1090
1520
55FC
5320
5520
51F8
1120
1120
11F8
1120
1120
1120
11FC
0000
ENDCHAR

STARTCHAR Cb0d5
ENCODING 45269
SWIDTH 1000 0
DWIDTH 16 0
BBX 16 16 0 -2
BITMAP
0000
0100
3FF8
0440
7FFC
0000
1FF0
1010
1FF0
1010
1FF0
0210
2908
2824
4FE4
0000
ENDCHAR

STARTCHAR Cb0d6
ENCODING 45270
SWIDTH 1000 0
DWIDTH 16 0
BBX 16 16 0 -2
BITMAP
0000
0008
3F08
21FC
3F08
2048
3F28
2408
5508
5538
0000
2910
2888
4824
4FE4
0000
ENDCHAR

STARTCHAR Cb0d7
ENCODING 45271
SWIDTH 1000 0
DWIDTH 16 0
BBX 16 16 0 -2
BITMAP
0000
0000
1FF0
1010
1FF0
1010
1FF0
0400
0800
1FF8
6248
0448
0888
3108
0670
0000
ENDCHAR

STARTCHAR Cb0d8
ENCODING 45272
SWIDTH 1000 0
DWIDTH 16 0
BBX 16 16 0 -2
BITMAP
0000
1040
1040
13FC
7C40
10A0
1110
3BFC
5408
51E8
5128
1128
11E8
1008
1038
0000
ENDCHAR

STARTCHAR Cb0d9
ENCODING 45273
SWIDTH 1000 0
DWIDTH 16 0
BBX 16 16 0 -2
BITMAP
0000
1080
0880
0100
3FF0
0210
07F8
0408
0808
0FFC
1024
2494
5244
1204
2038
0000
ENDCHAR

STARTCHAR Cb0da
ENCODING 45274
SWIDTH 1000 0
DWIDTH 16 0
BBX 16 16 0 -2
BITMAP
0000
0000
1FF0
1110
1FF0
1110
1110
1FF0
0000
7FFC
0910
08A0
0840
0E30
700C
0000
ENDCHAR

STARTCHAR Cb0db
ENCODING 45275
SWIDTH 1000 0
DWIDTH 16 0
BBX 16 16 0 -2
BITMAP
0000
0000
1FF0
1110
1FF0
1110
1FF0
0440
3FF8
0440
0440
7FFC
0000
0C70
700C
0000
ENDCHAR

STARTCHAR Cb0dc
ENCODING 45276
SWIDTH 1000 0
DWIDTH 16 0
BBX 16 16 0 -2
BITMAP
0000
0C80
70F8
1108
12D0
7C20
10C0
1320
383C
5444
5184
5068
1010
1060
1380
0000
ENDCHAR

STARTCHAR Cb0dd
ENCODING 45277
SWIDTH 1000 0
DWIDTH 16 0
BBX 16 16 0 -2
BITMAP
0000
1090
2090
4920
29FC
1320
2520
45F8
7D20
1120
55F8
5520
5520
5120
11FC
0000
ENDCHAR

STARTCHAR Cb0de
ENCODING 45278
SWIDTH 1000 0
DWIDTH 16 0
BBX 16 16 0 -2
BITMAP
0000
1040
21F8
4888
2BFC
1000
25F8
4508
7DF8
1020
55FC
54A0
53FC
5020
1020
0000
ENDCHAR

STARTCHAR Cb0df
ENCODING 45279
SWIDTH 1000 0
DWIDTH 16 0
BBX 16 16 0 -2
BITMAP
0000
0000
3FF8
2108
3FF8
2108
3FF8
0000
1FF0
1010
1FF0
1010
1FF0
1010
1070
0000
ENDCHAR

STARTCHAR Cb0e0
ENCODING 45280
SWIDTH 1000 0
DWIDTH 16 0
BBX 16 16 0 -2
BITMAP
0000
0440
7FFC
0440
1FF0
0100
7FFC
0920
711C
0400
7FFC
0820
1C40
03B0
7C0C
0000
ENDCHAR

STARTCHAR Cb0e1
ENCODING 45281
SWIDTH 1000 0
DWIDTH 16 0
BBX 16 16 0 -2
BITMAP
0000
0100
0100
0100
7FFC
0280
0480
0484
0848
1850
6820
0820
0810
0F08
7004
0000
ENDCHAR

STARTCHAR Cb0e2
ENCODING 45282
SWIDTH 1000 0
DWIDTH 16 0
BBX 16 16 0 -2
BITMAP
0000
0000
3DFC
0124
7DFC
0124
3DFC
0000
3DFC
0104
3DFC
2504
25FC
2504
3D1C
0000
ENDCHAR

STARTCHAR Cb0e3
ENCODING 45283
SWIDTH 1000 0
DWIDTH 16 0
BBX 16 16 0 -2
BITMAP
0000
0040
43F0
2090
17FC
0000
03F8
7208
13F8
1020
13F8
1120
17FC
2820
47FC
0000
ENDCHAR

STARTCHAR Cb0e4
ENCODING 45284
SWIDTH 1000 0
DWIDTH 16 0
BBX 16 16 0 -2
BITMAP
0000
0040
43F8
2248
17FC
0000
03F8
7208
13F8
1208
13F8
1090
130C
2C00
43FC
0000
ENDCHAR

STARTCHAR Cb0e5
ENCODING 45285
SWIDTH 1000 0
DWIDTH 16 0
BBX 16 16 0 -2
BITMAP
0000
0000
3FFC
2200
2200
27F0
2880
2080
2FF8
2080
2140
2220
2C10
2000
3FFC
0000
ENDCHAR

STARTCHAR Cb0e6
ENCODING 45286
SWIDTH 1000 0
DWIDTH 16 0
BBX 16 16 0 -2
BITMAP
0000
0420
0420
0420
3FFC
0420
0420
0420
0420
7FFC
0420
0820
0820
1020
2020
0000
ENDCHAR

STARTCHAR Cb0e7
ENCODING 45287
SWIDTH 1000 0
DWIDTH 16 0
BBX 16 16 0 -2
BITMAP
0000
0100
0100
7FFC
0200
0240
1440
0890
0510
0220
0C40
30A0
0110
0608
3804
0000
ENDCHAR

STARTCHAR Cb0e8
ENCODING 45288
SWIDTH 1000 0
DWIDTH 16 0
BBX 16 16 0 -2
BITMAP
0000
0028
1024
1020
17FC
7820
1020
13A4
12A4
13A8
1028
19B0
6624
0054
018C
0000
ENDCHAR

STARTCHAR Cb0e9
ENCODING 45289
SWIDTH 1000 0
DWIDTH 16 0
BBX 16 16 0 -2
BITMAP
0000
0100
0100
7FFC
0420
0810
3FE8
0000
1FF0
1010
1FF0
1010
1FF0
1010
1070
0000
ENDCHAR

STARTCHAR Cb0ea
ENCODING 45290
SWIDTH 1000 0
DWIDTH 16 0
BBX 16 16 0 -2
BITMAP
0000
0800
087C
7FC4
0848
1048
1F50
3148
5F44
1144
1144
1F44
1158
1140
1740
0000
ENDCHAR

STARTCHAR Cb0eb
ENCODING 45291
SWIDTH 1000 0
DWIDTH 16 0
BBX 16 16 0 -2
BITMAP
0000
0148
7E50
1148
1250
1254
23DC
3C48
67FC
2520
2524
25A8
3D10
2228
02C4
0000
ENDCHAR

STARTCHAR Cb0ec
ENCODING 45292
SWIDTH 1000 0
DWIDTH 16 0
BBX 16 16 0 -2
BITMAP
0000
0000
0000
0000
0000
0000
0000
0000
7FFC
0000
0000
0000
0000
0000
0000
0000
ENDCHAR

STARTCHAR Cb0ed
ENCODING 45293
SWIDTH 1000 0
DWIDTH 16 0
BBX 16 16 0 -2
BITMAP
0000
0100
0100
7FFC
0100
0100
3FF8
0000
7FFC
4004
48E4
0F00
0808
0808
0FF8
0000
ENDCHAR

STARTCHAR Cb0ee
ENCODING 45294
SWIDTH 1000 0
DWIDTH 16 0
BBX 16 16 0 -2
BITMAP
0000
2410
1210
0220
4FFC
2220
0210
1410
1808
17F4
2550
2550
2550
4550
4FFC
0000
ENDCHAR

STARTCHAR Cb0ef
ENCODING 45295
SWIDTH 1000 0
DWIDTH 16 0
BBX 16 16 0 -2
BITMAP
0000
0100
41E0
2240
17F8
0248
0248
73F8
10A0
10A4
1124
163C
1000
2C00
43FC
0000
ENDCHAR

STARTCHAR Cb0f0
ENCODING 45296
SWIDTH 1000 0
DWIDTH 16 0
BBX 16 16 0 -2
BITMAP
0000
0C1C
71E0
1244
1124
7D28
1008
12FC
3A84
5684
52FC
5284
1284
1284
12FC
0000
ENDCHAR

STARTCHAR Cb0f1
ENCODING 45297
SWIDTH 1000 0
DWIDTH 16 0
BBX 16 16 0 -2
BITMAP
0000
0440
7FFC
0440
0200
4200
23F8
0488
0490
1080
10C0
2140
2120
4210
4C0C
0000
ENDCHAR

STARTCHAR Cb0f2
ENCODING 45298
SWIDTH 1000 0
DWIDTH 16 0
BBX 16 16 0 -2
BITMAP
0000
0440
0440
7FFC
0440
0000
3FF8
0100
0100
0100
7FFC
0100
0100
0100
0700
0000
ENDCHAR

STARTCHAR Cb0f3
ENCODING 45299
SWIDTH 1000 0
DWIDTH 16 0
BBX 16 16 0 -2
BITMAP
0000
2000
3BDC
4844
1044
7DDC
5510
5510
7DDC
5444
5554
7CCC
0154
5444
55DC
0000
ENDCHAR

STARTCHAR Cb0f4
ENCODING 45300
SWIDTH 1000 0
DWIDTH 16 0
BBX 16 16 0 -2
BITMAP
0000
0400
0440
0820
0810
11E8
7E08
0080
0880
0880
0880
1080
1088
2088
40F8
0000
ENDCHAR

STARTCHAR Cb0f5
ENCODING 45301
SWIDTH 1000 0
DWIDTH 16 0
BBX 16 16 0 -2
BITMAP
0000
0600
79F8
4108
4108
4108
7D08
4108
4108
4108
4108
7D38
4100
4100
0100
0000
ENDCHAR

STARTCHAR Cb0f6
ENCODING 45302
SWIDTH 1000 0
DWIDTH 16 0
BBX 16 16 0 -2
BITMAP
0000
0000
03FC
7A04
4A44
4A44
4BFC
4A44
4A44
4AA4
4A94
7B14
4204
0204
03FC
0000
ENDCHAR

STARTCHAR Cb0f7
ENCODING 45303
SWIDTH 1000 0
DWIDTH 16 0
BBX 16 16 0 -2
BITMAP
0000
0000
1FF0
1010
1FF0
0000
3FF8
2008
3FF8
2008
3FF8
2008
3FF8
0820
701C
0000
ENDCHAR

STARTCHAR Cb0f8
ENCODING 45304
SWIDTH 1000 0
DWIDTH 16 0
BBX 16 16 0 -2
BITMAP
0000
0000
7FF8
4008
4208
4208
7FE8
4208
4508
4508
4888
5048
6028
4008
7FF8
0000
ENDCHAR

STARTCHAR Cb0f9
ENCODING 45305
SWIDTH 1000 0
DWIDTH 16 0
BBX 16 16 0 -2
BITMAP
0000
2000
21FC
2104
7D24
2524
25FC
2524
4524
4954
294C
1984
1504
2304
41FC
0000
ENDCHAR

STARTCHAR Cb0fa
ENCODING 45306
SWIDTH 1000 0
DWIDTH 16 0
BBX 16 16 0 -2
BITMAP
0000
0008
3F88
0088
0088
0088
1F88
1008
1008
3F88
2088
0088
0088
0088
0F08
0000
ENDCHAR

STARTCHAR Cb0fb
ENCODING 45307
SWIDTH 1000 0
DWIDTH 16 0
BBX 16 16 0 -2
BITMAP
0000
0840
1440
227C
48A4
3EA8
2320
3E20
2220
2250
3E50
2050
2888
2488
7B04
0000
ENDCHAR

STARTCHAR Cb0fc
ENCODING 45308
SWIDTH 1000 0
DWIDTH 16 0
BBX 16 16 0 -2
BITMAP
0000
201C
17E0
0084
4444
2248
0200
0038
13C0
1040
2040
27FC
2040
4040
43F8
0000
ENDCHAR

STARTCHAR Cb0fd
ENCODING 45309
SWIDTH 1000 0
DWIDTH 16 0
BBX 16 16 0 -2
BITMAP
0000
2410
2890
2510
2210
2490
2F50
2010
2FD0
2850
2FD0
2854
4FD4
4854
48DC
0000
ENDCHAR

STARTCHAR Cb0fe
ENCODING 45310
SWIDTH 1000 0
DWIDTH 16 0
BBX 16 16 0 -2
BITMAP
0000
0440
7FFC
0440
0040
78A0
4910
4AEC
5000
49F0
4810
4BFC
7080
4108
43F4
0000
ENDCHAR

STARTCHAR Cb1a1
ENCODING 45473
SWIDTH 1000 0
DWIDTH 16 0
BBX 16 16 0 -2
BITMAP
0000
0040
7840
4BFC
4A04
5000
61F8
5000
4800
4BFC
48A0
70A0
4124
4124
463C
0000
ENDCHAR

STARTCHAR Cb1a2
ENCODING 45474
SWIDTH 1000 0
DWIDTH 16 0
BBX 16 16 0 -2
BITMAP
0000
0060
7890
4908
4AF4
5000
61F8
5010
4820
4BFC
4800
77FC
4080
4108
43F4
0000
ENDCHAR

STARTCHAR Cb1a3
ENCODING 45475
SWIDTH 1000 0
DWIDTH 16 0
BBX 16 16 0 -2
BITMAP
0000
0038
7BC8
4A88
4950
5000
63F8
5008
4BF8
4808
4BF8
7080
4548
4514
49F4
0000
ENDCHAR

STARTCHAR Cb1a4
ENCODING 45476
SWIDTH 1000 0
DWIDTH 16 0
BBX 16 16 0 -2
BITMAP
0000
1000
10F8
7E88
24F8
2400
7FFC
0104
3DFC
2504
25FC
3D04
25FC
2488
3D04
0000
ENDCHAR

STARTCHAR Cb1a5
ENCODING 45477
SWIDTH 1000 0
DWIDTH 16 0
BBX 16 16 0 -2
BITMAP
0000
0010
0010
7810
4BFC
4810
4810
4A10
4910
4890
4890
7810
4010
0010
0070
0000
ENDCHAR

STARTCHAR Cb1a6
ENCODING 45478
SWIDTH 1000 0
DWIDTH 16 0
BBX 16 16 0 -2
BITMAP
0000
0200
0200
7FFC
0200
0400
0400
0800
1FF0
2810
4810
0810
0810
0FF0
0810
0000
ENDCHAR

STARTCHAR Cb1a7
ENCODING 45479
SWIDTH 1000 0
DWIDTH 16 0
BBX 16 16 0 -2
BITMAP
0000
0100
0100
7FFC
4004
4004
1FF0
0100
0100
0100
7FFC
0100
0100
0100
0700
0000
ENDCHAR

STARTCHAR Cb1a8
ENCODING 45480
SWIDTH 1000 0
DWIDTH 16 0
BBX 16 16 0 -2
BITMAP
0000
0100
0200
1FF0
1010
1010
1FF0
1000
1FFC
1000
1FFC
0024
2494
2484
4438
0000
ENDCHAR

STARTCHAR Cb1a9
ENCODING 45481
SWIDTH 1000 0
DWIDTH 16 0
BBX 16 16 0 -2
BITMAP
0000
0000
7EFC
0204
0204
2244
1224
0A14
0204
060C
1A34
62C4
0204
0204
0E1C
0000
ENDCHAR

STARTCHAR Cb1aa
ENCODING 45482
SWIDTH 1000 0
DWIDTH 16 0
BBX 16 16 0 -2
BITMAP
0000
0000
43F8
2040
1040
0040
0040
77FC
1040
1040
1040
1040
11C0
2C00
43FC
0000
ENDCHAR

STARTCHAR Cb1ab
ENCODING 45483
SWIDTH 1000 0
DWIDTH 16 0
BBX 16 16 0 -2
BITMAP
0000
0000
7FFC
0100
0100
3FF8
2108
2948
2528
2108
2948
2528
2108
2108
2138
0000
ENDCHAR

STARTCHAR Cb1ac
ENCODING 45484
SWIDTH 1000 0
DWIDTH 16 0
BBX 16 16 0 -2
BITMAP
0000
0600
387C
2044
2244
2244
2244
2244
2244
2644
3A44
625C
0440
0440
1840
0000
ENDCHAR

STARTCHAR Cb1ad
ENCODING 45485
SWIDTH 1000 0
DWIDTH 16 0
BBX 16 16 0 -2
BITMAP
0000
4420
2840
7EF8
1288
12F8
7E88
50F8
5080
7EFC
1280
32FC
5754
5144
1218
0000
ENDCHAR

STARTCHAR Cb1ae
ENCODING 45486
SWIDTH 1000 0
DWIDTH 16 0
BBX 16 16 0 -2
BITMAP
0000
0100
7FFC
4084
4494
38F0
0000
08F8
3E88
08F8
0888
7EF8
0850
1494
631C
0000
ENDCHAR

STARTCHAR Cb1af
ENCODING 45487
SWIDTH 1000 0
DWIDTH 16 0
BBX 16 16 0 -2
BITMAP
0000
0000
1FE0
0420
0420
0420
0420
7FFC
0820
0820
0820
0820
0820
7FFC
0000
0000
ENDCHAR

STARTCHAR Cb1b0
ENCODING 45488
SWIDTH 1000 0
DWIDTH 16 0
BBX 16 16 0 -2
BITMAP
0000
0090
7C90
1120
13FC
1520
2120
3DF8
6520
2520
25F8
2520
2520
3D20
21FC
0000
ENDCHAR

STARTCHAR Cb1b1
ENCODING 45489
SWIDTH 1000 0
DWIDTH 16 0
BBX 16 16 0 -2
BITMAP
0000
0100
0600
3800
20F8
2008
2008
2008
3C78
2008
2008
2008
2008
3FF8
2008
0000
ENDCHAR

STARTCHAR Cb1b2
ENCODING 45490
SWIDTH 1000 0
DWIDTH 16 0
BBX 16 16 0 -2
BITMAP
0000
2000
13F8
0208
4278
2248
0248
07FC
1404
15F4
2514
2514
25F4
4404
441C
0000
ENDCHAR

STARTCHAR Cb1b3
ENCODING 45491
SWIDTH 1000 0
DWIDTH 16 0
BBX 16 16 0 -2
BITMAP
0000
0040
0078
7040
57FC
5484
54F0
5784
54FC
5400
5490
7694
4598
0890
0BFC
0000
ENDCHAR

STARTCHAR Cb1b4
ENCODING 45492
SWIDTH 1000 0
DWIDTH 16 0
BBX 16 16 0 -2
BITMAP
0000
0000
03F8
7A08
4A08
4BF8
4A08
4A08
4BF8
4A08
4A08
7BF8
4000
0118
0604
0000
ENDCHAR

STARTCHAR Cb1b5
ENCODING 45493
SWIDTH 1000 0
DWIDTH 16 0
BBX 16 16 0 -2
BITMAP
0000
0820
7EFC
2AA8
4924
0AA0
7FFC
4444
7FFC
2208
23FC
3E88
2048
2208
7D38
0000
ENDCHAR

STARTCHAR Cb1b6
ENCODING 45494
SWIDTH 1000 0
DWIDTH 16 0
BBX 16 16 0 -2
BITMAP
0000
0440
7FFC
0440
0008
3F08
2108
3FFC
2008
3F48
2428
2428
3508
5508
5438
0000
ENDCHAR

STARTCHAR Cb1b7
ENCODING 45495
SWIDTH 1000 0
DWIDTH 16 0
BBX 16 16 0 -2
BITMAP
0000
21FC
3904
49FC
1104
7DFC
5400
55FC
7D54
55FC
5400
7DFC
0088
5470
558C
0000
ENDCHAR

STARTCHAR Cb1b8
ENCODING 45496
SWIDTH 1000 0
DWIDTH 16 0
BBX 16 16 0 -2
BITMAP
0000
1040
1044
11F4
7C48
2450
27FC
2420
4440
44CC
2B70
1840
1440
2244
407C
0000
ENDCHAR

STARTCHAR Cb1b9
ENCODING 45497
SWIDTH 1000 0
DWIDTH 16 0
BBX 16 16 0 -2
BITMAP
0000
0000
3FFC
2000
2FFC
2950
2F50
2950
29FC
2F20
2820
2A50
4954
4E94
591C
0000
ENDCHAR

STARTCHAR Cb1ba
ENCODING 45498
SWIDTH 1000 0
DWIDTH 16 0
BBX 16 16 0 -2
BITMAP
0000
2050
1048
07FC
4040
23F8
0248
0248
13F8
1248
2248
23F8
2248
4248
4258
0000
ENDCHAR

STARTCHAR Cb1bb
ENCODING 45499
SWIDTH 1000 0
DWIDTH 16 0
BBX 16 16 0 -2
BITMAP
0000
00F0
1F20
1220
1220
1220
1220
1220
1220
2210
2250
2250
23A8
5C28
4004
0000
ENDCHAR

STARTCHAR Cb1bc
ENCODING 45500
SWIDTH 1000 0
DWIDTH 16 0
BBX 16 16 0 -2
BITMAP
0000
0000
7CF8
4488
7CF8
4488
7CF8
4008
5FC8
4208
4F88
4208
4208
5FC8
4038
0000
ENDCHAR

STARTCHAR Cb1bd
ENCODING 45501
SWIDTH 1000 0
DWIDTH 16 0
BBX 16 16 0 -2
BITMAP
0000
0210
0120
7BFC
48A0
4BF8
4AA8
4BF8
4A08
4BF8
4810
7BFC
4110
0090
0030
0000
ENDCHAR

STARTCHAR Cb1be
ENCODING 45502
SWIDTH 1000 0
DWIDTH 16 0
BBX 16 16 0 -2
BITMAP
0000
0000
1FF0
0000
0000
0000
0000
7FFC
0400
0400
0820
0810
1008
10F4
7F04
0000
ENDCHAR

STARTCHAR Cb1bf
ENCODING 45503
SWIDTH 1000 0
DWIDTH 16 0
BBX 16 16 0 -2
BITMAP
0000
0000
47FC
2444
13F8
0040
03F8
7248
13F8
1248
13F8
1040
17FC
2C40
43FC
0000
ENDCHAR

STARTCHAR Cb1c0
ENCODING 45504
SWIDTH 1000 0
DWIDTH 16 0
BBX 16 16 0 -2
BITMAP
0000
0000
3FF8
0100
7FFC
4104
5D74
0100
1FF0
0000
7FFC
0420
0810
11E8
3E04
0000
ENDCHAR

STARTCHAR Cb1c1
ENCODING 45505
SWIDTH 1000 0
DWIDTH 16 0
BBX 16 16 0 -2
BITMAP
0000
0440
7FFC
0440
0440
0838
0BC0
1040
3040
5040
17FC
1040
1040
1040
13FC
0000
ENDCHAR

STARTCHAR Cb1c2
ENCODING 45506
SWIDTH 1000 0
DWIDTH 16 0
BBX 16 16 0 -2
BITMAP
0000
0800
15FC
2288
4888
3EF8
2288
3E88
2288
22F8
3E88
2088
28BC
25C8
7A08
0000
ENDCHAR

STARTCHAR Cb1c3
ENCODING 45507
SWIDTH 1000 0
DWIDTH 16 0
BBX 16 16 0 -2
BITMAP
0000
0800
0E00
08FC
7F44
4144
3E44
0044
5D24
2228
7F28
2210
3E28
2248
3E84
0000
ENDCHAR

STARTCHAR Cb1c4
ENCODING 45508
SWIDTH 1000 0
DWIDTH 16 0
BBX 16 16 0 -2
BITMAP
0000
2210
1120
7FFC
4004
4FE4
0820
0820
0FE0
0100
0200
1FF0
1010
1010
1FF0
0000
ENDCHAR

STARTCHAR Cb1c5
ENCODING 45509
SWIDTH 1000 0
DWIDTH 16 0
BBX 16 16 0 -2
BITMAP
0000
3EF8
2288
3EF8
2288
3EF8
1450
2288
0200
7FFC
0420
0840
1C80
0370
7C0C
0000
ENDCHAR

STARTCHAR Cb1c6
ENCODING 45510
SWIDTH 1000 0
DWIDTH 16 0
BBX 16 16 0 -2
BITMAP
0000
3F08
2110
3F60
2100
3F00
0808
7F90
0060
3F00
2100
3F04
0808
2A10
5960
0000
ENDCHAR

STARTCHAR Cb1c7
ENCODING 45511
SWIDTH 1000 0
DWIDTH 16 0
BBX 16 16 0 -2
BITMAP
0000
0040
0040
7BF8
4A48
4A48
4A48
7A48
4FFC
48A0
48A0
7910
4110
0208
0404
0000
ENDCHAR

STARTCHAR Cb1c8
ENCODING 45512
SWIDTH 1000 0
DWIDTH 16 0
BBX 16 16 0 -2
BITMAP
0000
0200
0200
3FF0
2210
2210
3FF0
2210
2210
3FF0
0120
0140
0084
0764
781C
0000
ENDCHAR

STARTCHAR Cb1c9
ENCODING 45513
SWIDTH 1000 0
DWIDTH 16 0
BBX 16 16 0 -2
BITMAP
0000
2208
1110
0020
7FFC
4004
4104
0100
7FFC
0540
0540
0920
1110
610C
0100
0000
ENDCHAR

STARTCHAR Cb1ca
ENCODING 45514
SWIDTH 1000 0
DWIDTH 16 0
BBX 16 16 0 -2
BITMAP
0000
0600
0180
0000
1F08
0110
01A0
7940
0940
0920
1120
1110
2108
4104
0700
0000
ENDCHAR

STARTCHAR Cb1cb
ENCODING 45515
SWIDTH 1000 0
DWIDTH 16 0
BBX 16 16 0 -2
BITMAP
0000
2180
1060
0000
47C0
2044
0068
0750
1150
1150
2250
2248
2448
4844
41C0
0000
ENDCHAR

STARTCHAR Cb1cc
ENCODING 45516
SWIDTH 1000 0
DWIDTH 16 0
BBX 16 16 0 -2
BITMAP
0000
2080
1080
07F8
4488
2488
07F8
0488
1488
17F8
2090
20A0
2044
41B4
4E0C
0000
ENDCHAR

STARTCHAR Cb1cd
ENCODING 45517
SWIDTH 1000 0
DWIDTH 16 0
BBX 16 16 0 -2
BITMAP
0000
0110
07FC
7D10
1110
1040
13F8
7E48
1248
1248
17FC
1840
60A0
0110
060C
0000
ENDCHAR

STARTCHAR Cb1ce
ENCODING 45518
SWIDTH 1000 0
DWIDTH 16 0
BBX 16 16 0 -2
BITMAP
0000
3FF0
0810
0820
1FB8
1088
2D08
4208
1D70
0000
3FF0
2490
2490
2490
7FFC
0000
ENDCHAR

STARTCHAR Cb1cf
ENCODING 45519
SWIDTH 1000 0
DWIDTH 16 0
BBX 16 16 0 -2
BITMAP
0000
2000
26FC
3810
2220
3EFC
0084
06FC
3884
08FC
7E84
08FC
1C00
2A48
4984
0000
ENDCHAR

STARTCHAR Cb1d0
ENCODING 45520
SWIDTH 1000 0
DWIDTH 16 0
BBX 16 16 0 -2
BITMAP
0000
2000
26FC
3810
2220
3EFC
0084
3EFC
0084
00FC
7E84
08FC
2A00
2A48
4984
0000
ENDCHAR

STARTCHAR Cb1d1
ENCODING 45521
SWIDTH 1000 0
DWIDTH 16 0
BBX 16 16 0 -2
BITMAP
0000
0440
7FFC
0440
0440
0100
1FF0
1110
1110
1110
7FFC
0280
0440
1830
600C
0000
ENDCHAR

STARTCHAR Cb1d2
ENCODING 45522
SWIDTH 1000 0
DWIDTH 16 0
BBX 16 16 0 -2
BITMAP
0000
1100
17DC
2240
47E0
1000
17DC
2448
67C8
2088
27C8
2288
2FE8
2088
2098
0000
ENDCHAR

STARTCHAR Cb1d3
ENCODING 45523
SWIDTH 1000 0
DWIDTH 16 0
BBX 16 16 0 -2
BITMAP
0000
0180
3860
0000
7BC0
0044
3868
0750
3950
0150
3950
2A48
2A48
2C44
38C0
0000
ENDCHAR

STARTCHAR Cb1d4
ENCODING 45524
SWIDTH 1000 0
DWIDTH 16 0
BBX 16 16 0 -2
BITMAP
0000
0910
1490
22A0
41F8
3D08
0908
0908
7DF8
08A0
2AA0
28A0
0D24
7124
023C
0000
ENDCHAR

STARTCHAR Cb1d5
ENCODING 45525
SWIDTH 1000 0
DWIDTH 16 0
BBX 16 16 0 -2
BITMAP
0000
2080
1080
0FFC
4240
2240
0278
0488
14A8
1D50
2450
2420
2450
4488
4704
0000
ENDCHAR

STARTCHAR Cb1d6
ENCODING 45526
SWIDTH 1000 0
DWIDTH 16 0
BBX 16 16 0 -2
BITMAP
0000
0080
0080
1FFC
1000
53E0
3224
143C
1800
37F8
5210
1120
20C0
2330
4C0C
0000
ENDCHAR

STARTCHAR Cb1d7
ENCODING 45527
SWIDTH 1000 0
DWIDTH 16 0
BBX 16 16 0 -2
BITMAP
0000
1020
0820
0840
7FFC
0440
0820
1010
600C
1FF0
1290
1290
1290
1290
7FFC
0000
ENDCHAR

STARTCHAR Cb1d8
ENCODING 45528
SWIDTH 1000 0
DWIDTH 16 0
BBX 16 16 0 -2
BITMAP
0000
0000
3EF8
2888
3E88
2888
3E88
28F8
2890
3E90
0290
5690
5288
4288
0D04
0000
ENDCHAR

STARTCHAR Cb1d9
ENCODING 45529
SWIDTH 1000 0
DWIDTH 16 0
BBX 16 16 0 -2
BITMAP
0000
1110
1090
10A0
5BF8
5608
5208
5208
13F8
10A0
10A0
1120
1124
1224
143C
0000
ENDCHAR

STARTCHAR Cb1da
ENCODING 45530
SWIDTH 1000 0
DWIDTH 16 0
BBX 16 16 0 -2
BITMAP
0000
0000
3DF8
0108
7DF8
0108
3DF8
0080
3CFC
0104
3F24
25C4
2504
25E4
3C18
0000
ENDCHAR

STARTCHAR Cb1db
ENCODING 45531
SWIDTH 1000 0
DWIDTH 16 0
BBX 16 16 0 -2
BITMAP
0000
0828
0824
3E20
09FC
0920
7F24
0924
0928
2F28
2910
2BA8
3844
2C00
43FC
0000
ENDCHAR

STARTCHAR Cb1dc
ENCODING 45532
SWIDTH 1000 0
DWIDTH 16 0
BBX 16 16 0 -2
BITMAP
0000
0000
7CF8
4488
7CF8
4488
7CF8
4888
4508
4FC8
4848
4FC8
4488
44A8
58F8
0000
ENDCHAR

STARTCHAR Cb1dd
ENCODING 45533
SWIDTH 1000 0
DWIDTH 16 0
BBX 16 16 0 -2
BITMAP
0000
1000
13FC
1040
7DF8
1108
11F8
3908
55F8
5080
50F8
1108
1690
1060
179C
0000
ENDCHAR

STARTCHAR Cb1de
ENCODING 45534
SWIDTH 1000 0
DWIDTH 16 0
BBX 16 16 0 -2
BITMAP
0000
0000
3FFC
2890
2F98
2894
2FFC
2010
2F90
2890
2FA8
28A8
4FA8
48A4
48C4
0000
ENDCHAR

STARTCHAR Cb1df
ENCODING 45535
SWIDTH 1000 0
DWIDTH 16 0
BBX 16 16 0 -2
BITMAP
0000
0000
3FF8
2108
2108
2108
2108
2108
3FF8
2008
2008
2008
2008
2008
2038
0000
ENDCHAR

STARTCHAR Cb1e0
ENCODING 45536
SWIDTH 1000 0
DWIDTH 16 0
BBX 16 16 0 -2
BITMAP
0000
0000
7FF8
4208
4FC8
4208
5FE8
4848
4FC8
4228
4748
4A88
5248
4008
7FF8
0000
ENDCHAR

STARTCHAR Cb1e1
ENCODING 45537
SWIDTH 1000 0
DWIDTH 16 0
BBX 16 16 0 -2
BITMAP
0000
0000
13FC
1288
12F8
7E88
12F8
1240
13FC
1248
1288
1ED0
6228
0244
03FC
0000
ENDCHAR

STARTCHAR Cb1e2
ENCODING 45538
SWIDTH 1000 0
DWIDTH 16 0
BBX 16 16 0 -2
BITMAP
0000
0200
0200
7FFC
0440
0920
1110
3FFC
5110
1FF0
1110
1FF0
1104
0104
01FC
0000
ENDCHAR

STARTCHAR Cb1e3
ENCODING 45539
SWIDTH 1000 0
DWIDTH 16 0
BBX 16 16 0 -2
BITMAP
0000
0100
7FFC
5014
5FF4
1010
1FF0
0100
0200
7FFC
0420
0840
1C80
0370
7C0C
0000
ENDCHAR

STARTCHAR Cb1e4
ENCODING 45540
SWIDTH 1000 0
DWIDTH 16 0
BBX 16 16 0 -2
BITMAP
0000
0000
7818
09E0
1020
1020
2120
393C
0920
4920
4920
2BFC
1000
2C00
43FC
0000
ENDCHAR

STARTCHAR Cb1e5
ENCODING 45541
SWIDTH 1000 0
DWIDTH 16 0
BBX 16 16 0 -2
BITMAP
0000
1000
10F8
3E88
2288
54B8
1480
0884
1084
60FC
0200
2910
2908
4824
4FE4
0000
ENDCHAR

STARTCHAR Cb1e6
ENCODING 45542
SWIDTH 1000 0
DWIDTH 16 0
BBX 16 16 0 -2
BITMAP
0000
1040
1040
17FC
78A0
1110
1248
17FC
1A48
73F8
1248
13F8
1240
1044
307C
0000
ENDCHAR

STARTCHAR Cb1e7
ENCODING 45543
SWIDTH 1000 0
DWIDTH 16 0
BBX 16 16 0 -2
BITMAP
0000
101C
13E0
1088
7A48
1150
13FC
1480
1BFC
7080
11F8
1108
1290
1460
319C
0000
ENDCHAR

STARTCHAR Cb1e8
ENCODING 45544
SWIDTH 1000 0
DWIDTH 16 0
BBX 16 16 0 -2
BITMAP
0000
2110
1110
0110
4208
2208
0404
0000
13F8
1208
2208
2208
2208
43F8
4208
0000
ENDCHAR

STARTCHAR Cb1e9
ENCODING 45545
SWIDTH 1000 0
DWIDTH 16 0
BBX 16 16 0 -2
BITMAP
0000
2040
1040
07FC
4404
23F8
0040
03F8
1248
13F8
2248
23F8
2090
4108
4604
0000
ENDCHAR

STARTCHAR Cb1ea
ENCODING 45546
SWIDTH 1000 0
DWIDTH 16 0
BBX 16 16 0 -2
BITMAP
0000
0108
0908
1110
2280
0460
1818
6104
0108
0908
1110
2280
0440
1830
600C
0000
ENDCHAR

STARTCHAR Cb1eb
ENCODING 45547
SWIDTH 1000 0
DWIDTH 16 0
BBX 16 16 0 -2
BITMAP
0000
1020
103C
1244
5248
5488
5810
117C
1144
1144
297C
2944
2544
4544
417C
0000
ENDCHAR

STARTCHAR Cb1ec
ENCODING 45548
SWIDTH 1000 0
DWIDTH 16 0
BBX 16 16 0 -2
BITMAP
0000
1000
17FC
10A0
57F8
5AA8
52A8
12A8
13F8
1040
2840
27F8
2440
4040
47FC
0000
ENDCHAR

STARTCHAR Cb1ed
ENCODING 45549
SWIDTH 1000 0
DWIDTH 16 0
BBX 16 16 0 -2
BITMAP
0000
0440
7FFC
0440
07C0
1010
77DC
1450
1450
3454
57DC
0000
2488
2444
4444
0000
ENDCHAR

STARTCHAR Cb1ee
ENCODING 45550
SWIDTH 1000 0
DWIDTH 16 0
BBX 16 16 0 -2
BITMAP
0000
0440
4BF8
2840
17FC
3000
53F8
1208
1208
2BF8
28A4
4B28
0D10
09C8
3704
0000
ENDCHAR

STARTCHAR Cb1ef
ENCODING 45551
SWIDTH 1000 0
DWIDTH 16 0
BBX 16 16 0 -2
BITMAP
0000
1000
23F0
4810
2BF0
1010
27FC
4450
7C90
1354
5448
54A8
5724
5020
10C0
0000
ENDCHAR

STARTCHAR Cb1f0
ENCODING 45552
SWIDTH 1000 0
DWIDTH 16 0
BBX 16 16 0 -2
BITMAP
0000
2840
7E70
5290
7F20
52F8
7EA8
00A8
7EA8
24A8
24F8
3C80
0484
2884
7EFC
0000
ENDCHAR

STARTCHAR Cb1f1
ENCODING 45553
SWIDTH 1000 0
DWIDTH 16 0
BBX 16 16 0 -2
BITMAP
0000
0440
0440
7FFC
0440
1000
1EF8
1288
2288
5288
0CB8
0480
0884
1084
60FC
0000
ENDCHAR

STARTCHAR Cb1f2
ENCODING 45554
SWIDTH 1000 0
DWIDTH 16 0
BBX 16 16 0 -2
BITMAP
0000
0440
7FFC
0440
3FF8
2108
2FE8
2108
3FF8
2828
2FE8
2528
39C8
2128
3FF8
0000
ENDCHAR

STARTCHAR Cb1f3
ENCODING 45555
SWIDTH 1000 0
DWIDTH 16 0
BBX 16 16 0 -2
BITMAP
0000
0040
43F8
2040
17FC
0000
03F8
7208
1208
13F8
1044
10E8
1350
2C48
43FC
0000
ENDCHAR

STARTCHAR Cb1f4
ENCODING 45556
SWIDTH 1000 0
DWIDTH 16 0
BBX 16 16 0 -2
BITMAP
0000
0850
1450
2250
4088
3E88
0904
0800
7EF8
0888
2A88
2888
0E88
70F8
0088
0000
ENDCHAR

STARTCHAR Cb1f5
ENCODING 45557
SWIDTH 1000 0
DWIDTH 16 0
BBX 16 16 0 -2
BITMAP
0000
1000
1EF8
2288
5480
0A84
1FFC
6820
0FE0
0820
0FFC
0800
2FFC
2924
491C
0000
ENDCHAR

STARTCHAR Cb1f6
ENCODING 45558
SWIDTH 1000 0
DWIDTH 16 0
BBX 16 16 0 -2
BITMAP
0000
0100
11F8
1200
15F0
7D10
1110
11F0
1000
13F8
12A8
1EA8
62A8
02A8
07FC
0000
ENDCHAR

STARTCHAR Cb1f7
ENCODING 45559
SWIDTH 1000 0
DWIDTH 16 0
BBX 16 16 0 -2
BITMAP
0000
1020
1050
7C88
2104
2000
3C00
2460
2410
2408
2400
24C0
2420
4410
5808
0000
ENDCHAR

STARTCHAR Cb1f8
ENCODING 45560
SWIDTH 1000 0
DWIDTH 16 0
BBX 16 16 0 -2
BITMAP
0000
2000
17FC
0080
4080
2FFC
0100
0100
11F8
1208
2208
2008
2008
4008
4070
0000
ENDCHAR

STARTCHAR Cb1f9
ENCODING 45561
SWIDTH 1000 0
DWIDTH 16 0
BBX 16 16 0 -2
BITMAP
0000
0800
29FC
2924
3FFC
4924
4924
09FC
3E20
09FC
0824
0844
0E44
7084
0318
0000
ENDCHAR

STARTCHAR Cb1fa
ENCODING 45562
SWIDTH 1000 0
DWIDTH 16 0
BBX 16 16 0 -2
BITMAP
0000
0000
0000
3C78
2448
2448
2448
2448
27C8
2008
2008
2008
2008
3FF8
2008
0000
ENDCHAR

STARTCHAR Cb1fb
ENCODING 45563
SWIDTH 1000 0
DWIDTH 16 0
BBX 16 16 0 -2
BITMAP
0000
0100
0100
0100
1FF0
1110
1110
1110
1110
7FFC
0280
0240
0420
1810
600C
0000
ENDCHAR

STARTCHAR Cb1fc
ENCODING 45564
SWIDTH 1000 0
DWIDTH 16 0
BBX 16 16 0 -2
BITMAP
0000
0200
0400
1FF0
1110
1550
1FF0
1110
1390
1D50
1110
7FFC
0280
0C60
701C
0000
ENDCHAR

STARTCHAR Cb1fd
ENCODING 45565
SWIDTH 1000 0
DWIDTH 16 0
BBX 16 16 0 -2
BITMAP
0000
1100
1080
2040
4FFC
0840
1040
1040
3040
53F8
1040
1040
1040
1040
17FC
0000
ENDCHAR

STARTCHAR Cb1fe
ENCODING 45566
SWIDTH 1000 0
DWIDTH 16 0
BBX 16 16 0 -2
BITMAP
0000
0080
0080
3FFC
2100
2080
2040
2240
2210
2A08
2A04
2A04
5210
5210
43F0
0000
ENDCHAR

STARTCHAR Cb2a1
ENCODING 45729
SWIDTH 1000 0
DWIDTH 16 0
BBX 16 16 0 -2
BITMAP
0000
1000
13FC
1244
7E44
13FC
1244
1244
1E44
73FC
1040
1040
1040
1040
3040
0000
ENDCHAR

STARTCHAR Cb2a2
ENCODING 45730
SWIDTH 1000 0
DWIDTH 16 0
BBX 16 16 0 -2
BITMAP
0000
0000
03FC
7C40
4440
4440
4440
7C40
45F8
4440
4440
4440
7C40
4040
03FC
0000
ENDCHAR

STARTCHAR Cb2a3
ENCODING 45731
SWIDTH 1000 0
DWIDTH 16 0
BBX 16 16 0 -2
BITMAP
0000
1110
1110
13F8
7D10
17FC
1040
3BF8
5648
53F8
5248
1248
13F8
1110
160C
0000
ENDCHAR

STARTCHAR Cb2a4
ENCODING 45732
SWIDTH 1000 0
DWIDTH 16 0
BBX 16 16 0 -2
BITMAP
0000
0040
7E40
4040
447C
64A4
54A8
4920
4820
5450
6450
4050
7E88
4088
0104
0000
ENDCHAR

STARTCHAR Cb2a5
ENCODING 45733
SWIDTH 1000 0
DWIDTH 16 0
BBX 16 16 0 -2
BITMAP
0000
0000
7EF0
4090
4490
6494
551C
4800
49F8
5488
6488
4050
7E20
4050
018C
0000
ENDCHAR

STARTCHAR Cb2a6
ENCODING 45734
SWIDTH 1000 0
DWIDTH 16 0
BBX 16 16 0 -2
BITMAP
0000
0000
3FF8
0100
0100
0100
0100
1FF0
0100
0100
0100
0100
0100
7FFC
0000
0000
ENDCHAR

STARTCHAR Cb2a7
ENCODING 45735
SWIDTH 1000 0
DWIDTH 16 0
BBX 16 16 0 -2
BITMAP
0000
0440
0820
1210
644C
0820
1FD0
0000
7EFC
2244
1224
0204
1A34
62C4
060C
0000
ENDCHAR

STARTCHAR Cb2a8
ENCODING 45736
SWIDTH 1000 0
DWIDTH 16 0
BBX 16 16 0 -2
BITMAP
0000
1040
13FC
7E44
0654
0BFC
0A44
12E4
375C
5A44
17FC
1040
10A0
1110
160C
0000
ENDCHAR

STARTCHAR Cb2a9
ENCODING 45737
SWIDTH 1000 0
DWIDTH 16 0
BBX 16 16 0 -2
BITMAP
0000
1210
0920
7FFC
4104
4FE4
0820
0FE0
0820
0FFC
0800
0FFC
2924
2494
449C
0000
ENDCHAR

STARTCHAR Cb2aa
ENCODING 45738
SWIDTH 1000 0
DWIDTH 16 0
BBX 16 16 0 -2
BITMAP
0000
0040
7C80
41F8
4508
65F8
5508
49F8
4900
55FC
6500
41FC
7EA4
42A4
0418
0000
ENDCHAR

STARTCHAR Cb2ab
ENCODING 45739
SWIDTH 1000 0
DWIDTH 16 0
BBX 16 16 0 -2
BITMAP
0000
0440
0440
3FF8
0440
7FFC
0100
1FF0
1110
1FF0
1110
1FF0
0000
0C70
700C
0000
ENDCHAR

STARTCHAR Cb2ac
ENCODING 45740
SWIDTH 1000 0
DWIDTH 16 0
BBX 16 16 0 -2
BITMAP
0000
0000
3FF8
2848
2448
2488
3FF8
2108
2108
2928
2928
2928
2FE8
2008
2038
0000
ENDCHAR

STARTCHAR Cb2ad
ENCODING 45741
SWIDTH 1000 0
DWIDTH 16 0
BBX 16 16 0 -2
BITMAP
0000
2040
1040
0040
47FC
2444
0444
0444
1444
17FC
2040
2040
2040
4040
4040
0000
ENDCHAR

STARTCHAR Cb2ae
ENCODING 45742
SWIDTH 1000 0
DWIDTH 16 0
BBX 16 16 0 -2
BITMAP
0000
0440
0440
7FFC
0440
2820
1024
28A4
48A8
0920
1420
2450
4450
0488
1904
0000
ENDCHAR

STARTCHAR Cb2af
ENCODING 45743
SWIDTH 1000 0
DWIDTH 16 0
BBX 16 16 0 -2
BITMAP
0000
0840
0BF8
0910
17FC
1000
33F8
5208
13F8
1208
13F8
1080
1548
1514
19F4
0000
ENDCHAR

STARTCHAR Cb2b0
ENCODING 45744
SWIDTH 1000 0
DWIDTH 16 0
BBX 16 16 0 -2
BITMAP
0000
0000
3FF8
2008
3FF8
2000
3FFC
2220
2410
2FE8
2080
2080
4FF8
4080
5FFC
0000
ENDCHAR

STARTCHAR Cb2b1
ENCODING 45745
SWIDTH 1000 0
DWIDTH 16 0
BBX 16 16 0 -2
BITMAP
0000
1040
13F8
1110
57FC
5400
53F8
5208
13F8
1208
13F8
1080
1548
1514
19F4
0000
ENDCHAR

STARTCHAR Cb2b2
ENCODING 45746
SWIDTH 1000 0
DWIDTH 16 0
BBX 16 16 0 -2
BITMAP
0000
0040
3DF8
2490
27FC
2400
3DF8
2508
25F8
2508
3DF8
2400
24A8
2684
4CF4
0000
ENDCHAR

STARTCHAR Cb2b3
ENCODING 45747
SWIDTH 1000 0
DWIDTH 16 0
BBX 16 16 0 -2
BITMAP
0000
1000
13F8
1010
7CA0
13FC
1244
3A44
57FC
5244
5244
13FC
1244
1244
125C
0000
ENDCHAR

STARTCHAR Cb2b4
ENCODING 45748
SWIDTH 1000 0
DWIDTH 16 0
BBX 16 16 0 -2
BITMAP
0000
0840
2840
2840
3C40
49F8
4840
0840
0C40
1840
6840
0840
0840
0BFC
0800
0000
ENDCHAR

STARTCHAR Cb2b5
ENCODING 45749
SWIDTH 1000 0
DWIDTH 16 0
BBX 16 16 0 -2
BITMAP
0000
0000
3FE0
0020
0040
0180
0200
0400
0800
1000
1000
2008
2008
1FF8
0000
0000
ENDCHAR

STARTCHAR Cb2b6
ENCODING 45750
SWIDTH 1000 0
DWIDTH 16 0
BBX 16 16 0 -2
BITMAP
0000
0880
0880
0FF8
1140
1220
3498
5FF4
1490
17F0
1490
17F0
1484
1084
10FC
0000
ENDCHAR

STARTCHAR Cb2b7
ENCODING 45751
SWIDTH 1000 0
DWIDTH 16 0
BBX 16 16 0 -2
BITMAP
0000
1000
107C
3F44
2844
4844
3F44
0844
0844
2F44
2844
285C
2F40
7040
0040
0000
ENDCHAR

STARTCHAR Cb2b8
ENCODING 45752
SWIDTH 1000 0
DWIDTH 16 0
BBX 16 16 0 -2
BITMAP
0000
0000
1FF0
1110
1110
17D0
1110
1290
1450
1FF0
0200
2910
2908
4824
4FE4
0000
ENDCHAR

STARTCHAR Cb2b9
ENCODING 45753
SWIDTH 1000 0
DWIDTH 16 0
BBX 16 16 0 -2
BITMAP
0000
2000
13F0
0210
43F0
2210
0210
03F0
1000
17F8
2528
2528
2528
4528
4FFC
0000
ENDCHAR

STARTCHAR Cb2ba
ENCODING 45754
SWIDTH 1000 0
DWIDTH 16 0
BBX 16 16 0 -2
BITMAP
0000
0C30
73C8
1288
1150
7FF8
1008
11F8
3808
55F8
5040
50A8
1284
1294
14F0
0000
ENDCHAR

STARTCHAR Cb2bb
ENCODING 45755
SWIDTH 1000 0
DWIDTH 16 0
BBX 16 16 0 -2
BITMAP
0000
0100
0100
3FF8
0820
0440
7FFC
0000
1FF0
1010
1010
1FF0
1010
1010
1FF0
0000
ENDCHAR

STARTCHAR Cb2bc
ENCODING 45756
SWIDTH 1000 0
DWIDTH 16 0
BBX 16 16 0 -2
BITMAP
0000
0000
7FFC
0100
0100
0180
0160
0110
0108
0100
0100
0100
0100
0100
0100
0000
ENDCHAR

STARTCHAR Cb2bd
ENCODING 45757
SWIDTH 1000 0
DWIDTH 16 0
BBX 16 16 0 -2
BITMAP
0000
0900
0900
0900
1108
1130
31C0
5100
1100
1100
1100
1104
1104
1104
11FC
0000
ENDCHAR

STARTCHAR Cb2be
ENCODING 45758
SWIDTH 1000 0
DWIDTH 16 0
BBX 16 16 0 -2
BITMAP
0000
0800
0BFC
0A00
1200
1200
33F8
5288
1288
1288
1250
1250
1420
1450
198C
0000
ENDCHAR

STARTCHAR Cb2bf
ENCODING 45759
SWIDTH 1000 0
DWIDTH 16 0
BBX 16 16 0 -2
BITMAP
0000
0800
0BFC
0808
1008
1008
33C8
5248
1248
1248
13C8
1208
1008
1008
1038
0000
ENDCHAR

STARTCHAR Cb2c0
ENCODING 45760
SWIDTH 1000 0
DWIDTH 16 0
BBX 16 16 0 -2
BITMAP
0000
1200
1200
123C
2FA4
22A4
62A4
22A4
22A4
24A4
24A4
24A4
24A4
28BC
29A4
0000
ENDCHAR

STARTCHAR Cb2c1
ENCODING 45761
SWIDTH 1000 0
DWIDTH 16 0
BBX 16 16 0 -2
BITMAP
0000
0800
0FFC
08A0
10A0
10A0
37FC
54A4
14A4
14A4
14A4
14A4
14A4
17FC
1404
0000
ENDCHAR

STARTCHAR Cb2c2
ENCODING 45762
SWIDTH 1000 0
DWIDTH 16 0
BBX 16 16 0 -2
BITMAP
0000
0840
0840
0BF8
1040
1040
3040
57FC
1040
1040
13F8
1040
1040
1040
17FC
0000
ENDCHAR

STARTCHAR Cb2c3
ENCODING 45763
SWIDTH 1000 0
DWIDTH 16 0
BBX 16 16 0 -2
BITMAP
0000
1000
1000
107C
7E44
1244
1244
1244
1244
1244
1244
2244
2244
227C
4C44
0000
ENDCHAR

STARTCHAR Cb2c4
ENCODING 45764
SWIDTH 1000 0
DWIDTH 16 0
BBX 16 16 0 -2
BITMAP
0000
0000
7FFC
0010
0010
0010
1F10
1110
1110
1110
1110
1F10
1010
0010
0070
0000
ENDCHAR

STARTCHAR Cb2c5
ENCODING 45765
SWIDTH 1000 0
DWIDTH 16 0
BBX 16 16 0 -2
BITMAP
0000
0100
7FFC
0100
3FF8
0000
1FF0
1010
1FF0
0440
7FFC
1000
7F7C
1144
667C
0000
ENDCHAR

STARTCHAR Cb2c6
ENCODING 45766
SWIDTH 1000 0
DWIDTH 16 0
BBX 16 16 0 -2
BITMAP
0000
0000
7FFC
0200
1FF0
1010
1FF0
1010
1FF0
0400
07F0
0820
3640
0180
7E7C
0000
ENDCHAR

STARTCHAR Cb2c7
ENCODING 45767
SWIDTH 1000 0
DWIDTH 16 0
BBX 16 16 0 -2
BITMAP
0000
1020
1020
11FC
7D04
2400
25FC
2450
4490
4554
2848
18A8
1524
2024
40C0
0000
ENDCHAR

STARTCHAR Cb2c8
ENCODING 45768
SWIDTH 1000 0
DWIDTH 16 0
BBX 16 16 0 -2
BITMAP
0000
0100
0100
7FFC
4004
5FF4
0280
0C80
3248
0550
1920
62A0
0C90
3088
0300
0000
ENDCHAR

STARTCHAR Cb2c9
ENCODING 45769
SWIDTH 1000 0
DWIDTH 16 0
BBX 16 16 0 -2
BITMAP
0000
0100
0100
7FFC
4204
4FE4
0820
0FE0
0820
7FFC
0820
1FF0
622C
0420
18C0
0000
ENDCHAR

STARTCHAR Cb2ca
ENCODING 45770
SWIDTH 1000 0
DWIDTH 16 0
BBX 16 16 0 -2
BITMAP
0000
0C10
7090
1050
1010
7D10
1090
1010
3810
541C
51F0
5010
1010
1010
1010
0000
ENDCHAR

STARTCHAR Cb2cb
ENCODING 45771
SWIDTH 1000 0
DWIDTH 16 0
BBX 16 16 0 -2
BITMAP
0000
0000
77BC
5484
5484
57BC
5400
7400
57BC
5424
5424
57A8
7410
0428
0444
0000
ENDCHAR

STARTCHAR Cb2cc
ENCODING 45772
SWIDTH 1000 0
DWIDTH 16 0
BBX 16 16 0 -2
BITMAP
0000
0000
1FF0
1110
1110
1FF0
1110
1110
1FF0
0100
7FFC
0540
0920
1110
610C
0000
ENDCHAR

STARTCHAR Cb2cd
ENCODING 45773
SWIDTH 1000 0
DWIDTH 16 0
BBX 16 16 0 -2
BITMAP
0000
1000
10F8
7E88
1288
1288
2288
4CF8
0100
0100
7FFC
0540
0920
1110
610C
0000
ENDCHAR

STARTCHAR Cb2ce
ENCODING 45774
SWIDTH 1000 0
DWIDTH 16 0
BBX 16 16 0 -2
BITMAP
0000
0040
7F40
0240
3A7C
2AA4
3AA8
0220
7F20
0250
3A50
2A50
3A88
0288
0D04
0000
ENDCHAR

STARTCHAR Cb2cf
ENCODING 45775
SWIDTH 1000 0
DWIDTH 16 0
BBX 16 16 0 -2
BITMAP
0000
2000
17FC
0008
4008
2008
03C8
0248
1248
1248
23C8
2208
2008
4008
4038
0000
ENDCHAR

STARTCHAR Cb2d0
ENCODING 45776
SWIDTH 1000 0
DWIDTH 16 0
BBX 16 16 0 -2
BITMAP
0000
0100
0100
0108
1108
1110
1110
2120
2280
0280
0440
0440
0820
1010
600C
0000
ENDCHAR

STARTCHAR Cb2d1
ENCODING 45777
SWIDTH 1000 0
DWIDTH 16 0
BBX 16 16 0 -2
BITMAP
0000
0000
03FC
7C08
1008
1008
11E8
7D28
1128
1128
11E8
1D08
6008
0008
0038
0000
ENDCHAR

STARTCHAR Cb2d2
ENCODING 45778
SWIDTH 1000 0
DWIDTH 16 0
BBX 16 16 0 -2
BITMAP
0000
1000
11F8
7D08
0578
0948
0948
13FC
3A04
56F4
1294
1294
12F4
1204
120C
0000
ENDCHAR

STARTCHAR Cb2d3
ENCODING 45779
SWIDTH 1000 0
DWIDTH 16 0
BBX 16 16 0 -2
BITMAP
0000
0030
01C0
3F00
0100
0100
7FFC
0540
0540
0920
0920
1110
2108
4104
0100
0000
ENDCHAR

STARTCHAR Cb2d4
ENCODING 45780
SWIDTH 1000 0
DWIDTH 16 0
BBX 16 16 0 -2
BITMAP
0000
0C40
7040
13FC
1204
7C00
13FC
1050
3090
5B54
5448
50A8
1324
1024
10C0
0000
ENDCHAR

STARTCHAR Cb2d5
ENCODING 45781
SWIDTH 1000 0
DWIDTH 16 0
BBX 16 16 0 -2
BITMAP
0000
1040
1E7C
2890
4508
3FF8
2108
2FE8
2108
27C8
2448
2448
27C8
2008
3FF8
0000
ENDCHAR

STARTCHAR Cb2d6
ENCODING 45782
SWIDTH 1000 0
DWIDTH 16 0
BBX 16 16 0 -2
BITMAP
0000
0440
0440
7FFC
0440
0000
0880
0884
1098
30E0
5080
1080
1084
1084
10FC
0000
ENDCHAR

STARTCHAR Cb2d7
ENCODING 45783
SWIDTH 1000 0
DWIDTH 16 0
BBX 16 16 0 -2
BITMAP
0000
0440
0440
7FFC
0440
0000
7FFC
0010
0010
1F10
1110
1110
1F10
1010
0070
0000
ENDCHAR

STARTCHAR Cb2d8
ENCODING 45784
SWIDTH 1000 0
DWIDTH 16 0
BBX 16 16 0 -2
BITMAP
0000
0440
0440
7FFC
0440
1440
1000
7EF8
1288
1288
1288
1288
2288
22F8
4C88
0000
ENDCHAR

STARTCHAR Cb2d9
ENCODING 45785
SWIDTH 1000 0
DWIDTH 16 0
BBX 16 16 0 -2
BITMAP
0000
0440
0440
7FFC
0440
0800
0BFC
1008
1008
33C8
5248
1248
13C8
1008
1038
0000
ENDCHAR

STARTCHAR Cb2da
ENCODING 45786
SWIDTH 1000 0
DWIDTH 16 0
BBX 16 16 0 -2
BITMAP
0000
0440
7FFC
0440
0000
3FF8
0920
7FFC
0920
0920
3FF8
0100
7FFC
0100
0100
0000
ENDCHAR

STARTCHAR Cb2db
ENCODING 45787
SWIDTH 1000 0
DWIDTH 16 0
BBX 16 16 0 -2
BITMAP
0000
0440
0440
7FFC
0440
1FF0
1110
1FF0
1110
1FF0
0100
7FFC
0540
1930
610C
0000
ENDCHAR

STARTCHAR Cb2dc
ENCODING 45788
SWIDTH 1000 0
DWIDTH 16 0
BBX 16 16 0 -2
BITMAP
0000
1000
11DC
1144
7D44
55DC
5500
5500
55DC
7D14
1114
11C8
1508
1D14
6524
0000
ENDCHAR

STARTCHAR Cb2dd
ENCODING 45789
SWIDTH 1000 0
DWIDTH 16 0
BBX 16 16 0 -2
BITMAP
0000
0000
3BF8
0248
7E48
03F8
3A48
0248
3BF8
0040
3FFC
2950
2950
2A48
3C44
0000
ENDCHAR

STARTCHAR Cb2de
ENCODING 45790
SWIDTH 1000 0
DWIDTH 16 0
BBX 16 16 0 -2
BITMAP
0000
0110
07FC
7910
4800
4FFC
4950
4FFC
4950
4950
4FFC
7840
47FC
0040
0040
0000
ENDCHAR

STARTCHAR Cb2df
ENCODING 45791
SWIDTH 1000 0
DWIDTH 16 0
BBX 16 16 0 -2
BITMAP
0000
0500
0918
19E0
6900
0904
1FFC
1010
1FF0
1010
1FF0
1010
1FF0
0820
701C
0000
ENDCHAR

STARTCHAR Cb2e0
ENCODING 45792
SWIDTH 1000 0
DWIDTH 16 0
BBX 16 16 0 -2
BITMAP
0000
0200
423C
27A4
12A4
02A4
02A4
72A4
12A4
14A4
14BC
19A4
1000
2C00
43FC
0000
ENDCHAR

STARTCHAR Cb2e1
ENCODING 45793
SWIDTH 1000 0
DWIDTH 16 0
BBX 16 16 0 -2
BITMAP
0000
0000
43F0
2210
12F0
0290
07F8
7408
15E8
1528
15E8
1408
1438
2C00
43FC
0000
ENDCHAR

STARTCHAR Cb2e2
ENCODING 45794
SWIDTH 1000 0
DWIDTH 16 0
BBX 16 16 0 -2
BITMAP
0000
0000
3FF8
0100
7FFC
4104
1D70
0000
3EF8
2208
3EF8
2088
3E50
2020
3EDC
0000
ENDCHAR

STARTCHAR Cb2e3
ENCODING 45795
SWIDTH 1000 0
DWIDTH 16 0
BBX 16 16 0 -2
BITMAP
0000
1020
1020
1020
7DFC
5488
5488
5488
5488
7C50
5050
1420
1450
1A88
6304
0000
ENDCHAR

STARTCHAR Cb2e4
ENCODING 45796
SWIDTH 1000 0
DWIDTH 16 0
BBX 16 16 0 -2
BITMAP
0000
08A0
0B28
0924
1120
17FC
3120
5120
1128
11A8
1710
1110
1128
1128
1344
0000
ENDCHAR

STARTCHAR Cb2e5
ENCODING 45797
SWIDTH 1000 0
DWIDTH 16 0
BBX 16 16 0 -2
BITMAP
0000
10A0
1328
1124
5520
57FC
5520
5520
5528
55A8
5710
5510
7D28
4128
0344
0000
ENDCHAR

STARTCHAR Cb2e6
ENCODING 45798
SWIDTH 1000 0
DWIDTH 16 0
BBX 16 16 0 -2
BITMAP
0000
0280
0C90
7888
0880
0880
7FFC
0880
0888
0E88
7850
0850
0824
0854
398C
0000
ENDCHAR

STARTCHAR Cb2e7
ENCODING 45799
SWIDTH 1000 0
DWIDTH 16 0
BBX 16 16 0 -2
BITMAP
0000
0000
0FF8
0820
0820
0820
0820
7FFC
00A0
0120
0220
0420
1820
6020
01E0
0000
ENDCHAR

STARTCHAR Cb2e8
ENCODING 45800
SWIDTH 1000 0
DWIDTH 16 0
BBX 16 16 0 -2
BITMAP
0000
0000
7FF8
0200
0200
5FE8
5228
5228
5FE8
5228
5228
5FE8
4008
7FF8
4008
0000
ENDCHAR

STARTCHAR Cb2e9
ENCODING 45801
SWIDTH 1000 0
DWIDTH 16 0
BBX 16 16 0 -2
BITMAP
0000
0040
7E40
4840
4840
7E40
4240
42A0
7EA0
48A0
4910
4910
7E08
4208
0404
0000
ENDCHAR

STARTCHAR Cb2ea
ENCODING 45802
SWIDTH 1000 0
DWIDTH 16 0
BBX 16 16 0 -2
BITMAP
0000
0440
0440
7FFC
0440
0000
3FF8
0840
0840
7FFC
0140
0240
0440
1840
61C0
0000
ENDCHAR

STARTCHAR Cb2eb
ENCODING 45803
SWIDTH 1000 0
DWIDTH 16 0
BBX 16 16 0 -2
BITMAP
0000
10A0
1328
1124
7D20
57FC
5520
5520
5528
7DA8
5310
1110
1528
1D28
6344
0000
ENDCHAR

STARTCHAR Cb2ec
ENCODING 45804
SWIDTH 1000 0
DWIDTH 16 0
BBX 16 16 0 -2
BITMAP
0000
1000
7EF8
1288
2EF8
4000
1FF0
1010
1FF0
1010
1FF0
1010
1FF0
0820
701C
0000
ENDCHAR

STARTCHAR Cb2ed
ENCODING 45805
SWIDTH 1000 0
DWIDTH 16 0
BBX 16 16 0 -2
BITMAP
0000
0048
7E48
2490
24FC
2590
2490
7EFC
0490
0C90
14FC
2490
4490
0490
1CFC
0000
ENDCHAR

STARTCHAR Cb2ee
ENCODING 45806
SWIDTH 1000 0
DWIDTH 16 0
BBX 16 16 0 -2
BITMAP
0000
08A0
1528
2324
4920
3FFC
2520
3D20
25A8
2728
3D10
2110
2928
2528
7B44
0000
ENDCHAR

STARTCHAR Cb2ef
ENCODING 45807
SWIDTH 1000 0
DWIDTH 16 0
BBX 16 16 0 -2
BITMAP
0000
1000
7EF8
1288
1288
26F8
2000
5FF8
1100
1FF0
1100
1FFC
2004
2924
492C
0000
ENDCHAR

STARTCHAR Cb2f0
ENCODING 45808
SWIDTH 1000 0
DWIDTH 16 0
BBX 16 16 0 -2
BITMAP
0000
0100
0280
0440
0820
1010
600C
0820
0820
0820
0820
0820
1020
1020
2020
0000
ENDCHAR

STARTCHAR Cb2f1
ENCODING 45809
SWIDTH 1000 0
DWIDTH 16 0
BBX 16 16 0 -2
BITMAP
0000
0100
0280
0440
0820
1010
6FEC
0000
0000
3FF8
0400
0420
0810
08E8
3F08
0000
ENDCHAR

STARTCHAR Cb2f2
ENCODING 45810
SWIDTH 1000 0
DWIDTH 16 0
BBX 16 16 0 -2
BITMAP
0000
1000
1DF8
2448
4848
3E98
2B00
2AA0
3EF8
2B20
2A20
3FFC
2220
4220
4620
0000
ENDCHAR

STARTCHAR Cb2f3
ENCODING 45811
SWIDTH 1000 0
DWIDTH 16 0
BBX 16 16 0 -2
BITMAP
0000
0000
0000
7FF8
4008
4008
4FC8
4848
4848
4848
4FC8
4008
4008
7FF8
4008
0000
ENDCHAR

STARTCHAR Cb2f4
ENCODING 45812
SWIDTH 1000 0
DWIDTH 16 0
BBX 16 16 0 -2
BITMAP
0000
0040
1080
13F8
1248
7FF8
1248
1248
13F8
10A0
1CA8
6138
0120
0224
0C3C
0000
ENDCHAR

STARTCHAR Cb2f5
ENCODING 45813
SWIDTH 1000 0
DWIDTH 16 0
BBX 16 16 0 -2
BITMAP
0000
0040
17FC
1040
13F8
7EA8
12A8
13F8
1040
17FC
18A4
6328
0D10
01C8
0704
0000
ENDCHAR

STARTCHAR Cb2f6
ENCODING 45814
SWIDTH 1000 0
DWIDTH 16 0
BBX 16 16 0 -2
BITMAP
0000
0000
7BFC
0A04
1204
12F4
2294
3A94
0AF4
4A04
4A04
2BFC
1000
2C00
43FC
0000
ENDCHAR

STARTCHAR Cb2f7
ENCODING 45815
SWIDTH 1000 0
DWIDTH 16 0
BBX 16 16 0 -2
BITMAP
0000
1040
1040
13F8
5848
5448
5048
5048
17FC
10A0
10A0
1110
1110
1208
1404
0000
ENDCHAR

STARTCHAR Cb2f8
ENCODING 45816
SWIDTH 1000 0
DWIDTH 16 0
BBX 16 16 0 -2
BITMAP
0000
1000
13F0
1110
5510
54A0
5440
50B0
130C
1040
1040
13F8
1040
1040
17FC
0000
ENDCHAR

STARTCHAR Cb2f9
ENCODING 45817
SWIDTH 1000 0
DWIDTH 16 0
BBX 16 16 0 -2
BITMAP
0000
1100
1100
11FC
5A00
55F8
5548
5148
13FC
1148
1148
1148
13FC
1208
1030
0000
ENDCHAR

STARTCHAR Cb2fa
ENCODING 45818
SWIDTH 1000 0
DWIDTH 16 0
BBX 16 16 0 -2
BITMAP
0000
1000
13FC
1200
5A20
5624
52A4
52A8
12A0
1220
1250
1250
1488
1488
1904
0000
ENDCHAR

STARTCHAR Cb2fb
ENCODING 45819
SWIDTH 1000 0
DWIDTH 16 0
BBX 16 16 0 -2
BITMAP
0000
1040
17FC
1040
5BF8
56A8
52A8
53F8
1040
17FC
10A4
1128
1710
11C8
1704
0000
ENDCHAR

STARTCHAR Cb2fc
ENCODING 45820
SWIDTH 1000 0
DWIDTH 16 0
BBX 16 16 0 -2
BITMAP
0000
0090
0088
7FFC
0080
0080
1288
1248
7F50
1250
1220
2224
2254
4094
030C
0000
ENDCHAR

STARTCHAR Cb2fd
ENCODING 45821
SWIDTH 1000 0
DWIDTH 16 0
BBX 16 16 0 -2
BITMAP
0000
1000
11F8
1108
7D08
1108
11F8
1000
1C00
73FC
1044
1044
1084
1104
3238
0000
ENDCHAR

STARTCHAR Cb2fe
ENCODING 45822
SWIDTH 1000 0
DWIDTH 16 0
BBX 16 16 0 -2
BITMAP
0000
0080
7C80
04FC
0488
0508
7D08
4688
4088
4050
4250
4220
7E50
0088
0304
0000
ENDCHAR

STARTCHAR Cb3a1
ENCODING 45985
SWIDTH 1000 0
DWIDTH 16 0
BBX 16 16 0 -2
BITMAP
0000
0808
1048
7F28
4908
4948
7F28
4908
490C
7F78
1508
1548
25C8
2404
47FC
0000
ENDCHAR

STARTCHAR Cb3a2
ENCODING 45986
SWIDTH 1000 0
DWIDTH 16 0
BBX 16 16 0 -2
BITMAP
0000
0100
0100
7BFC
4A00
4FF8
4A48
7A48
4FFC
4A48
4A48
7A48
47FC
0408
0030
0000
ENDCHAR

STARTCHAR Cb3a3
ENCODING 45987
SWIDTH 1000 0
DWIDTH 16 0
BBX 16 16 0 -2
BITMAP
0000
1028
1024
1020
7FFC
1020
12A0
3AA4
57E4
52A8
52A8
12B0
1424
1054
108C
0000
ENDCHAR

STARTCHAR Cb3a4
ENCODING 45988
SWIDTH 1000 0
DWIDTH 16 0
BBX 16 16 0 -2
BITMAP
0000
2200
1200
07FC
4400
2BF8
0248
0248
17FC
1248
2248
2248
27FC
4408
4030
0000
ENDCHAR

STARTCHAR Cb3a5
ENCODING 45989
SWIDTH 1000 0
DWIDTH 16 0
BBX 16 16 0 -2
BITMAP
0000
0000
3FFC
2000
2080
2088
2488
2490
24A0
2880
2140
2140
4220
4410
580C
0000
ENDCHAR

STARTCHAR Cb3a6
ENCODING 45990
SWIDTH 1000 0
DWIDTH 16 0
BBX 16 16 0 -2
BITMAP
0000
0000
1FF0
1110
1110
1FF0
1110
1110
1FF0
0420
1850
644C
0440
0840
3040
0000
ENDCHAR

STARTCHAR Cb3a7
ENCODING 45991
SWIDTH 1000 0
DWIDTH 16 0
BBX 16 16 0 -2
BITMAP
0000
1080
1098
1EE0
1084
1084
1EFC
7100
0200
1FF0
1010
1FF0
1010
1010
1FF0
0000
ENDCHAR

STARTCHAR Cb3a8
ENCODING 45992
SWIDTH 1000 0
DWIDTH 16 0
BBX 16 16 0 -2
BITMAP
0000
1020
2050
4888
2904
10F8
2400
4400
7DFC
1040
5448
5488
54B4
51C4
1000
0000
ENDCHAR

STARTCHAR Cb3a9
ENCODING 45993
SWIDTH 1000 0
DWIDTH 16 0
BBX 16 16 0 -2
BITMAP
0000
0440
0440
7FFC
0440
0100
0280
0440
1830
644C
0440
0440
0840
0840
1040
0000
ENDCHAR

STARTCHAR Cb3aa
ENCODING 45994
SWIDTH 1000 0
DWIDTH 16 0
BBX 16 16 0 -2
BITMAP
0000
1000
1EFC
2424
7F2C
2950
3F7C
2990
3F7C
4110
1FF0
1110
1FF0
0108
7FF4
0000
ENDCHAR

STARTCHAR Cb3ab
ENCODING 45995
SWIDTH 1000 0
DWIDTH 16 0
BBX 16 16 0 -2
BITMAP
0000
0000
7CF8
4488
7CF8
4488
7CF8
4008
4FC8
4488
5FE8
4488
4488
4888
4038
0000
ENDCHAR

STARTCHAR Cb3ac
ENCODING 45996
SWIDTH 1000 0
DWIDTH 16 0
BBX 16 16 0 -2
BITMAP
0000
0220
7A28
4BB0
4A20
5224
63BC
5640
4880
4BF8
4A08
73F8
4208
4208
43F8
0000
ENDCHAR

STARTCHAR Cb3ad
ENCODING 45997
SWIDTH 1000 0
DWIDTH 16 0
BBX 16 16 0 -2
BITMAP
0000
0000
1FF0
1010
1010
1FF0
1010
1010
1FF0
1010
1010
1FF0
0000
0C70
700C
0000
ENDCHAR

STARTCHAR Cb3ae
ENCODING 45998
SWIDTH 1000 0
DWIDTH 16 0
BBX 16 16 0 -2
BITMAP
0000
0800
2AF0
3E90
0090
7F90
0090
3E90
2290
2290
3E90
0090
2494
1714
791C
0000
ENDCHAR

STARTCHAR Cb3af
ENCODING 45999
SWIDTH 1000 0
DWIDTH 16 0
BBX 16 16 0 -2
BITMAP
0000
0820
0820
7F20
08FC
1224
5224
2424
1524
0924
1224
6444
0A44
1144
6098
0000
ENDCHAR

STARTCHAR Cb3b0
ENCODING 46000
SWIDTH 1000 0
DWIDTH 16 0
BBX 16 16 0 -2
BITMAP
0000
1040
1040
1E40
1240
2340
22C0
5240
0C70
044C
0840
0840
1040
2040
4040
0000
ENDCHAR

STARTCHAR Cb3b1
ENCODING 46001
SWIDTH 1000 0
DWIDTH 16 0
BBX 16 16 0 -2
BITMAP
0000
0040
0040
7BFC
4840
4890
4A90
4920
48A8
4848
4890
7B20
4050
0088
0304
0000
ENDCHAR

STARTCHAR Cb3b2
ENCODING 46002
SWIDTH 1000 0
DWIDTH 16 0
BBX 16 16 0 -2
BITMAP
0000
0100
0100
7FFC
4104
5FF4
0100
1FF0
0100
7FFC
0000
1FF0
1010
1010
1FF0
0000
ENDCHAR

STARTCHAR Cb3b3
ENCODING 46003
SWIDTH 1000 0
DWIDTH 16 0
BBX 16 16 0 -2
BITMAP
0000
0100
1108
1FF8
0000
3FFC
2080
27F0
2080
2FF8
2080
2FF8
4080
4080
5FFC
0000
ENDCHAR

STARTCHAR Cb3b4
ENCODING 46004
SWIDTH 1000 0
DWIDTH 16 0
BBX 16 16 0 -2
BITMAP
0000
1000
17BC
14A8
5CA8
57A8
54A8
54FC
1790
1410
1418
1528
14A8
1FA8
104C
0000
ENDCHAR

STARTCHAR Cb3b5
ENCODING 46005
SWIDTH 1000 0
DWIDTH 16 0
BBX 16 16 0 -2
BITMAP
0000
1000
17BC
14A8
7CA8
17A8
14A8
3CFC
5790
5410
5418
1528
14A8
1FA8
104C
0000
ENDCHAR

STARTCHAR Cb3b6
ENCODING 46006
SWIDTH 1000 0
DWIDTH 16 0
BBX 16 16 0 -2
BITMAP
0000
2000
17FC
0400
4440
25F8
0440
0440
17FC
1400
2440
25F8
2440
4840
4BFC
0000
ENDCHAR

STARTCHAR Cb3b7
ENCODING 46007
SWIDTH 1000 0
DWIDTH 16 0
BBX 16 16 0 -2
BITMAP
0000
0000
7DF8
1108
11F8
1108
21F8
3C00
67FC
2410
27FC
2510
3C90
2010
0070
0000
ENDCHAR

STARTCHAR Cb3b8
ENCODING 46008
SWIDTH 1000 0
DWIDTH 16 0
BBX 16 16 0 -2
BITMAP
0000
0440
7FFC
0440
0100
3FF8
0100
7FFC
0420
0810
3FE8
0000
3FF8
2448
7FFC
0000
ENDCHAR

STARTCHAR Cb3b9
ENCODING 46009
SWIDTH 1000 0
DWIDTH 16 0
BBX 16 16 0 -2
BITMAP
0000
1200
123C
2F80
4200
123C
1FC8
2008
6208
2FC8
2208
2208
23C8
3C08
2038
0000
ENDCHAR

STARTCHAR Cb3ba
ENCODING 46010
SWIDTH 1000 0
DWIDTH 16 0
BBX 16 16 0 -2
BITMAP
0000
0040
7840
03FC
7C40
0090
7A90
0120
78A8
0048
7890
4B20
4850
4888
7B04
0000
ENDCHAR

STARTCHAR Cb3bb
ENCODING 46011
SWIDTH 1000 0
DWIDTH 16 0
BBX 16 16 0 -2
BITMAP
0000
0820
1524
2324
41FC
3E00
09FC
0800
7EF8
0888
2A88
2AF8
2850
0E50
71FC
0000
ENDCHAR

STARTCHAR Cb3bc
ENCODING 46012
SWIDTH 1000 0
DWIDTH 16 0
BBX 16 16 0 -2
BITMAP
0000
0020
3E20
23FC
2E20
2A48
7F48
4190
3E54
2224
3E48
2290
3E28
2244
2684
0000
ENDCHAR

STARTCHAR Cb3bd
ENCODING 46013
SWIDTH 1000 0
DWIDTH 16 0
BBX 16 16 0 -2
BITMAP
0000
2000
17F8
0488
4488
27F8
0488
0488
17F8
1080
2080
27F8
2080
4080
4FFC
0000
ENDCHAR

STARTCHAR Cb3be
ENCODING 46014
SWIDTH 1000 0
DWIDTH 16 0
BBX 16 16 0 -2
BITMAP
0000
0870
7F54
089C
3F00
2AFC
3E48
4030
1FCC
0100
7FFC
1010
3FF8
5014
1FF0
0000
ENDCHAR

STARTCHAR Cb3bf
ENCODING 46015
SWIDTH 1000 0
DWIDTH 16 0
BBX 16 16 0 -2
BITMAP
0000
1040
1040
11F8
7C40
5440
5440
57FC
5440
7C40
51F8
1040
1440
1C40
63FC
0000
ENDCHAR

STARTCHAR Cb3c0
ENCODING 46016
SWIDTH 1000 0
DWIDTH 16 0
BBX 16 16 0 -2
BITMAP
0000
0000
13FC
1000
1000
7DF8
1108
1108
11F8
1108
1108
1DF8
6000
0000
03FC
0000
ENDCHAR

STARTCHAR Cb3c1
ENCODING 46017
SWIDTH 1000 0
DWIDTH 16 0
BBX 16 16 0 -2
BITMAP
0000
1040
1040
13FC
7C40
1040
13F8
3A48
5648
5248
5248
1248
1258
1040
1040
0000
ENDCHAR

STARTCHAR Cb3c2
ENCODING 46018
SWIDTH 1000 0
DWIDTH 16 0
BBX 16 16 0 -2
BITMAP
0000
1000
11FC
1100
7D00
55FC
5520
5520
553C
7D24
1124
1524
1D44
6244
0298
0000
ENDCHAR

STARTCHAR Cb3c3
ENCODING 46019
SWIDTH 1000 0
DWIDTH 16 0
BBX 16 16 0 -2
BITMAP
0000
0880
1480
22FC
4104
3D04
0A04
0844
7E44
0894
2A94
28F4
0E04
7004
0018
0000
ENDCHAR

STARTCHAR Cb3c4
ENCODING 46020
SWIDTH 1000 0
DWIDTH 16 0
BBX 16 16 0 -2
BITMAP
0000
1008
3E48
1248
7F48
1248
7F48
0048
3E48
2A48
3E48
2A08
3E08
0188
7E38
0000
ENDCHAR

STARTCHAR Cb3c5
ENCODING 46021
SWIDTH 1000 0
DWIDTH 16 0
BBX 16 16 0 -2
BITMAP
0000
0210
0210
7F7C
5210
5210
5FFC
5528
5528
5DEC
5528
7528
4928
0948
1358
0000
ENDCHAR

STARTCHAR Cb3c6
ENCODING 46022
SWIDTH 1000 0
DWIDTH 16 0
BBX 16 16 0 -2
BITMAP
0000
0400
0400
0FE0
0820
1440
6280
0100
06C0
1830
6FEC
0820
0820
0820
0FE0
0000
ENDCHAR

STARTCHAR Cb3c7
ENCODING 46023
SWIDTH 1000 0
DWIDTH 16 0
BBX 16 16 0 -2
BITMAP
0000
0080
0080
3FFC
2200
3FFC
28A4
2FA4
2028
2FA4
2124
2224
5FB8
4220
4620
0000
ENDCHAR

STARTCHAR Cb3c8
ENCODING 46024
SWIDTH 1000 0
DWIDTH 16 0
BBX 16 16 0 -2
BITMAP
0000
1040
1040
13FC
7E00
1220
1220
1220
1E40
7240
1250
1248
1288
14B4
35C4
0000
ENDCHAR

STARTCHAR Cb3c9
ENCODING 46025
SWIDTH 1000 0
DWIDTH 16 0
BBX 16 16 0 -2
BITMAP
0000
1288
1150
13FC
7E04
11F8
1108
11F8
1D08
71F8
1108
11F8
10A0
1124
363C
0000
ENDCHAR

STARTCHAR Cb3ca
ENCODING 46026
SWIDTH 1000 0
DWIDTH 16 0
BBX 16 16 0 -2
BITMAP
0000
1080
1080
10F8
7D08
1290
10A0
3840
54A0
5110
57FC
1108
1108
1108
11F8
0000
ENDCHAR

STARTCHAR Cb3cb
ENCODING 46027
SWIDTH 1000 0
DWIDTH 16 0
BBX 16 16 0 -2
BITMAP
0000
1040
1040
13FC
7C40
1090
1290
3920
54A8
5048
5090
1320
1050
1088
1304
0000
ENDCHAR

STARTCHAR Cb3cc
ENCODING 46028
SWIDTH 1000 0
DWIDTH 16 0
BBX 16 16 0 -2
BITMAP
0000
1000
10F0
7E90
1094
7E94
011C
7E00
43F8
3C88
2488
2450
2520
4750
408C
0000
ENDCHAR

STARTCHAR Cb3cd
ENCODING 46029
SWIDTH 1000 0
DWIDTH 16 0
BBX 16 16 0 -2
BITMAP
0000
0490
4BFC
2890
1240
33FC
5640
1BF8
1240
2BFC
2800
4BF8
0890
0860
339C
0000
ENDCHAR

STARTCHAR Cb3ce
ENCODING 46030
SWIDTH 1000 0
DWIDTH 16 0
BBX 16 16 0 -2
BITMAP
0000
0040
7FFC
1294
1090
1120
21FC
3F20
65F8
2520
25F8
2520
3D20
21FC
0100
0000
ENDCHAR

STARTCHAR Cb3cf
ENCODING 46031
SWIDTH 1000 0
DWIDTH 16 0
BBX 16 16 0 -2
BITMAP
0000
0C90
73FC
1090
1120
7DFC
1320
11F8
3920
55FC
5000
53F8
1090
1060
139C
0000
ENDCHAR

STARTCHAR Cb3d0
ENCODING 46032
SWIDTH 1000 0
DWIDTH 16 0
BBX 16 16 0 -2
BITMAP
0000
2420
1240
7FF8
4008
5FE8
1020
1FE0
1020
1FE0
1020
1FE0
0488
0888
70F8
0000
ENDCHAR

STARTCHAR Cb3d1
ENCODING 46033
SWIDTH 1000 0
DWIDTH 16 0
BBX 16 16 0 -2
BITMAP
0000
0400
07C0
0840
0880
1FF8
2888
0888
0FF8
0888
0888
0FF8
1008
1008
2038
0000
ENDCHAR

STARTCHAR Cb3d2
ENCODING 46034
SWIDTH 1000 0
DWIDTH 16 0
BBX 16 16 0 -2
BITMAP
0000
0820
0820
3EF8
0820
0820
7FFC
1450
1450
36D8
5554
1550
2490
2490
4D30
0000
ENDCHAR

STARTCHAR Cb3d3
ENCODING 46035
SWIDTH 1000 0
DWIDTH 16 0
BBX 16 16 0 -2
BITMAP
0000
1020
1020
7DFC
1000
7C90
5488
7D04
5688
5488
7C50
1020
7C50
1088
1304
0000
ENDCHAR

STARTCHAR Cb3d4
ENCODING 46036
SWIDTH 1000 0
DWIDTH 16 0
BBX 16 16 0 -2
BITMAP
0000
0800
087C
7F44
0048
3E48
2250
3E48
0044
3E44
0444
0B44
7C58
0840
1840
0000
ENDCHAR

STARTCHAR Cb3d5
ENCODING 46037
SWIDTH 1000 0
DWIDTH 16 0
BBX 16 16 0 -2
BITMAP
0000
0000
7CF8
4488
7CF8
4488
7CF8
4788
4888
5508
4208
5DC8
4888
4888
4FB8
0000
ENDCHAR

STARTCHAR Cb3d6
ENCODING 46038
SWIDTH 1000 0
DWIDTH 16 0
BBX 16 16 0 -2
BITMAP
0000
0000
7BFC
4800
49F8
5108
61F8
5000
4BFC
4AA4
4B3C
7204
43F4
4244
424C
0000
ENDCHAR

STARTCHAR Cb3d7
ENCODING 46039
SWIDTH 1000 0
DWIDTH 16 0
BBX 16 16 0 -2
BITMAP
0000
0820
7FFC
0820
0FE0
0100
1FF0
1110
1110
1FF0
0100
0100
7FFC
0100
0100
0000
ENDCHAR

STARTCHAR Cb3d8
ENCODING 46040
SWIDTH 1000 0
DWIDTH 16 0
BBX 16 16 0 -2
BITMAP
0000
2210
1120
7FFC
4004
4004
1FE0
0040
0080
0100
7FFC
0100
0100
0100
0700
0000
ENDCHAR

STARTCHAR Cb3d9
ENCODING 46041
SWIDTH 1000 0
DWIDTH 16 0
BBX 16 16 0 -2
BITMAP
0000
00E0
1F00
1000
1FF8
1040
1040
1040
7FFC
0100
2108
2108
2108
3FF8
2008
0000
ENDCHAR

STARTCHAR Cb3da
ENCODING 46042
SWIDTH 1000 0
DWIDTH 16 0
BBX 16 16 0 -2
BITMAP
0000
0100
4204
2FE8
0820
0FE0
0820
2FE8
4104
0100
7FFC
0540
1930
610C
0100
0000
ENDCHAR

STARTCHAR Cb3db
ENCODING 46043
SWIDTH 1000 0
DWIDTH 16 0
BBX 16 16 0 -2
BITMAP
0000
1000
11FC
7E20
5240
1CF8
2488
54F8
0888
14F8
6288
3CF8
2400
2448
3D84
0000
ENDCHAR

STARTCHAR Cb3dc
ENCODING 46044
SWIDTH 1000 0
DWIDTH 16 0
BBX 16 16 0 -2
BITMAP
0000
0000
7FFC
5220
7E40
00F8
3C88
00F8
7E88
10F8
3C88
24F8
0400
0448
1984
0000
ENDCHAR

STARTCHAR Cb3dd
ENCODING 46045
SWIDTH 1000 0
DWIDTH 16 0
BBX 16 16 0 -2
BITMAP
0000
1110
1110
13D0
7D10
1110
17F8
1114
1D10
73D0
1110
1110
11D0
1710
3010
0000
ENDCHAR

STARTCHAR Cb3de
ENCODING 46046
SWIDTH 1000 0
DWIDTH 16 0
BBX 16 16 0 -2
BITMAP
0000
1040
1040
1E7C
2890
4508
0100
0100
3FF8
0020
0820
0840
0440
0480
7FFC
0000
ENDCHAR

STARTCHAR Cb3df
ENCODING 46047
SWIDTH 1000 0
DWIDTH 16 0
BBX 16 16 0 -2
BITMAP
0000
1000
13FC
1284
7FD4
1254
13C8
3A94
57E4
5040
5040
13F8
1040
1040
17FC
0000
ENDCHAR

STARTCHAR Cb3e0
ENCODING 46048
SWIDTH 1000 0
DWIDTH 16 0
BBX 16 16 0 -2
BITMAP
0000
1000
13FC
1000
7DF8
1148
11F8
3148
5BFC
5400
51F8
1148
11F8
1148
13FC
0000
ENDCHAR

STARTCHAR Cb3e1
ENCODING 46049
SWIDTH 1000 0
DWIDTH 16 0
BBX 16 16 0 -2
BITMAP
0000
1000
13F8
1208
7FF8
1200
1230
3BC0
5640
53F8
5240
13FC
1240
1444
147C
0000
ENDCHAR

STARTCHAR Cb3e2
ENCODING 46050
SWIDTH 1000 0
DWIDTH 16 0
BBX 16 16 0 -2
BITMAP
0000
2050
3B90
4890
1094
7FF4
5494
5490
7DD0
5690
54A8
7CA8
00A8
54C4
5484
0000
ENDCHAR

STARTCHAR Cb3e3
ENCODING 46051
SWIDTH 1000 0
DWIDTH 16 0
BBX 16 16 0 -2
BITMAP
0000
2080
1338
0208
43B8
2208
0208
03F8
1100
13FC
2404
2154
2554
4544
4818
0000
ENDCHAR

STARTCHAR Cb3e4
ENCODING 46052
SWIDTH 1000 0
DWIDTH 16 0
BBX 16 16 0 -2
BITMAP
0000
0808
0848
7F48
4948
3E48
0848
3E48
0848
7F48
0048
3E08
2208
2208
3E38
0000
ENDCHAR

STARTCHAR Cb3e5
ENCODING 46053
SWIDTH 1000 0
DWIDTH 16 0
BBX 16 16 0 -2
BITMAP
0000
0000
03F0
7A10
4BF0
4A10
4BF0
4900
4BFC
7A04
4644
0B84
0224
03E4
0018
0000
ENDCHAR

STARTCHAR Cb3e6
ENCODING 46054
SWIDTH 1000 0
DWIDTH 16 0
BBX 16 16 0 -2
BITMAP
0000
1040
10A0
1110
5A08
5404
53F8
5000
1000
13F8
1208
1208
1208
13F8
1208
0000
ENDCHAR

STARTCHAR Cb3e7
ENCODING 46055
SWIDTH 1000 0
DWIDTH 16 0
BBX 16 16 0 -2
BITMAP
0000
1000
1038
13C0
7C40
1040
13FC
1040
1C40
71F8
1108
1108
1108
11F8
3108
0000
ENDCHAR

STARTCHAR Cb3e8
ENCODING 46056
SWIDTH 1000 0
DWIDTH 16 0
BBX 16 16 0 -2
BITMAP
0000
2000
1038
07C0
4040
2040
07FC
0040
1040
13F8
2208
2208
2208
43F8
4208
0000
ENDCHAR

STARTCHAR Cb3e9
ENCODING 46057
SWIDTH 1000 0
DWIDTH 16 0
BBX 16 16 0 -2
BITMAP
0000
2000
13F0
0210
43F0
2210
03F0
0100
13FC
1204
2644
2B84
2224
43E4
4018
0000
ENDCHAR

STARTCHAR Cb3ea
ENCODING 46058
SWIDTH 1000 0
DWIDTH 16 0
BBX 16 16 0 -2
BITMAP
0000
2000
13F8
0208
42F8
2288
07FC
0404
13F8
1208
23F8
2208
23F8
4208
4238
0000
ENDCHAR

STARTCHAR Cb3eb
ENCODING 46059
SWIDTH 1000 0
DWIDTH 16 0
BBX 16 16 0 -2
BITMAP
0000
0440
7FFC
0440
1FE0
1020
1FE0
1020
1FE0
0800
1FF8
3108
5E08
1088
1FB0
0000
ENDCHAR

STARTCHAR Cb3ec
ENCODING 46060
SWIDTH 1000 0
DWIDTH 16 0
BBX 16 16 0 -2
BITMAP
0000
1000
11F8
7D08
05F8
0908
09F8
1080
35FC
5B04
1524
11C4
1114
11F4
1018
0000
ENDCHAR

STARTCHAR Cb3ed
ENCODING 46061
SWIDTH 1000 0
DWIDTH 16 0
BBX 16 16 0 -2
BITMAP
0000
1040
1040
7FFC
1244
7DF8
5440
7DF8
5440
57FC
7C00
11F8
7D08
1108
11F8
0000
ENDCHAR

STARTCHAR Cb3ee
ENCODING 46062
SWIDTH 1000 0
DWIDTH 16 0
BBX 16 16 0 -2
BITMAP
0000
0000
1FE0
1020
1020
1020
1FE0
1020
1020
1020
1FE0
1020
1020
1020
7FF8
0000
ENDCHAR

STARTCHAR Cb3ef
ENCODING 46063
SWIDTH 1000 0
DWIDTH 16 0
BBX 16 16 0 -2
BITMAP
0000
2000
3BFC
4A94
13D4
7E54
53C8
5288
7FD4
5400
5440
7DF8
0040
5440
53FC
0000
ENDCHAR

STARTCHAR Cb3f0
ENCODING 46064
SWIDTH 1000 0
DWIDTH 16 0
BBX 16 16 0 -2
BITMAP
0000
0040
0040
7C40
4440
4440
47FC
4440
4440
4440
4440
7C40
4440
0040
0040
0000
ENDCHAR

STARTCHAR Cb3f1
ENCODING 46065
SWIDTH 1000 0
DWIDTH 16 0
BBX 16 16 0 -2
BITMAP
0000
1090
1090
13FC
7C90
1000
10A0
38A4
5528
5130
5320
1520
1124
1124
113C
0000
ENDCHAR

STARTCHAR Cb3f2
ENCODING 46066
SWIDTH 1000 0
DWIDTH 16 0
BBX 16 16 0 -2
BITMAP
0000
1110
17FC
1110
7800
17FC
1150
37FC
5950
5150
57FC
1040
17FC
1040
1040
0000
ENDCHAR

STARTCHAR Cb3f3
ENCODING 46067
SWIDTH 1000 0
DWIDTH 16 0
BBX 16 16 0 -2
BITMAP
0000
2880
2880
7DF8
2908
3908
12E8
7C28
5428
54E8
7C98
1080
7E84
1084
10FC
0000
ENDCHAR

STARTCHAR Cb3f4
ENCODING 46068
SWIDTH 1000 0
DWIDTH 16 0
BBX 16 16 0 -2
BITMAP
0000
1040
1140
1140
7DF8
1240
1040
3BFC
5550
5150
5150
1248
1248
1444
1040
0000
ENDCHAR

STARTCHAR Cb3f5
ENCODING 46069
SWIDTH 1000 0
DWIDTH 16 0
BBX 16 16 0 -2
BITMAP
0000
0100
0A00
37D8
2448
2448
27C8
2448
2448
37D8
0000
0440
0444
0844
707C
0000
ENDCHAR

STARTCHAR Cb3f6
ENCODING 46070
SWIDTH 1000 0
DWIDTH 16 0
BBX 16 16 0 -2
BITMAP
0000
0100
7FFC
4494
38F0
0100
3FF8
0100
7FFC
1110
3FF8
2108
3FF8
0104
01FC
0000
ENDCHAR

STARTCHAR Cb3f7
ENCODING 46071
SWIDTH 1000 0
DWIDTH 16 0
BBX 16 16 0 -2
BITMAP
0000
0440
7FFC
0450
4088
2FFC
0080
47F8
2488
07F8
1488
17F8
2488
2488
4498
0000
ENDCHAR

STARTCHAR Cb3f8
ENCODING 46072
SWIDTH 1000 0
DWIDTH 16 0
BBX 16 16 0 -2
BITMAP
0000
0000
0460
1818
6444
0280
0100
0EE0
701C
0FE0
0100
3FF8
0920
0540
7FFC
0000
ENDCHAR

STARTCHAR Cb3f9
ENCODING 46073
SWIDTH 1000 0
DWIDTH 16 0
BBX 16 16 0 -2
BITMAP
0000
1110
28A0
47FC
00A0
7DF8
10A8
13FC
7CA8
10A8
55F8
50A0
1DB0
72A8
04A4
0000
ENDCHAR

STARTCHAR Cb3fa
ENCODING 46074
SWIDTH 1000 0
DWIDTH 16 0
BBX 16 16 0 -2
BITMAP
0000
0040
0040
7D78
4540
4540
47FC
4440
4554
4554
47FC
7C44
44E4
0554
07FC
0000
ENDCHAR

STARTCHAR Cb3fb
ENCODING 46075
SWIDTH 1000 0
DWIDTH 16 0
BBX 16 16 0 -2
BITMAP
0000
0020
7C40
55F8
5508
7DF8
5508
55F8
5500
7DFC
1100
11FC
1554
1544
1818
0000
ENDCHAR

STARTCHAR Cb3fc
ENCODING 46076
SWIDTH 1000 0
DWIDTH 16 0
BBX 16 16 0 -2
BITMAP
0000
1000
13FC
1020
7C40
11F8
1108
3908
5508
51F8
5108
1108
1108
11F8
1108
0000
ENDCHAR

STARTCHAR Cb3fd
ENCODING 46077
SWIDTH 1000 0
DWIDTH 16 0
BBX 16 16 0 -2
BITMAP
0000
0440
7FFC
0440
0000
1FF0
0020
06C0
0100
7FFC
0288
0490
1880
6080
0380
0000
ENDCHAR

STARTCHAR Cb3fe
ENCODING 46078
SWIDTH 1000 0
DWIDTH 16 0
BBX 16 16 0 -2
BITMAP
0000
0440
7FFC
0440
0100
7FFC
4004
5FF4
0000
0FE0
0820
0FE0
0820
0820
7FFC
0000
ENDCHAR

STARTCHAR Cb4a1
ENCODING 46241
SWIDTH 1000 0
DWIDTH 16 0
BBX 16 16 0 -2
BITMAP
0000
0100
797C
0D44
0B44
0904
7FFC
4120
4120
7BBC
4D44
0944
0904
0904
3118
0000
ENDCHAR

STARTCHAR Cb4a2
ENCODING 46242
SWIDTH 1000 0
DWIDTH 16 0
BBX 16 16 0 -2
BITMAP
0000
0008
0448
0448
4448
2448
1448
0848
0848
0848
1448
1448
2208
2208
4038
0000
ENDCHAR

STARTCHAR Cb4a3
ENCODING 46243
SWIDTH 1000 0
DWIDTH 16 0
BBX 16 16 0 -2
BITMAP
0000
0440
0440
7FFC
0440
0008
0448
2448
1448
0848
0848
1448
1208
2208
4038
0000
ENDCHAR

STARTCHAR Cb4a4
ENCODING 46244
SWIDTH 1000 0
DWIDTH 16 0
BBX 16 16 0 -2
BITMAP
0000
0000
7FFC
0400
0400
0400
07E0
0420
0620
0920
08A0
0820
09A4
0E24
703C
0000
ENDCHAR

STARTCHAR Cb4a5
ENCODING 46245
SWIDTH 1000 0
DWIDTH 16 0
BBX 16 16 0 -2
BITMAP
0000
1040
1040
7EFC
1080
7D00
44F8
7C10
4420
4440
7C40
1080
7E84
1084
107C
0000
ENDCHAR

STARTCHAR Cb4a6
ENCODING 46246
SWIDTH 1000 0
DWIDTH 16 0
BBX 16 16 0 -2
BITMAP
0000
0800
0BF8
0A08
1208
1208
33F8
5000
1290
1290
1290
1290
1494
1494
181C
0000
ENDCHAR

STARTCHAR Cb4a7
ENCODING 46247
SWIDTH 1000 0
DWIDTH 16 0
BBX 16 16 0 -2
BITMAP
0000
0000
7FFC
4004
4014
3E10
01FC
0010
7E90
1450
1410
1430
2404
2404
47FC
0000
ENDCHAR

STARTCHAR Cb4a8
ENCODING 46248
SWIDTH 1000 0
DWIDTH 16 0
BBX 16 16 0 -2
BITMAP
0000
0100
7FFC
4444
5FF4
0440
3FF8
0440
7FFC
0820
1710
60CC
0000
0F00
00E0
0000
ENDCHAR

STARTCHAR Cb4a9
ENCODING 46249
SWIDTH 1000 0
DWIDTH 16 0
BBX 16 16 0 -2
BITMAP
0000
0004
7F44
0844
0844
0844
0844
7F44
0844
0844
0844
0804
0804
0804
083C
0000
ENDCHAR

STARTCHAR Cb4aa
ENCODING 46250
SWIDTH 1000 0
DWIDTH 16 0
BBX 16 16 0 -2
BITMAP
0000
1220
1220
7F20
12FC
1E24
1224
1E24
1224
7FA4
2A24
3324
2044
3F44
2098
0000
ENDCHAR

STARTCHAR Cb4ab
ENCODING 46251
SWIDTH 1000 0
DWIDTH 16 0
BBX 16 16 0 -2
BITMAP
0000
1020
1020
3F20
48FC
3F24
1224
3F24
6424
3F24
2444
3F44
2444
3F84
2098
0000
ENDCHAR

STARTCHAR Cb4ac
ENCODING 46252
SWIDTH 1000 0
DWIDTH 16 0
BBX 16 16 0 -2
BITMAP
0000
1110
0920
0100
3FF8
0280
0440
7FFC
0820
17D0
604C
0FC0
0810
0810
0FF0
0000
ENDCHAR

STARTCHAR Cb4ad
ENCODING 46253
SWIDTH 1000 0
DWIDTH 16 0
BBX 16 16 0 -2
BITMAP
0000
0080
00F0
7910
4A20
4FF8
4AA8
4AA8
4B38
4A08
4840
7FFC
40A0
0110
060C
0000
ENDCHAR

STARTCHAR Cb4ae
ENCODING 46254
SWIDTH 1000 0
DWIDTH 16 0
BBX 16 16 0 -2
BITMAP
0000
0110
1110
17FC
1110
7DF0
1110
11F0
1110
17FC
12A0
1EA4
633C
0200
03FC
0000
ENDCHAR

STARTCHAR Cb4af
ENCODING 46255
SWIDTH 1000 0
DWIDTH 16 0
BBX 16 16 0 -2
BITMAP
0000
0200
7FFC
0420
0840
1C80
0370
7C0C
0840
7FFC
1248
2288
1450
0A28
71C4
0000
ENDCHAR

STARTCHAR Cb4b0
ENCODING 46256
SWIDTH 1000 0
DWIDTH 16 0
BBX 16 16 0 -2
BITMAP
0000
0100
0100
7FFC
4004
4004
1FF0
0000
0000
3FF8
0440
0440
0444
0844
707C
0000
ENDCHAR

STARTCHAR Cb4b1
ENCODING 46257
SWIDTH 1000 0
DWIDTH 16 0
BBX 16 16 0 -2
BITMAP
0000
0100
0100
7FFC
4004
4FE4
0820
0820
0FE0
0800
0800
0FF0
0810
0810
0FF0
0000
ENDCHAR

STARTCHAR Cb4b2
ENCODING 46258
SWIDTH 1000 0
DWIDTH 16 0
BBX 16 16 0 -2
BITMAP
0000
0100
7FFC
4004
4444
1FF0
0440
1FF0
1010
1FF0
1010
1FF0
0444
0844
707C
0000
ENDCHAR

STARTCHAR Cb4b3
ENCODING 46259
SWIDTH 1000 0
DWIDTH 16 0
BBX 16 16 0 -2
BITMAP
0000
0000
3FF8
0100
0100
0100
0100
7FFC
0100
0100
0100
0100
0100
0100
0100
0000
ENDCHAR

STARTCHAR Cb4b4
ENCODING 46260
SWIDTH 1000 0
DWIDTH 16 0
BBX 16 16 0 -2
BITMAP
0000
0820
0850
7E88
0904
3E00
22F8
3E20
2220
23FC
3E20
0820
7F20
0820
0820
0000
ENDCHAR

STARTCHAR Cb4b5
ENCODING 46261
SWIDTH 1000 0
DWIDTH 16 0
BBX 16 16 0 -2
BITMAP
0000
0100
0100
1FF0
1110
1FF0
0100
3FF8
2108
3FF8
0100
0910
2888
2824
4FE4
0000
ENDCHAR

STARTCHAR Cb4b6
ENCODING 46262
SWIDTH 1000 0
DWIDTH 16 0
BBX 16 16 0 -2
BITMAP
0000
0050
0048
3FFC
2040
2F50
2050
2F20
2924
4F54
408C
0900
2888
2824
4FE4
0000
ENDCHAR

STARTCHAR Cb4b7
ENCODING 46263
SWIDTH 1000 0
DWIDTH 16 0
BBX 16 16 0 -2
BITMAP
0000
1000
13F8
1A48
57FC
5248
53F8
5000
13F8
1208
13F8
1208
13F8
1110
160C
0000
ENDCHAR

STARTCHAR Cb4b8
ENCODING 46264
SWIDTH 1000 0
DWIDTH 16 0
BBX 16 16 0 -2
BITMAP
0000
1028
1024
17FC
5C20
55E4
5414
55D4
1548
15D8
18A4
1140
1548
1514
19F4
0000
ENDCHAR

STARTCHAR Cb4b9
ENCODING 46265
SWIDTH 1000 0
DWIDTH 16 0
BBX 16 16 0 -2
BITMAP
0000
1100
11E0
1220
7C40
13F8
12A8
12A8
1F38
7208
1040
17FC
10A0
1110
360C
0000
ENDCHAR

STARTCHAR Cb4ba
ENCODING 46266
SWIDTH 1000 0
DWIDTH 16 0
BBX 16 16 0 -2
BITMAP
0000
0040
3E40
0840
087C
7F48
2288
3E88
2350
3E50
2220
2220
3E50
6288
0304
0000
ENDCHAR

STARTCHAR Cb4bb
ENCODING 46267
SWIDTH 1000 0
DWIDTH 16 0
BBX 16 16 0 -2
BITMAP
0000
1108
1108
1108
7FFC
1108
1108
3908
55F8
5108
5108
1108
1108
11F8
1108
0000
ENDCHAR

STARTCHAR Cb4bc
ENCODING 46268
SWIDTH 1000 0
DWIDTH 16 0
BBX 16 16 0 -2
BITMAP
0000
1000
13FC
1000
7C00
11F8
1108
3908
55F8
5108
5108
11F8
1000
1000
13FC
0000
ENDCHAR

STARTCHAR Cb4bd
ENCODING 46269
SWIDTH 1000 0
DWIDTH 16 0
BBX 16 16 0 -2
BITMAP
0000
1040
1040
17FC
7C04
11F0
1110
3910
55F0
5100
5100
11F8
1108
1108
11F8
0000
ENDCHAR

STARTCHAR Cb4be
ENCODING 46270
SWIDTH 1000 0
DWIDTH 16 0
BBX 16 16 0 -2
BITMAP
0000
0840
0840
7F40
087C
3EA4
00A8
3E20
0020
7E50
0850
2A50
2A88
4888
1904
0000
ENDCHAR

STARTCHAR Cb4bf
ENCODING 46271
SWIDTH 1000 0
DWIDTH 16 0
BBX 16 16 0 -2
BITMAP
0000
2040
2040
3E40
487C
3EA4
14A8
3F20
6820
3E50
2850
3E50
2888
3E88
2104
0000
ENDCHAR

STARTCHAR Cb4c0
ENCODING 46272
SWIDTH 1000 0
DWIDTH 16 0
BBX 16 16 0 -2
BITMAP
0000
2000
13F8
0040
4040
2040
0040
07FC
1040
1040
2040
2040
2040
4040
4040
0000
ENDCHAR

STARTCHAR Cb4c1
ENCODING 46273
SWIDTH 1000 0
DWIDTH 16 0
BBX 16 16 0 -2
BITMAP
0000
2110
17FC
0110
43F8
2248
0248
03F8
1040
13F8
2040
27FC
20A0
4110
460C
0000
ENDCHAR

STARTCHAR Cb4c2
ENCODING 46274
SWIDTH 1000 0
DWIDTH 16 0
BBX 16 16 0 -2
BITMAP
0000
2000
17BC
04A4
47BC
24A4
07BC
0404
1404
15E4
2524
25E4
2524
45E4
440C
0000
ENDCHAR

STARTCHAR Cb4c3
ENCODING 46275
SWIDTH 1000 0
DWIDTH 16 0
BBX 16 16 0 -2
BITMAP
0000
2200
1200
07FC
4480
2BFC
0120
03FC
1640
13F8
2240
23F8
2240
4240
43FC
0000
ENDCHAR

STARTCHAR Cb4c4
ENCODING 46276
SWIDTH 1000 0
DWIDTH 16 0
BBX 16 16 0 -2
BITMAP
0000
0000
03F8
7EA8
13F8
1000
13F8
7C00
13F8
1208
13F8
1CA4
61A8
0690
008C
0000
ENDCHAR

STARTCHAR Cb4c5
ENCODING 46277
SWIDTH 1000 0
DWIDTH 16 0
BBX 16 16 0 -2
BITMAP
0000
1020
1020
7FF8
1020
1020
1020
1020
1FE0
1020
1020
1020
1020
1FE0
1020
0000
ENDCHAR

STARTCHAR Cb4c6
ENCODING 46278
SWIDTH 1000 0
DWIDTH 16 0
BBX 16 16 0 -2
BITMAP
0000
0040
7E40
487C
7E80
4280
7E00
48F8
7E00
0000
3FF8
2488
2488
2488
7FFC
0000
ENDCHAR

STARTCHAR Cb4c7
ENCODING 46279
SWIDTH 1000 0
DWIDTH 16 0
BBX 16 16 0 -2
BITMAP
0000
0060
1F80
0200
3FF8
0200
7FFC
0400
0FF0
1810
6FF0
0810
0FF0
0810
0FF0
0000
ENDCHAR

STARTCHAR Cb4c8
ENCODING 46280
SWIDTH 1000 0
DWIDTH 16 0
BBX 16 16 0 -2
BITMAP
0000
1040
1040
1E7C
2890
4508
0000
3FF8
0100
0100
0100
7FFC
0100
0100
0100
0000
ENDCHAR

STARTCHAR Cb4c9
ENCODING 46281
SWIDTH 1000 0
DWIDTH 16 0
BBX 16 16 0 -2
BITMAP
0000
1040
1E7C
2890
4508
0100
7FFC
4004
4FE4
0820
0FE0
0800
0FF0
0810
0FF0
0000
ENDCHAR

STARTCHAR Cb4ca
ENCODING 46282
SWIDTH 1000 0
DWIDTH 16 0
BBX 16 16 0 -2
BITMAP
0000
1040
1E7C
2890
4508
3EF8
2288
3EF8
2288
3EF8
27C8
2448
27C8
2448
27D8
0000
ENDCHAR

STARTCHAR Cb4cb
ENCODING 46283
SWIDTH 1000 0
DWIDTH 16 0
BBX 16 16 0 -2
BITMAP
0000
101C
23E0
4844
2924
10A8
25FC
4440
7FFC
1080
54F8
5548
5150
5220
10DC
0000
ENDCHAR

STARTCHAR Cb4cc
ENCODING 46284
SWIDTH 1000 0
DWIDTH 16 0
BBX 16 16 0 -2
BITMAP
0000
0800
0800
1FF8
1100
2100
0100
7FFC
0100
1100
1108
1108
1108
1FF8
1008
0000
ENDCHAR

STARTCHAR Cb4cd
ENCODING 46285
SWIDTH 1000 0
DWIDTH 16 0
BBX 16 16 0 -2
BITMAP
0000
1020
1050
7C88
1104
7C00
45DC
7C44
4554
44CC
7C44
10CC
7D54
1044
10CC
0000
ENDCHAR

STARTCHAR Cb4ce
ENCODING 46286
SWIDTH 1000 0
DWIDTH 16 0
BBX 16 16 0 -2
BITMAP
0000
0000
3DF8
2440
2440
2440
3C40
27FC
2440
2440
3C40
2440
2440
2440
4C40
0000
ENDCHAR

STARTCHAR Cb4cf
ENCODING 46287
SWIDTH 1000 0
DWIDTH 16 0
BBX 16 16 0 -2
BITMAP
0000
0810
11D0
3D1C
25E0
3540
25C0
271C
7DC0
2400
35FC
2D54
2554
2554
4FFC
0000
ENDCHAR

STARTCHAR Cb4d0
ENCODING 46288
SWIDTH 1000 0
DWIDTH 16 0
BBX 16 16 0 -2
BITMAP
0000
0440
7FFC
0440
0100
7FFC
4004
5FF4
0000
0000
3FF8
0440
0444
0844
707C
0000
ENDCHAR

STARTCHAR Cb4d1
ENCODING 46289
SWIDTH 1000 0
DWIDTH 16 0
BBX 16 16 0 -2
BITMAP
0000
2000
20F8
3E88
48F8
3E88
14F8
3E88
6888
3EF8
2850
3E50
2894
3E94
211C
0000
ENDCHAR

STARTCHAR Cb4d2
ENCODING 46290
SWIDTH 1000 0
DWIDTH 16 0
BBX 16 16 0 -2
BITMAP
0000
0020
3C20
01FC
7C20
01FC
3D24
01FC
3D24
01FC
3C20
2470
24A8
2524
3C20
0000
ENDCHAR

STARTCHAR Cb4d3
ENCODING 46291
SWIDTH 1000 0
DWIDTH 16 0
BBX 16 16 0 -2
BITMAP
0000
0000
0FF0
0910
7FFC
1220
1FE0
0000
1FF0
1010
1FF0
1010
1FF0
0820
701C
0000
ENDCHAR

STARTCHAR Cb4d4
ENCODING 46292
SWIDTH 1000 0
DWIDTH 16 0
BBX 16 16 0 -2
BITMAP
0000
0000
43F8
22A8
13F8
0000
07FC
7208
13F8
1044
11E8
1650
1048
2C00
43FC
0000
ENDCHAR

STARTCHAR Cb4d5
ENCODING 46293
SWIDTH 1000 0
DWIDTH 16 0
BBX 16 16 0 -2
BITMAP
0000
1010
29D0
451C
01E0
7D40
11C0
111C
7DC0
1000
55FC
5154
1D54
7154
03FC
0000
ENDCHAR

STARTCHAR Cb4d6
ENCODING 46294
SWIDTH 1000 0
DWIDTH 16 0
BBX 16 16 0 -2
BITMAP
0000
0000
7CF8
4488
7CF8
4488
7CF8
4008
4008
4FC8
4848
4FC8
4848
4FC8
4038
0000
ENDCHAR

STARTCHAR Cb4d7
ENCODING 46295
SWIDTH 1000 0
DWIDTH 16 0
BBX 16 16 0 -2
BITMAP
0000
0000
7CF8
4488
7CF8
4488
7CF8
4208
4208
5FC8
4208
4708
4A88
5248
4238
0000
ENDCHAR

STARTCHAR Cb4d8
ENCODING 46296
SWIDTH 1000 0
DWIDTH 16 0
BBX 16 16 0 -2
BITMAP
0000
0000
7CF8
4488
7CF8
4488
7CF8
4888
4508
4FC8
4208
4FC8
4288
5C48
4038
0000
ENDCHAR

STARTCHAR Cb4d9
ENCODING 46297
SWIDTH 1000 0
DWIDTH 16 0
BBX 16 16 0 -2
BITMAP
0000
0080
7880
49F0
4910
5220
6440
52FC
4A84
4A84
4AFC
7284
4284
4284
42FC
0000
ENDCHAR

STARTCHAR Cb4da
ENCODING 46298
SWIDTH 1000 0
DWIDTH 16 0
BBX 16 16 0 -2
BITMAP
0000
1040
11F8
7C88
13FC
7C00
45F8
7D08
45F8
4420
7DF8
1120
7FFC
1020
1020
0000
ENDCHAR

STARTCHAR Cb4db
ENCODING 46299
SWIDTH 1000 0
DWIDTH 16 0
BBX 16 16 0 -2
BITMAP
0000
0820
1420
23FC
4904
3EF8
2288
3E88
22F8
2280
3E80
20FC
2884
2484
7AFC
0000
ENDCHAR

STARTCHAR Cb4dc
ENCODING 46300
SWIDTH 1000 0
DWIDTH 16 0
BBX 16 16 0 -2
BITMAP
0000
0820
1420
23FC
4104
3EF8
0888
0888
7EF8
0880
0880
3EFC
2284
2284
3EFC
0000
ENDCHAR

STARTCHAR Cb4dd
ENCODING 46301
SWIDTH 1000 0
DWIDTH 16 0
BBX 16 16 0 -2
BITMAP
0000
0200
0200
0200
3FE0
0220
0220
0220
1A20
0620
0520
08A4
0824
1024
603C
0000
ENDCHAR

STARTCHAR Cb4de
ENCODING 46302
SWIDTH 1000 0
DWIDTH 16 0
BBX 16 16 0 -2
BITMAP
0000
0100
0280
0440
0820
17D0
600C
0FE0
0020
0040
1FF0
1010
1010
1010
1FF0
0000
ENDCHAR

STARTCHAR Cb4df
ENCODING 46303
SWIDTH 1000 0
DWIDTH 16 0
BBX 16 16 0 -2
BITMAP
0000
0100
1110
1110
1FF0
0000
3FFC
2000
2FF8
2080
2080
3FFC
2080
4080
4080
0000
ENDCHAR

STARTCHAR Cb4e0
ENCODING 46304
SWIDTH 1000 0
DWIDTH 16 0
BBX 16 16 0 -2
BITMAP
0000
0100
2108
3FF8
0920
3FFC
2000
2F20
243C
3F48
29A8
2F28
2910
4F28
5944
0000
ENDCHAR

STARTCHAR Cb4e1
ENCODING 46305
SWIDTH 1000 0
DWIDTH 16 0
BBX 16 16 0 -2
BITMAP
0000
0000
01F8
7C00
1000
1000
13FC
7C90
1090
1090
1090
1C90
6114
0114
061C
0000
ENDCHAR

STARTCHAR Cb4e2
ENCODING 46306
SWIDTH 1000 0
DWIDTH 16 0
BBX 16 16 0 -2
BITMAP
0000
0080
0080
1FFC
1210
53F0
3000
17BC
14A4
34A4
57BC
1040
2444
2444
47FC
0000
ENDCHAR

STARTCHAR Cb4e3
ENCODING 46307
SWIDTH 1000 0
DWIDTH 16 0
BBX 16 16 0 -2
BITMAP
0000
0000
7DF8
4508
4508
7DF8
4508
4508
7DF8
4524
4528
4510
7D10
01C8
0604
0000
ENDCHAR

STARTCHAR Cb4e4
ENCODING 46308
SWIDTH 1000 0
DWIDTH 16 0
BBX 16 16 0 -2
BITMAP
0000
0100
2108
2108
3FF8
0000
0000
7FFC
0800
1000
1FF8
2808
4808
0808
0FF8
0000
ENDCHAR

STARTCHAR Cb4e5
ENCODING 46309
SWIDTH 1000 0
DWIDTH 16 0
BBX 16 16 0 -2
BITMAP
0000
0000
7778
1100
5500
3300
55FC
1150
0850
7F50
4150
7F50
4154
4154
7F9C
0000
ENDCHAR

STARTCHAR Cb4e6
ENCODING 46310
SWIDTH 1000 0
DWIDTH 16 0
BBX 16 16 0 -2
BITMAP
0000
0000
3FFC
2288
25FC
2C90
34FC
2490
27FC
2408
27F8
2408
27F8
4220
5C1C
0000
ENDCHAR

STARTCHAR Cb4e7
ENCODING 46311
SWIDTH 1000 0
DWIDTH 16 0
BBX 16 16 0 -2
BITMAP
0000
0000
3FFC
2000
2248
2290
25FC
2490
2C90
34FC
2490
24FC
4490
4490
44FC
0000
ENDCHAR

STARTCHAR Cb4e8
ENCODING 46312
SWIDTH 1000 0
DWIDTH 16 0
BBX 16 16 0 -2
BITMAP
0000
0000
01FC
3C20
0040
00F8
7E88
28F8
2888
28F8
2888
2AF8
2A00
4E48
4184
0000
ENDCHAR

STARTCHAR Cb4e9
ENCODING 46313
SWIDTH 1000 0
DWIDTH 16 0
BBX 16 16 0 -2
BITMAP
0000
0800
09FC
3E20
1440
14F8
3F88
24F8
2888
32F8
2488
28F8
3200
4448
5984
0000
ENDCHAR

STARTCHAR Cb4ea
ENCODING 46314
SWIDTH 1000 0
DWIDTH 16 0
BBX 16 16 0 -2
BITMAP
0000
0000
3FFC
2210
2420
2F78
2948
2F78
2948
2F78
2448
2478
4D00
5548
4484
0000
ENDCHAR

STARTCHAR Cb4eb
ENCODING 46315
SWIDTH 1000 0
DWIDTH 16 0
BBX 16 16 0 -2
BITMAP
0000
0100
0280
0440
0820
1010
2108
4104
0900
09F0
0900
0900
0900
0900
7FFC
0000
ENDCHAR

STARTCHAR Cb4ec
ENCODING 46316
SWIDTH 1000 0
DWIDTH 16 0
BBX 16 16 0 -2
BITMAP
0000
0840
0840
0FFC
1040
1040
3040
53F8
1108
1110
1090
10A0
1040
11B0
160C
0000
ENDCHAR

STARTCHAR Cb4ed
ENCODING 46317
SWIDTH 1000 0
DWIDTH 16 0
BBX 16 16 0 -2
BITMAP
0000
0400
0FC0
0840
1080
3FFC
5000
1000
13F0
1210
1210
1270
2204
2204
43FC
0000
ENDCHAR

STARTCHAR Cb4ee
ENCODING 46318
SWIDTH 1000 0
DWIDTH 16 0
BBX 16 16 0 -2
BITMAP
0000
0100
7FFC
0100
3FF8
0000
1FF0
1010
1FF0
0440
7FFC
0000
1FF0
1010
1FF0
0000
ENDCHAR

STARTCHAR Cb4ef
ENCODING 46319
SWIDTH 1000 0
DWIDTH 16 0
BBX 16 16 0 -2
BITMAP
0000
0000
3EF8
2288
2288
3EF8
0100
7FFC
0440
1830
600C
3EF8
2288
2288
3EF8
0000
ENDCHAR

STARTCHAR Cb4f0
ENCODING 46320
SWIDTH 1000 0
DWIDTH 16 0
BBX 16 16 0 -2
BITMAP
0000
0820
0820
3FF8
0820
0FE0
0820
0FE0
0820
7FFC
0920
1110
6FEC
0100
3FF8
0000
ENDCHAR

STARTCHAR Cb4f1
ENCODING 46321
SWIDTH 1000 0
DWIDTH 16 0
BBX 16 16 0 -2
BITMAP
0000
0100
0100
3FF8
0280
0440
0820
7FFC
0010
1F90
1090
1090
1F90
1010
0070
0000
ENDCHAR

STARTCHAR Cb4f2
ENCODING 46322
SWIDTH 1000 0
DWIDTH 16 0
BBX 16 16 0 -2
BITMAP
0000
1040
13FC
1040
7DF8
2400
25F8
2508
45F8
4890
2BFC
1800
15F8
2308
41F8
0000
ENDCHAR

STARTCHAR Cb4f3
ENCODING 46323
SWIDTH 1000 0
DWIDTH 16 0
BBX 16 16 0 -2
BITMAP
0000
0100
0100
7FFC
4104
5FF4
0280
0440
3FFC
0010
1F90
1090
1F90
1010
0070
0000
ENDCHAR

STARTCHAR Cb4f4
ENCODING 46324
SWIDTH 1000 0
DWIDTH 16 0
BBX 16 16 0 -2
BITMAP
0000
0040
1040
17FC
1040
5440
5440
57F8
5508
5510
5490
54A0
7C40
40B0
030C
0000
ENDCHAR

STARTCHAR Cb4f5
ENCODING 46325
SWIDTH 1000 0
DWIDTH 16 0
BBX 16 16 0 -2
BITMAP
0000
0020
0E40
0180
0660
3810
0200
7FFC
0480
0880
1FF8
6888
0888
08B8
0080
0000
ENDCHAR

STARTCHAR Cb4f6
ENCODING 46326
SWIDTH 1000 0
DWIDTH 16 0
BBX 16 16 0 -2
BITMAP
0000
2140
4588
2950
1120
2548
7BF4
0120
0110
7FFC
1090
18A0
2444
21A4
4E1C
0000
ENDCHAR

STARTCHAR Cb4f7
ENCODING 46327
SWIDTH 1000 0
DWIDTH 16 0
BBX 16 16 0 -2
BITMAP
0000
0000
1FF0
0010
0010
1FF0
1000
1008
1FF8
0000
0200
2910
2908
4824
4FE4
0000
ENDCHAR

STARTCHAR Cb4f8
ENCODING 46328
SWIDTH 1000 0
DWIDTH 16 0
BBX 16 16 0 -2
BITMAP
0000
1000
17FC
1444
7FF8
1040
13F8
1248
1FF8
7248
13F8
1040
17FC
1040
3040
0000
ENDCHAR

STARTCHAR Cb4f9
ENCODING 46329
SWIDTH 1000 0
DWIDTH 16 0
BBX 16 16 0 -2
BITMAP
0000
1000
11F0
1110
7D10
1110
1110
3910
5510
5110
5110
1110
1214
1214
141C
0000
ENDCHAR

STARTCHAR Cb4fa
ENCODING 46330
SWIDTH 1000 0
DWIDTH 16 0
BBX 16 16 0 -2
BITMAP
0000
0880
0880
7FFC
1100
1288
11FC
1E88
12F8
1288
12F8
1288
23FC
2248
4D84
0000
ENDCHAR

STARTCHAR Cb4fb
ENCODING 46331
SWIDTH 1000 0
DWIDTH 16 0
BBX 16 16 0 -2
BITMAP
0000
0000
3EFC
2250
2250
3E50
2250
23FC
3E20
2050
2850
2490
3A94
6114
021C
0000
ENDCHAR

STARTCHAR Cb4fc
ENCODING 46332
SWIDTH 1000 0
DWIDTH 16 0
BBX 16 16 0 -2
BITMAP
0000
2200
227C
7F44
2244
2244
3E7C
2244
3E44
2244
227C
7F44
0044
2484
428C
0000
ENDCHAR

STARTCHAR Cb4fd
ENCODING 46333
SWIDTH 1000 0
DWIDTH 16 0
BBX 16 16 0 -2
BITMAP
0000
1108
1108
13FC
7D08
1108
11F8
3908
55F8
5108
5108
13FC
1000
1098
1304
0000
ENDCHAR

STARTCHAR Cb4fe
ENCODING 46334
SWIDTH 1000 0
DWIDTH 16 0
BBX 16 16 0 -2
BITMAP
0000
0100
7FFC
0420
0810
3FF8
0920
7FFC
0920
0FE0
0100
7FFC
0540
1930
610C
0000
ENDCHAR

STARTCHAR Cb5a1
ENCODING 46497
SWIDTH 1000 0
DWIDTH 16 0
BBX 16 16 0 -2
BITMAP
0000
1148
1250
12D4
7948
1250
13DC
3848
57FC
5240
5224
1328
1290
1428
14C4
0000
ENDCHAR

STARTCHAR Cb5a2
ENCODING 46498
SWIDTH 1000 0
DWIDTH 16 0
BBX 16 16 0 -2
BITMAP
0000
0000
0BF8
0808
4BF8
4808
4BF8
4800
4FFC
4844
0BF8
0A48
1248
1258
2040
0000
ENDCHAR

STARTCHAR Cb5a3
ENCODING 46499
SWIDTH 1000 0
DWIDTH 16 0
BBX 16 16 0 -2
BITMAP
0000
1000
10F0
7E90
2490
2494
7F1C
1000
35F8
4888
1888
2C50
4A20
0850
318C
0000
ENDCHAR

STARTCHAR Cb5a4
ENCODING 46500
SWIDTH 1000 0
DWIDTH 16 0
BBX 16 16 0 -2
BITMAP
0000
1000
1000
1FF8
2000
2FE0
4000
3FE0
0020
0120
1920
0620
0514
1894
600C
0000
ENDCHAR

STARTCHAR Cb5a5
ENCODING 46501
SWIDTH 1000 0
DWIDTH 16 0
BBX 16 16 0 -2
BITMAP
0000
2200
1200
03F8
4400
2BF0
0000
07E0
1020
1020
2020
2020
2014
4014
400C
0000
ENDCHAR

STARTCHAR Cb5a6
ENCODING 46502
SWIDTH 1000 0
DWIDTH 16 0
BBX 16 16 0 -2
BITMAP
0000
1120
2140
1528
0910
1324
7DFC
0120
7FFC
0088
3E48
2A50
3E24
2A54
3E8C
0000
ENDCHAR

STARTCHAR Cb5a7
ENCODING 46503
SWIDTH 1000 0
DWIDTH 16 0
BBX 16 16 0 -2
BITMAP
0000
1018
11E0
7D00
0500
0900
09FC
1110
3910
5510
1110
1110
1210
1210
1410
0000
ENDCHAR

STARTCHAR Cb5a8
ENCODING 46504
SWIDTH 1000 0
DWIDTH 16 0
BBX 16 16 0 -2
BITMAP
0000
00F0
3F00
0100
7FFC
0540
1930
610C
0FE0
0040
0080
7FFC
0100
0100
0700
0000
ENDCHAR

STARTCHAR Cb5a9
ENCODING 46505
SWIDTH 1000 0
DWIDTH 16 0
BBX 16 16 0 -2
BITMAP
0000
0C08
70D0
1030
11C8
7C40
13FC
10A0
3920
55FC
5324
5524
1124
112C
1020
0000
ENDCHAR

STARTCHAR Cb5aa
ENCODING 46506
SWIDTH 1000 0
DWIDTH 16 0
BBX 16 16 0 -2
BITMAP
0000
1000
21F8
4808
2808
1008
2408
45F8
7D08
1100
5500
5500
5504
5104
11FC
0000
ENDCHAR

STARTCHAR Cb5ab
ENCODING 46507
SWIDTH 1000 0
DWIDTH 16 0
BBX 16 16 0 -2
BITMAP
0000
1220
12A0
2AA0
4FFC
1228
1428
2548
6228
24A8
2F90
2210
2AA8
2AA8
2244
0000
ENDCHAR

STARTCHAR Cb5ac
ENCODING 46508
SWIDTH 1000 0
DWIDTH 16 0
BBX 16 16 0 -2
BITMAP
0000
0800
09F8
0908
3F08
09F8
0908
7FF8
0908
0908
09F8
1490
1294
2114
461C
0000
ENDCHAR

STARTCHAR Cb5ad
ENCODING 46509
SWIDTH 1000 0
DWIDTH 16 0
BBX 16 16 0 -2
BITMAP
0000
0000
3DF8
0008
7E08
0008
3E08
00F8
3E88
0080
3E80
2280
2284
2284
3EFC
0000
ENDCHAR

STARTCHAR Cb5ae
ENCODING 46510
SWIDTH 1000 0
DWIDTH 16 0
BBX 16 16 0 -2
BITMAP
0000
0100
1FF0
1110
1FF0
0100
7FFC
1010
1FF0
1010
1FF0
1010
1FF0
0820
701C
0000
ENDCHAR

STARTCHAR Cb5af
ENCODING 46511
SWIDTH 1000 0
DWIDTH 16 0
BBX 16 16 0 -2
BITMAP
0000
0800
08F8
3E08
0808
0808
7EF8
0888
0880
2E84
2884
28FC
3800
2C00
43FC
0000
ENDCHAR

STARTCHAR Cb5b0
ENCODING 46512
SWIDTH 1000 0
DWIDTH 16 0
BBX 16 16 0 -2
BITMAP
0000
1080
1080
7C80
13F0
7C90
5490
7C90
5490
5490
7C90
1090
7D14
1114
121C
0000
ENDCHAR

STARTCHAR Cb5b1
ENCODING 46513
SWIDTH 1000 0
DWIDTH 16 0
BBX 16 16 0 -2
BITMAP
0000
1000
13FC
5644
59F8
5040
11F8
7D48
29F8
2948
29F8
2C40
4BFC
5040
4040
0000
ENDCHAR

STARTCHAR Cb5b2
ENCODING 46514
SWIDTH 1000 0
DWIDTH 16 0
BBX 16 16 0 -2
BITMAP
0000
0800
14F0
2290
4890
3E90
2290
3E90
2290
2290
3E90
2090
2914
2514
7A1C
0000
ENDCHAR

STARTCHAR Cb5b3
ENCODING 46515
SWIDTH 1000 0
DWIDTH 16 0
BBX 16 16 0 -2
BITMAP
0000
0020
3E20
29FC
3E20
2850
3E88
29FC
2808
3EE8
02A8
56A8
52E8
4208
0C38
0000
ENDCHAR

STARTCHAR Cb5b4
ENCODING 46516
SWIDTH 1000 0
DWIDTH 16 0
BBX 16 16 0 -2
BITMAP
0000
0100
0200
1FF0
1110
1110
1FF0
1110
1110
1FF0
04A0
04A8
08B8
1084
60FC
0000
ENDCHAR

STARTCHAR Cb5b5
ENCODING 46517
SWIDTH 1000 0
DWIDTH 16 0
BBX 16 16 0 -2
BITMAP
0000
0800
0FC0
1080
3FF0
5110
1FF0
1110
3FF8
2108
3FF8
2108
3FF8
0104
01FC
0000
ENDCHAR

STARTCHAR Cb5b6
ENCODING 46518
SWIDTH 1000 0
DWIDTH 16 0
BBX 16 16 0 -2
BITMAP
0000
0A20
0920
0840
13F0
1090
3110
51F8
1208
1208
17FC
1804
1554
1544
1818
0000
ENDCHAR

STARTCHAR Cb5b7
ENCODING 46519
SWIDTH 1000 0
DWIDTH 16 0
BBX 16 16 0 -2
BITMAP
0000
0910
08A0
0BFC
1040
13F8
3040
57FC
1128
17FC
1120
11A8
1710
1134
134C
0000
ENDCHAR

STARTCHAR Cb5b8
ENCODING 46520
SWIDTH 1000 0
DWIDTH 16 0
BBX 16 16 0 -2
BITMAP
0000
1040
1040
13FC
7C40
2440
2440
27F8
4508
4510
2890
18A0
1440
20B0
430C
0000
ENDCHAR

STARTCHAR Cb5b9
ENCODING 46521
SWIDTH 1000 0
DWIDTH 16 0
BBX 16 16 0 -2
BITMAP
0000
0100
0100
7FFC
4004
4FE4
0820
0820
0FE0
0820
0820
0FE0
0820
0820
7FFC
0000
ENDCHAR

STARTCHAR Cb5ba
ENCODING 46522
SWIDTH 1000 0
DWIDTH 16 0
BBX 16 16 0 -2
BITMAP
0000
0820
0F28
0824
3F20
29FC
3E20
2824
2F24
2028
2A28
2B30
3A24
4B54
5C8C
0000
ENDCHAR

STARTCHAR Cb5bb
ENCODING 46523
SWIDTH 1000 0
DWIDTH 16 0
BBX 16 16 0 -2
BITMAP
0000
1040
1040
13FC
7C40
1040
1040
13F8
1D08
7110
1090
10A0
1040
11B0
360C
0000
ENDCHAR

STARTCHAR Cb5bc
ENCODING 46524
SWIDTH 1000 0
DWIDTH 16 0
BBX 16 16 0 -2
BITMAP
0000
1400
157C
1604
7CA8
1790
1008
147C
1790
7A10
125C
1FD0
1250
1570
389C
0000
ENDCHAR

STARTCHAR Cb5bd
ENCODING 46525
SWIDTH 1000 0
DWIDTH 16 0
BBX 16 16 0 -2
BITMAP
0000
2240
2240
7F7C
22A4
22A8
3F20
2220
3E20
2250
2250
7F50
0088
2288
4104
0000
ENDCHAR

STARTCHAR Cb5be
ENCODING 46526
SWIDTH 1000 0
DWIDTH 16 0
BBX 16 16 0 -2
BITMAP
0000
1110
50A0
53FC
7C40
53F8
5040
17FC
1928
77FC
1120
11A8
1710
1134
134C
0000
ENDCHAR

STARTCHAR Cb5bf
ENCODING 46527
SWIDTH 1000 0
DWIDTH 16 0
BBX 16 16 0 -2
BITMAP
0000
2000
26FC
3808
2250
3E20
0010
21FC
3E24
4820
08BC
7EA0
08A0
1560
621C
0000
ENDCHAR

STARTCHAR Cb5c0
ENCODING 46528
SWIDTH 1000 0
DWIDTH 16 0
BBX 16 16 0 -2
BITMAP
0000
1018
11E0
7D20
0520
0920
0920
11FC
3920
5520
1120
1120
1114
11D4
160C
0000
ENDCHAR

STARTCHAR Cb5c1
ENCODING 46529
SWIDTH 1000 0
DWIDTH 16 0
BBX 16 16 0 -2
BITMAP
0000
0820
0440
3FF8
0100
1FF0
0100
7FFC
0888
7FFC
0850
0E50
7820
0854
398C
0000
ENDCHAR

STARTCHAR Cb5c2
ENCODING 46530
SWIDTH 1000 0
DWIDTH 16 0
BBX 16 16 0 -2
BITMAP
0000
1108
1090
13FC
7C40
55F8
5440
57FC
5490
7FFC
5090
10D4
1588
1C98
65A4
0000
ENDCHAR

STARTCHAR Cb5c3
ENCODING 46531
SWIDTH 1000 0
DWIDTH 16 0
BBX 16 16 0 -2
BITMAP
0000
0020
3820
01FC
7F04
0000
3CF8
0088
3C88
00F8
3C88
24F8
2488
2488
3DFC
0000
ENDCHAR

STARTCHAR Cb5c4
ENCODING 46532
SWIDTH 1000 0
DWIDTH 16 0
BBX 16 16 0 -2
BITMAP
0000
0108
3890
03FC
7C40
01F8
3C40
03FC
3C90
03FC
3C90
24D4
2788
2498
3DA4
0000
ENDCHAR

STARTCHAR Cb5c5
ENCODING 46533
SWIDTH 1000 0
DWIDTH 16 0
BBX 16 16 0 -2
BITMAP
0000
1080
1080
11FC
7D04
1254
1164
1044
1DF4
7044
10E4
1154
1244
1044
3018
0000
ENDCHAR

STARTCHAR Cb5c6
ENCODING 46534
SWIDTH 1000 0
DWIDTH 16 0
BBX 16 16 0 -2
BITMAP
0000
0440
7FFC
0440
1000
1FF8
2008
3248
4A88
0208
3FE8
0A88
1248
2208
0270
0000
ENDCHAR

STARTCHAR Cb5c7
ENCODING 46535
SWIDTH 1000 0
DWIDTH 16 0
BBX 16 16 0 -2
BITMAP
0000
2880
2880
7DFC
2904
3A54
1164
7C44
55F4
5444
7CE4
1154
7E44
1044
1018
0000
ENDCHAR

STARTCHAR Cb5c8
ENCODING 46536
SWIDTH 1000 0
DWIDTH 16 0
BBX 16 16 0 -2
BITMAP
0000
0100
0100
7FFC
0100
0100
3FF8
0000
0000
1FF0
1010
1010
1010
1FF0
1010
0000
ENDCHAR

STARTCHAR Cb5c9
ENCODING 46537
SWIDTH 1000 0
DWIDTH 16 0
BBX 16 16 0 -2
BITMAP
0000
0080
0080
7DFC
4500
4600
45F8
4410
4420
4440
4480
7C80
4104
0104
00FC
0000
ENDCHAR

STARTCHAR Cb5ca
ENCODING 46538
SWIDTH 1000 0
DWIDTH 16 0
BBX 16 16 0 -2
BITMAP
0000
0100
07FC
7914
4B94
4924
49A4
4E4C
4800
4840
4BFC
7840
40A0
0110
060C
0000
ENDCHAR

STARTCHAR Cb5cb
ENCODING 46539
SWIDTH 1000 0
DWIDTH 16 0
BBX 16 16 0 -2
BITMAP
0000
1040
1040
13FC
7C40
1040
11F8
3800
5400
51F8
5108
1108
1108
11F8
1108
0000
ENDCHAR

STARTCHAR Cb5cc
ENCODING 46540
SWIDTH 1000 0
DWIDTH 16 0
BBX 16 16 0 -2
BITMAP
0000
1000
11F8
1008
7C50
13FC
10A4
3960
5400
53FC
5294
131C
12F4
1294
12F4
0000
ENDCHAR

STARTCHAR Cb5cd
ENCODING 46541
SWIDTH 1000 0
DWIDTH 16 0
BBX 16 16 0 -2
BITMAP
0000
0040
3C40
0040
7FFC
0040
3C40
01F8
3C00
01F8
3D08
2508
2508
25F8
3D08
0000
ENDCHAR

STARTCHAR Cb5ce
ENCODING 46542
SWIDTH 1000 0
DWIDTH 16 0
BBX 16 16 0 -2
BITMAP
0000
0020
7E20
1020
103C
1020
2020
3C20
65FC
2504
2504
2504
3D04
21FC
0104
0000
ENDCHAR

STARTCHAR Cb5cf
ENCODING 46543
SWIDTH 1000 0
DWIDTH 16 0
BBX 16 16 0 -2
BITMAP
0000
1100
1100
11F8
7D40
1240
1240
3840
57FC
5040
5040
1040
1040
1040
1040
0000
ENDCHAR

STARTCHAR Cb5d0
ENCODING 46544
SWIDTH 1000 0
DWIDTH 16 0
BBX 16 16 0 -2
BITMAP
0000
00F0
1F00
0100
7FFC
0540
1930
628C
0440
1930
654C
0180
0D60
3118
0300
0000
ENDCHAR

STARTCHAR Cb5d1
ENCODING 46545
SWIDTH 1000 0
DWIDTH 16 0
BBX 16 16 0 -2
BITMAP
0000
0800
087C
3F44
0844
0844
0844
7F44
1044
1044
1244
225C
2D40
7140
0040
0000
ENDCHAR

STARTCHAR Cb5d2
ENCODING 46546
SWIDTH 1000 0
DWIDTH 16 0
BBX 16 16 0 -2
BITMAP
0000
0200
0200
7FF8
4408
47C8
0840
3480
0300
0480
1860
6FD8
0840
0840
0FC0
0000
ENDCHAR

STARTCHAR Cb5d3
ENCODING 46547
SWIDTH 1000 0
DWIDTH 16 0
BBX 16 16 0 -2
BITMAP
0000
0100
393C
2BE4
2924
2924
3924
2FE4
2924
2924
3A24
2AAC
2F60
4820
5820
0000
ENDCHAR

STARTCHAR Cb5d4
ENCODING 46548
SWIDTH 1000 0
DWIDTH 16 0
BBX 16 16 0 -2
BITMAP
0000
0100
01F0
0100
3FFC
2204
2FE0
2208
23F8
2000
27F8
2400
47F8
4400
47F8
0000
ENDCHAR

STARTCHAR Cb5d5
ENCODING 46549
SWIDTH 1000 0
DWIDTH 16 0
BBX 16 16 0 -2
BITMAP
0000
0210
4110
2120
17FC
0040
0248
7248
1248
13F8
1080
1080
1100
2C00
43FC
0000
ENDCHAR

STARTCHAR Cb5d6
ENCODING 46550
SWIDTH 1000 0
DWIDTH 16 0
BBX 16 16 0 -2
BITMAP
0000
0000
0070
0F80
0800
0800
0800
0FF8
0840
0840
0840
0840
0840
0840
7FFC
0000
ENDCHAR

STARTCHAR Cb5d7
ENCODING 46551
SWIDTH 1000 0
DWIDTH 16 0
BBX 16 16 0 -2
BITMAP
0000
0400
0400
07E0
0820
0820
1040
2040
4080
0080
0140
0220
0410
1808
6004
0000
ENDCHAR

STARTCHAR Cb5d8
ENCODING 46552
SWIDTH 1000 0
DWIDTH 16 0
BBX 16 16 0 -2
BITMAP
0000
0880
0880
0880
1080
17F0
3090
5090
1090
1110
1110
1110
1214
1214
141C
0000
ENDCHAR

STARTCHAR Cb5d9
ENCODING 46553
SWIDTH 1000 0
DWIDTH 16 0
BBX 16 16 0 -2
BITMAP
0000
0840
0840
0840
17FC
1150
3150
5150
1248
1248
1248
1444
1444
1040
1040
0000
ENDCHAR

STARTCHAR Cb5da
ENCODING 46554
SWIDTH 1000 0
DWIDTH 16 0
BBX 16 16 0 -2
BITMAP
0000
0000
1FE0
0420
0420
0440
0470
0410
0A10
0A20
0920
10C0
10A0
2310
4C0C
0000
ENDCHAR

STARTCHAR Cb5db
ENCODING 46555
SWIDTH 1000 0
DWIDTH 16 0
BBX 16 16 0 -2
BITMAP
0000
0000
03F0
7910
4910
4920
4938
4908
4908
4A88
7A90
4250
0420
0450
098C
0000
ENDCHAR

STARTCHAR Cb5dc
ENCODING 46556
SWIDTH 1000 0
DWIDTH 16 0
BBX 16 16 0 -2
BITMAP
0000
0100
0100
7FFC
4004
4FE4
0820
0820
0FE0
0100
0200
1FF0
1010
1010
1FF0
0000
ENDCHAR

STARTCHAR Cb5dd
ENCODING 46557
SWIDTH 1000 0
DWIDTH 16 0
BBX 16 16 0 -2
BITMAP
0000
0000
1FF0
0010
0010
0010
1FF0
1000
1000
3FF8
2008
0008
0008
0010
01E0
0000
ENDCHAR

STARTCHAR Cb5de
ENCODING 46558
SWIDTH 1000 0
DWIDTH 16 0
BBX 16 16 0 -2
BITMAP
0000
0400
0FC0
0840
1080
3FF0
4010
1FF0
0010
1FF0
0200
2910
2908
4824
4FE4
0000
ENDCHAR

STARTCHAR Cb5df
ENCODING 46559
SWIDTH 1000 0
DWIDTH 16 0
BBX 16 16 0 -2
BITMAP
0000
0840
0A40
0940
7E7C
0888
4A88
2D48
2850
0850
2C20
4A20
0850
0888
3904
0000
ENDCHAR

STARTCHAR Cb5e0
ENCODING 46560
SWIDTH 1000 0
DWIDTH 16 0
BBX 16 16 0 -2
BITMAP
0000
1000
13FC
1040
7C40
1080
1080
38F8
5508
5108
5008
1008
1008
1008
1070
0000
ENDCHAR

STARTCHAR Cb5e1
ENCODING 46561
SWIDTH 1000 0
DWIDTH 16 0
BBX 16 16 0 -2
BITMAP
0000
0120
0110
0100
7FFC
0100
2184
1148
1150
0120
0520
1910
6108
0104
0700
0000
ENDCHAR

STARTCHAR Cb5e2
ENCODING 46562
SWIDTH 1000 0
DWIDTH 16 0
BBX 16 16 0 -2
BITMAP
0000
2000
17F0
0110
4110
2120
0138
0108
1108
1288
2290
2250
2420
4450
498C
0000
ENDCHAR

STARTCHAR Cb5e3
ENCODING 46563
SWIDTH 1000 0
DWIDTH 16 0
BBX 16 16 0 -2
BITMAP
0000
2040
1040
0040
47FC
2000
0008
0208
1208
1110
2110
2110
2120
4020
47FC
0000
ENDCHAR

STARTCHAR Cb5e4
ENCODING 46564
SWIDTH 1000 0
DWIDTH 16 0
BBX 16 16 0 -2
BITMAP
0000
0200
07C0
0840
3080
0340
0C30
710C
0110
0910
0920
1100
0280
0C60
701C
0000
ENDCHAR

STARTCHAR Cb5e5
ENCODING 46565
SWIDTH 1000 0
DWIDTH 16 0
BBX 16 16 0 -2
BITMAP
0000
0050
0048
7C40
13FC
1040
1040
7A44
1168
1050
10D0
1D48
6244
0040
01C0
0000
ENDCHAR

STARTCHAR Cb5e6
ENCODING 46566
SWIDTH 1000 0
DWIDTH 16 0
BBX 16 16 0 -2
BITMAP
0000
0100
0100
7FFC
4084
4484
0888
30F8
0200
0200
3FE0
0420
0424
0824
703C
0000
ENDCHAR

STARTCHAR Cb5e7
ENCODING 46567
SWIDTH 1000 0
DWIDTH 16 0
BBX 16 16 0 -2
BITMAP
0000
0100
7FFC
4084
4494
38F0
0800
3EF8
2208
3EF8
2380
7EFC
0A04
1204
6638
0000
ENDCHAR

STARTCHAR Cb5e8
ENCODING 46568
SWIDTH 1000 0
DWIDTH 16 0
BBX 16 16 0 -2
BITMAP
0000
1040
1E7C
2890
4508
1FE0
0420
0440
0A78
0A08
0910
10A0
1040
21B0
460C
0000
ENDCHAR

STARTCHAR Cb5e9
ENCODING 46569
SWIDTH 1000 0
DWIDTH 16 0
BBX 16 16 0 -2
BITMAP
0000
1000
23F8
4888
2888
1090
249C
4484
7D44
1144
5528
5528
5210
5228
10C4
0000
ENDCHAR

STARTCHAR Cb5ea
ENCODING 46570
SWIDTH 1000 0
DWIDTH 16 0
BBX 16 16 0 -2
BITMAP
0000
1010
2010
4890
2890
1090
2490
4490
7C90
109C
54F0
5710
5410
5010
1010
0000
ENDCHAR

STARTCHAR Cb5eb
ENCODING 46571
SWIDTH 1000 0
DWIDTH 16 0
BBX 16 16 0 -2
BITMAP
0000
1060
2090
4908
2A04
1000
25F8
4400
7C00
11F8
5508
5508
5508
51F8
1108
0000
ENDCHAR

STARTCHAR Cb5ec
ENCODING 46572
SWIDTH 1000 0
DWIDTH 16 0
BBX 16 16 0 -2
BITMAP
0000
0000
27F8
2408
2408
2408
2408
27F8
2408
2408
2408
2408
2408
27F8
2408
0000
ENDCHAR

STARTCHAR Cb5ed
ENCODING 46573
SWIDTH 1000 0
DWIDTH 16 0
BBX 16 16 0 -2
BITMAP
0000
0100
1100
1100
1FF8
2100
2100
4100
0100
7FFC
0100
0100
0100
0100
0100
0000
ENDCHAR

STARTCHAR Cb5ee
ENCODING 46574
SWIDTH 1000 0
DWIDTH 16 0
BBX 16 16 0 -2
BITMAP
0000
0100
0100
0100
3FF8
0100
0100
0100
7FFC
0400
0420
0810
0808
10F4
3F04
0000
ENDCHAR

STARTCHAR Cb5ef
ENCODING 46575
SWIDTH 1000 0
DWIDTH 16 0
BBX 16 16 0 -2
BITMAP
0000
0000
1FF8
1008
1008
1FF8
1080
1080
1FFC
1080
1080
17F8
2408
2408
47F8
0000
ENDCHAR

STARTCHAR Cb5f0
ENCODING 46576
SWIDTH 1000 0
DWIDTH 16 0
BBX 16 16 0 -2
BITMAP
0000
0000
3FF8
2000
2000
2000
3FF0
2010
2010
2010
3FF0
2000
2000
2000
3FF8
0000
ENDCHAR

STARTCHAR Cb5f1
ENCODING 46577
SWIDTH 1000 0
DWIDTH 16 0
BBX 16 16 0 -2
BITMAP
0000
1000
11FC
1100
7D00
1100
11F8
1108
1D08
7108
11F8
1100
1100
1100
31FC
0000
ENDCHAR

STARTCHAR Cb5f2
ENCODING 46578
SWIDTH 1000 0
DWIDTH 16 0
BBX 16 16 0 -2
BITMAP
0000
1200
1238
13A8
7AA8
14A8
14A8
1AA8
12A8
7948
114C
1280
1240
1430
380C
0000
ENDCHAR

STARTCHAR Cb5f3
ENCODING 46579
SWIDTH 1000 0
DWIDTH 16 0
BBX 16 16 0 -2
BITMAP
0000
2410
1220
0040
7FFC
0820
10D0
6F0C
0100
1FF0
0100
7FFC
0100
0100
0700
0000
ENDCHAR

STARTCHAR Cb5f4
ENCODING 46580
SWIDTH 1000 0
DWIDTH 16 0
BBX 16 16 0 -2
BITMAP
0000
2000
17F8
4400
27F0
0410
17F0
2400
27FC
4100
0100
7FFC
0540
1930
610C
0000
ENDCHAR

STARTCHAR Cb5f5
ENCODING 46581
SWIDTH 1000 0
DWIDTH 16 0
BBX 16 16 0 -2
BITMAP
0000
0080
00F8
0080
1FFC
1104
11E0
1708
11F8
1000
1120
1924
2528
2120
4FFC
0000
ENDCHAR

STARTCHAR Cb5f6
ENCODING 46582
SWIDTH 1000 0
DWIDTH 16 0
BBX 16 16 0 -2
BITMAP
0000
0080
3C80
01FC
7D20
0220
3C20
0020
3DFC
0020
3C20
2420
2420
2420
3C20
0000
ENDCHAR

STARTCHAR Cb5f7
ENCODING 46583
SWIDTH 1000 0
DWIDTH 16 0
BBX 16 16 0 -2
BITMAP
0000
0000
3EFC
2280
2280
2280
3EF8
0888
0888
2E88
28F8
2880
2E80
7080
00FC
0000
ENDCHAR

STARTCHAR Cb5f8
ENCODING 46584
SWIDTH 1000 0
DWIDTH 16 0
BBX 16 16 0 -2
BITMAP
0000
0800
14FC
2284
4084
3EFC
0890
0890
7EFC
0890
2A90
297C
0D44
7144
027C
0000
ENDCHAR

STARTCHAR Cb5f9
ENCODING 46585
SWIDTH 1000 0
DWIDTH 16 0
BBX 16 16 0 -2
BITMAP
0000
2100
13E0
0220
4440
2FF8
0488
07F8
1488
1488
27F8
2000
2948
4924
5124
0000
ENDCHAR

STARTCHAR Cb5fa
ENCODING 46586
SWIDTH 1000 0
DWIDTH 16 0
BBX 16 16 0 -2
BITMAP
0000
2400
47BC
0924
1FE4
3124
55A4
152C
17A0
0000
1FF0
0000
7FFC
0920
3118
0000
ENDCHAR

STARTCHAR Cb5fb
ENCODING 46587
SWIDTH 1000 0
DWIDTH 16 0
BBX 16 16 0 -2
BITMAP
0000
0400
0FC0
0840
1080
3FF0
5110
1110
1FF0
1110
1110
1FF0
2488
2444
4444
0000
ENDCHAR

STARTCHAR Cb5fc
ENCODING 46588
SWIDTH 1000 0
DWIDTH 16 0
BBX 16 16 0 -2
BITMAP
0000
0100
7FFC
0000
1FF0
1010
1FF0
0000
3FF0
0020
0040
0180
0100
0100
0700
0000
ENDCHAR

STARTCHAR Cb5fd
ENCODING 46589
SWIDTH 1000 0
DWIDTH 16 0
BBX 16 16 0 -2
BITMAP
0000
0100
7FFC
0000
1FF0
1010
1FF0
0000
1FE0
0040
0080
7FFC
0100
0100
0700
0000
ENDCHAR

STARTCHAR Cb5fe
ENCODING 46590
SWIDTH 1000 0
DWIDTH 16 0
BBX 16 16 0 -2
BITMAP
0000
0100
0100
7FFC
0000
0000
1FF0
1010
1010
1FF0
0100
1120
1110
2108
4708
0000
ENDCHAR

STARTCHAR Cb6a1
ENCODING 46753
SWIDTH 1000 0
DWIDTH 16 0
BBX 16 16 0 -2
BITMAP
0000
0910
0910
0910
13F8
1110
3110
5110
1110
1110
17FC
1000
1110
1208
1404
0000
ENDCHAR

STARTCHAR Cb6a2
ENCODING 46754
SWIDTH 1000 0
DWIDTH 16 0
BBX 16 16 0 -2
BITMAP
0000
0840
0840
0BF8
1040
1248
3150
5040
17FC
10A0
10A0
1110
1110
1208
1404
0000
ENDCHAR

STARTCHAR Cb6a3
ENCODING 46755
SWIDTH 1000 0
DWIDTH 16 0
BBX 16 16 0 -2
BITMAP
0000
0830
0BC0
0880
17FC
1110
33F8
5514
1110
17FC
1404
15F4
1514
15F4
140C
0000
ENDCHAR

STARTCHAR Cb6a4
ENCODING 46756
SWIDTH 1000 0
DWIDTH 16 0
BBX 16 16 0 -2
BITMAP
0000
0000
2028
2648
2188
2248
2C28
2008
3FF8
2448
0440
0840
0844
1044
607C
0000
ENDCHAR

STARTCHAR Cb6a5
ENCODING 46757
SWIDTH 1000 0
DWIDTH 16 0
BBX 16 16 0 -2
BITMAP
0000
0820
0820
3EFC
1450
7EFC
0000
3EF8
2288
2288
3EF8
1450
1454
2694
491C
0000
ENDCHAR

STARTCHAR Cb6a6
ENCODING 46758
SWIDTH 1000 0
DWIDTH 16 0
BBX 16 16 0 -2
BITMAP
0000
0820
0820
0820
3FF8
0820
0820
0820
0820
7FFC
0000
0440
0830
1008
6004
0000
ENDCHAR

STARTCHAR Cb6a7
ENCODING 46759
SWIDTH 1000 0
DWIDTH 16 0
BBX 16 16 0 -2
BITMAP
0000
0000
4088
4088
5088
4908
4508
4208
4508
4888
5048
4008
4008
7FF8
4008
0000
ENDCHAR

ENDFONT
